<svg width="22" height="22" viewBox="0 0 22 22" fill="none" xmlns="http://www.w3.org/2000/svg">
<path d="M20.2749 19.6574H18.0249V1.65744H18.7749C18.9738 1.65744 19.1646 1.57842 19.3052 1.43777C19.4459 1.29712 19.5249 1.10635 19.5249 0.90744C19.5249 0.708528 19.4459 0.517762 19.3052 0.37711C19.1646 0.236458 18.9738 0.15744 18.7749 0.15744H2.2749C2.07599 0.15744 1.88522 0.236458 1.74457 0.37711C1.60392 0.517762 1.5249 0.708528 1.5249 0.90744C1.5249 1.10635 1.60392 1.29712 1.74457 1.43777C1.88522 1.57842 2.07599 1.65744 2.2749 1.65744H3.0249V19.6574H0.774902C0.57599 19.6574 0.385224 19.7365 0.244572 19.8771C0.10392 20.0178 0.0249023 20.2085 0.0249023 20.4074C0.0249023 20.6064 0.10392 20.7971 0.244572 20.9378C0.385224 21.0784 0.57599 21.1574 0.774902 21.1574H20.2749C20.4738 21.1574 20.6646 21.0784 20.8052 20.9378C20.9459 20.7971 21.0249 20.6064 21.0249 20.4074C21.0249 20.2085 20.9459 20.0178 20.8052 19.8771C20.6646 19.7365 20.4738 19.6574 20.2749 19.6574ZM4.5249 1.65744H16.5249V19.6574H13.5249V15.9074C13.5249 15.7085 13.4459 15.5178 13.3052 15.3771C13.1646 15.2365 12.9738 15.1574 12.7749 15.1574H8.2749C8.07599 15.1574 7.88522 15.2365 7.74457 15.3771C7.60392 15.5178 7.5249 15.7085 7.5249 15.9074V19.6574H4.5249V1.65744ZM12.0249 19.6574H9.0249V16.6574H12.0249V19.6574ZM6.7749 4.65744C6.7749 4.45853 6.85392 4.26776 6.99457 4.12711C7.13522 3.98646 7.32599 3.90744 7.5249 3.90744H9.0249C9.22381 3.90744 9.41458 3.98646 9.55523 4.12711C9.69588 4.26776 9.7749 4.45853 9.7749 4.65744C9.7749 4.85635 9.69588 5.04712 9.55523 5.18777C9.41458 5.32842 9.22381 5.40744 9.0249 5.40744H7.5249C7.32599 5.40744 7.13522 5.32842 6.99457 5.18777C6.85392 5.04712 6.7749 4.85635 6.7749 4.65744ZM11.2749 4.65744C11.2749 4.45853 11.3539 4.26776 11.4946 4.12711C11.6352 3.98646 11.826 3.90744 12.0249 3.90744H13.5249C13.7238 3.90744 13.9146 3.98646 14.0552 4.12711C14.1959 4.26776 14.2749 4.45853 14.2749 4.65744C14.2749 4.85635 14.1959 5.04712 14.0552 5.18777C13.9146 5.32842 13.7238 5.40744 13.5249 5.40744H12.0249C11.826 5.40744 11.6352 5.32842 11.4946 5.18777C11.3539 5.04712 11.2749 4.85635 11.2749 4.65744ZM6.7749 8.40744C6.7749 8.20853 6.85392 8.01776 6.99457 7.87711C7.13522 7.73646 7.32599 7.65744 7.5249 7.65744H9.0249C9.22381 7.65744 9.41458 7.73646 9.55523 7.87711C9.69588 8.01776 9.7749 8.20853 9.7749 8.40744C9.7749 8.60635 9.69588 8.79712 9.55523 8.93777C9.41458 9.07842 9.22381 9.15744 9.0249 9.15744H7.5249C7.32599 9.15744 7.13522 9.07842 6.99457 8.93777C6.85392 8.79712 6.7749 8.60635 6.7749 8.40744ZM11.2749 8.40744C11.2749 8.20853 11.3539 8.01776 11.4946 7.87711C11.6352 7.73646 11.826 7.65744 12.0249 7.65744H13.5249C13.7238 7.65744 13.9146 7.73646 14.0552 7.87711C14.1959 8.01776 14.2749 8.20853 14.2749 8.40744C14.2749 8.60635 14.1959 8.79712 14.0552 8.93777C13.9146 9.07842 13.7238 9.15744 13.5249 9.15744H12.0249C11.826 9.15744 11.6352 9.07842 11.4946 8.93777C11.3539 8.79712 11.2749 8.60635 11.2749 8.40744ZM6.7749 12.1574C6.7749 11.9585 6.85392 11.7678 6.99457 11.6271C7.13522 11.4865 7.32599 11.4074 7.5249 11.4074H9.0249C9.22381 11.4074 9.41458 11.4865 9.55523 11.6271C9.69588 11.7678 9.7749 11.9585 9.7749 12.1574C9.7749 12.3564 9.69588 12.5471 9.55523 12.6878C9.41458 12.8284 9.22381 12.9074 9.0249 12.9074H7.5249C7.32599 12.9074 7.13522 12.8284 6.99457 12.6878C6.85392 12.5471 6.7749 12.3564 6.7749 12.1574ZM11.2749 12.1574C11.2749 11.9585 11.3539 11.7678 11.4946 11.6271C11.6352 11.4865 11.826 11.4074 12.0249 11.4074H13.5249C13.7238 11.4074 13.9146 11.4865 14.0552 11.6271C14.1959 11.7678 14.2749 11.9585 14.2749 12.1574C14.2749 12.3564 14.1959 12.5471 14.0552 12.6878C13.9146 12.8284 13.7238 12.9074 13.5249 12.9074H12.0249C11.826 12.9074 11.6352 12.8284 11.4946 12.6878C11.3539 12.5471 11.2749 12.3564 11.2749 12.1574Z" fill="#1B1B1B"/>
</svg>
