<svg width="32" height="29" viewBox="0 0 32 29" fill="none" xmlns="http://www.w3.org/2000/svg">
<path d="M31.16 10.122L16.9208 0.629245C16.7258 0.499147 16.4966 0.429718 16.2622 0.429718C16.0278 0.429718 15.7987 0.499147 15.6037 0.629245L1.36446 10.122C1.20191 10.2305 1.06866 10.3774 0.976548 10.5497C0.884431 10.7221 0.836299 10.9145 0.836426 11.1099V26.5357C0.836426 27.1651 1.08646 27.7687 1.53152 28.2138C1.97658 28.6589 2.58021 28.9089 3.20963 28.9089H29.3148C29.9442 28.9089 30.5479 28.6589 30.9929 28.2138C31.438 27.7687 31.688 27.1651 31.688 26.5357V11.1099C31.6882 10.9145 31.64 10.7221 31.5479 10.5497C31.4558 10.3774 31.3225 10.2305 31.16 10.122ZM16.2622 3.04249L28.4115 11.1425L18.4738 18.2295H14.0537L4.11589 11.1425L16.2622 3.04249ZM3.20963 26.5357V13.4134L12.9842 20.3847C13.1855 20.5284 13.4266 20.6057 13.674 20.6057H18.8505C19.0978 20.6057 19.339 20.5284 19.5402 20.3847L29.3148 13.4134V26.5357H3.20963Z" fill="#1B1B1B"/>
</svg>
