<svg width="16" height="17" viewBox="0 0 16 17" fill="none" xmlns="http://www.w3.org/2000/svg">
<path d="M8 0.140747C3.58176 0.140747 0 3.72251 0 8.14075C0 11.8924 2.58304 15.0406 6.06752 15.9052V10.5855H4.41792V8.14075H6.06752V7.08731C6.06752 4.36443 7.29984 3.10235 9.97312 3.10235C10.48 3.10235 11.3546 3.20187 11.7123 3.30107V5.51707C11.5235 5.49723 11.1955 5.48731 10.7882 5.48731C9.47648 5.48731 8.9696 5.98427 8.9696 7.27611V8.14075H11.5827L11.1338 10.5855H8.9696V16.0822C12.9309 15.6038 16.0003 12.231 16.0003 8.14075C16 3.72251 12.4182 0.140747 8 0.140747Z" fill="#1B1B1B"/>
</svg>
