<svg width="16" height="17" viewBox="0 0 16 17" fill="none" xmlns="http://www.w3.org/2000/svg">
<path d="M14.8156 0.140747H1.18125C0.528125 0.140747 0 0.656372 0 1.29387V14.9845C0 15.622 0.528125 16.1407 1.18125 16.1407H14.8156C15.4688 16.1407 16 15.622 16 14.9876V1.29387C16 0.656372 15.4688 0.140747 14.8156 0.140747ZM4.74687 13.7751H2.37188V6.13762H4.74687V13.7751ZM3.55938 5.097C2.79688 5.097 2.18125 4.48137 2.18125 3.722C2.18125 2.96262 2.79688 2.347 3.55938 2.347C4.31875 2.347 4.93437 2.96262 4.93437 3.722C4.93437 4.47825 4.31875 5.097 3.55938 5.097ZM13.6344 13.7751H11.2625V10.0626C11.2625 9.17825 11.2469 8.03762 10.0281 8.03762C8.79375 8.03762 8.60625 9.00325 8.60625 10.0001V13.7751H6.2375V6.13762H8.5125V7.18137H8.54375C8.85937 6.58137 9.63438 5.947 10.7875 5.947C13.1906 5.947 13.6344 7.52825 13.6344 9.5845V13.7751V13.7751Z" fill="#1B1B1B"/>
</svg>
