<svg width="35" height="31" viewBox="0 0 35 31" fill="none" xmlns="http://www.w3.org/2000/svg">
<path d="M16.3384 12.602V23.4C16.3384 23.7147 16.4634 24.0166 16.686 24.2391C16.9085 24.4616 17.2103 24.5866 17.525 24.5866C17.8397 24.5866 18.1415 24.4616 18.3641 24.2391C18.5866 24.0166 18.7116 23.7147 18.7116 23.4V12.602C20.1522 12.3079 21.4323 11.4894 22.3037 10.3052C23.1751 9.12097 23.5757 7.65536 23.428 6.19252C23.2802 4.72967 22.5945 3.37381 21.5039 2.38779C20.4132 1.40177 18.9953 0.855835 17.525 0.855835C16.0547 0.855835 14.6368 1.40177 13.5462 2.38779C12.4555 3.37381 11.7698 4.72967 11.622 6.19252C11.4743 7.65536 11.8749 9.12097 12.7463 10.3052C13.6177 11.4894 14.8978 12.3079 16.3384 12.602ZM17.525 3.22782C18.2291 3.22782 18.9173 3.4366 19.5027 3.82776C20.0881 4.21892 20.5444 4.77488 20.8138 5.42535C21.0833 6.07582 21.1538 6.79157 21.0164 7.48211C20.879 8.17264 20.54 8.80694 20.0422 9.30479C19.5443 9.80263 18.91 10.1417 18.2195 10.279C17.529 10.4164 16.8132 10.3459 16.1627 10.0765C15.5123 9.80702 14.9563 9.35075 14.5651 8.76535C14.174 8.17994 13.9652 7.49169 13.9652 6.78763C13.9652 5.84351 14.3403 4.93806 15.0078 4.27047C15.6754 3.60287 16.5809 3.22782 17.525 3.22782ZM34.1374 23.4C34.1374 28.0248 25.5776 30.5196 17.525 30.5196C9.47244 30.5196 0.912598 28.0248 0.912598 23.4C0.912598 22.252 1.47772 20.5626 4.17575 19.0378C5.99421 18.0084 8.49497 17.2178 11.4096 16.7506C11.5637 16.7263 11.7212 16.7325 11.8729 16.769C12.0247 16.8055 12.1678 16.8716 12.294 16.9634C12.4202 17.0552 12.5272 17.1709 12.6086 17.3041C12.6901 17.4372 12.7446 17.585 12.769 17.7392C12.7933 17.8934 12.7871 18.0508 12.7505 18.2026C12.714 18.3543 12.648 18.4974 12.5562 18.6236C12.4644 18.7499 12.3486 18.8568 12.2155 18.9383C12.0824 19.0198 11.9345 19.0743 11.7804 19.0986C9.17875 19.5169 6.88565 20.2303 5.3401 21.1084C4.03484 21.8426 3.2858 22.6792 3.2858 23.4C3.2858 25.3817 8.70263 28.1464 17.525 28.1464C26.3474 28.1464 31.7642 25.3817 31.7642 23.4C31.7642 22.6792 31.0152 21.8426 29.7099 21.1025C28.1584 20.2244 25.8713 19.511 23.2696 19.0927C23.1122 19.0721 22.9605 19.0201 22.8235 18.9399C22.6865 18.8596 22.567 18.7527 22.4721 18.6254C22.3771 18.4981 22.3087 18.353 22.2709 18.1988C22.2331 18.0446 22.2266 17.8844 22.2518 17.7276C22.277 17.5708 22.3334 17.4207 22.4177 17.2862C22.502 17.1516 22.6124 17.0353 22.7425 16.9442C22.8725 16.8531 23.0195 16.789 23.1748 16.7558C23.3301 16.7225 23.4904 16.7208 23.6464 16.7506C26.561 17.2178 29.0617 18.0084 30.8802 19.0378C33.5723 20.5626 34.1374 22.252 34.1374 23.4Z" fill="#1B1B1B"/>
</svg>
