<svg width="22" height="22" viewBox="0 0 22 22" fill="none" xmlns="http://www.w3.org/2000/svg">
<path d="M20.8361 0.596226C20.6475 0.407724 20.412 0.272915 20.1539 0.205683C19.8959 0.138451 19.6246 0.141227 19.368 0.213726H19.3539L1.35951 5.67373C1.06738 5.75792 0.807733 5.92889 0.614968 6.16398C0.422204 6.39908 0.305427 6.6872 0.280112 6.99016C0.254798 7.29313 0.32214 7.59663 0.473216 7.86046C0.624292 8.12428 0.851969 8.33597 1.12608 8.46748L9.08733 12.345L12.9592 20.3015C13.0796 20.5585 13.2711 20.7757 13.511 20.9274C13.7509 21.079 14.0291 21.1589 14.313 21.1575C14.3561 21.1575 14.3992 21.1556 14.4423 21.1519C14.745 21.1273 15.033 21.0108 15.2676 20.818C15.5022 20.6251 15.6722 20.3651 15.7548 20.0728L21.2111 2.07841C21.2111 2.07373 21.2111 2.06904 21.2111 2.06435C21.2845 1.80838 21.2885 1.53747 21.2226 1.27946C21.1567 1.02144 21.0233 0.785623 20.8361 0.596226ZM14.3214 19.6434L14.3167 19.6565V19.65L10.5611 11.9344L15.0611 7.43435C15.1958 7.29255 15.2698 7.10374 15.2673 6.90817C15.2648 6.7126 15.186 6.52574 15.0477 6.38744C14.9094 6.24914 14.7225 6.17034 14.5269 6.16783C14.3314 6.16533 14.1426 6.23932 14.0008 6.37404L9.50076 10.874L1.78233 7.11841H1.77576H1.78889L19.7748 1.65748L14.3214 19.6434Z" fill="#1B1B1B"/>
</svg>
