<svg width="15" height="22" viewBox="0 0 15 22" fill="none" xmlns="http://www.w3.org/2000/svg">
<path d="M12.0249 0.90744H3.0249C2.42817 0.90744 1.85587 1.14449 1.43391 1.56645C1.01196 1.98841 0.774902 2.5607 0.774902 3.15744V19.6574C0.774902 20.2542 1.01196 20.8265 1.43391 21.2484C1.85587 21.6704 2.42817 21.9074 3.0249 21.9074H12.0249C12.6216 21.9074 13.1939 21.6704 13.6159 21.2484C14.0378 20.8265 14.2749 20.2542 14.2749 19.6574V3.15744C14.2749 2.5607 14.0378 1.98841 13.6159 1.56645C13.1939 1.14449 12.6216 0.90744 12.0249 0.90744ZM12.7749 19.6574C12.7749 19.8564 12.6959 20.0471 12.5552 20.1878C12.4146 20.3284 12.2238 20.4074 12.0249 20.4074H3.0249C2.82599 20.4074 2.63522 20.3284 2.49457 20.1878C2.35392 20.0471 2.2749 19.8564 2.2749 19.6574V3.15744C2.2749 2.95853 2.35392 2.76776 2.49457 2.62711C2.63522 2.48646 2.82599 2.40744 3.0249 2.40744H12.0249C12.2238 2.40744 12.4146 2.48646 12.5552 2.62711C12.6959 2.76776 12.7749 2.95853 12.7749 3.15744V19.6574ZM8.6499 5.03244C8.6499 5.25494 8.58392 5.47245 8.4603 5.65746C8.33669 5.84246 8.16099 5.98666 7.95542 6.07181C7.74985 6.15695 7.52365 6.17923 7.30542 6.13582C7.0872 6.09242 6.88674 5.98527 6.72941 5.82794C6.57207 5.6706 6.46493 5.47015 6.42152 5.25192C6.37811 5.03369 6.40039 4.80749 6.48554 4.60192C6.57069 4.39635 6.71488 4.22065 6.89989 4.09704C7.08489 3.97342 7.3024 3.90744 7.5249 3.90744C7.82327 3.90744 8.10942 4.02597 8.3204 4.23694C8.53137 4.44792 8.6499 4.73407 8.6499 5.03244Z" fill="#1B1B1B"/>
</svg>
