<svg width="20" height="19" viewBox="0 0 20 19" fill="none" xmlns="http://www.w3.org/2000/svg">
<path d="M18.8362 4.78591L14.6465 0.597161C14.5072 0.457836 14.3418 0.347317 14.1598 0.271913C13.9778 0.19651 13.7827 0.1577 13.5857 0.1577C13.3887 0.1577 13.1936 0.19651 13.0116 0.271913C12.8296 0.347317 12.6642 0.457836 12.5249 0.597161L0.964597 12.1575C0.824703 12.2963 0.713791 12.4615 0.638309 12.6435C0.562827 12.8255 0.52428 13.0207 0.52491 13.2178V17.4075C0.52491 17.8053 0.682945 18.1868 0.96425 18.4681C1.24555 18.7494 1.62708 18.9075 2.02491 18.9075H17.7749C17.9738 18.9075 18.1646 18.8285 18.3052 18.6878C18.4459 18.5472 18.5249 18.3564 18.5249 18.1575C18.5249 17.9586 18.4459 17.7678 18.3052 17.6271C18.1646 17.4865 17.9738 17.4075 17.7749 17.4075H8.33616L18.8362 6.90747C18.9755 6.76818 19.086 6.60281 19.1614 6.4208C19.2368 6.23879 19.2756 6.0437 19.2756 5.84669C19.2756 5.64968 19.2368 5.4546 19.1614 5.27259C19.086 5.09058 18.9755 4.9252 18.8362 4.78591ZM6.2146 17.4075H2.02491V13.2178L10.2749 4.96779L14.4646 9.15747L6.2146 17.4075ZM15.5249 8.09716L11.3362 3.90747L13.5862 1.65747L17.7749 5.84716L15.5249 8.09716Z" fill="#1B1B1B"/>
</svg>
