<svg width="30" height="31" viewBox="0 0 30 31" fill="none" xmlns="http://www.w3.org/2000/svg">
<path d="M17.9387 2.68318C17.979 2.53259 18.0485 2.39141 18.1434 2.26771C18.2382 2.14401 18.3565 2.04021 18.4915 1.96224C18.6265 1.88428 18.7755 1.83368 18.9301 1.81333C19.0846 1.79299 19.2417 1.80329 19.3923 1.84366C21.592 2.4176 23.599 3.56756 25.2065 5.17509C26.8141 6.78263 27.964 8.78963 28.538 10.9894C28.5784 11.1399 28.5887 11.297 28.5683 11.4515C28.548 11.6061 28.4974 11.7551 28.4194 11.8901C28.3414 12.0251 28.2376 12.1434 28.1139 12.2383C27.9902 12.3331 27.8491 12.4027 27.6985 12.443C27.5982 12.4693 27.4951 12.4828 27.3914 12.483C27.1299 12.483 26.8758 12.3966 26.6685 12.2373C26.4611 12.078 26.3122 11.8546 26.2449 11.602C25.7768 9.80622 24.8383 8.16781 23.526 6.8556C22.2138 5.54338 20.5754 4.60486 18.7797 4.13676C18.629 4.09664 18.4876 4.0272 18.3638 3.93241C18.2399 3.83762 18.1359 3.71934 18.0578 3.58433C17.9797 3.44932 17.929 3.30024 17.9085 3.14561C17.8881 2.99099 17.8983 2.83384 17.9387 2.68318ZM17.5931 8.88317C19.6385 9.429 20.9526 10.7432 21.4985 12.7886C21.5658 13.0412 21.7147 13.2646 21.9221 13.4239C22.1294 13.5832 22.3835 13.6696 22.645 13.6696C22.7487 13.6694 22.8518 13.6559 22.9521 13.6296C23.1027 13.5893 23.2438 13.5197 23.3675 13.4249C23.4912 13.33 23.595 13.2117 23.673 13.0767C23.751 12.9417 23.8016 12.7927 23.8219 12.6381C23.8423 12.4836 23.8319 12.3265 23.7916 12.176C23.0322 9.33407 21.0476 7.34948 18.2057 6.59006C17.9016 6.50883 17.5777 6.55172 17.3052 6.7093C17.0328 6.86688 16.834 7.12624 16.7528 7.43032C16.6716 7.73441 16.7145 8.05831 16.8721 8.33077C17.0296 8.60323 17.289 8.80193 17.5931 8.88317ZM29.7468 23.026C29.4824 25.0358 28.4953 26.8807 26.97 28.216C25.4448 29.5512 23.4856 30.2857 21.4584 30.282C9.68142 30.282 0.0996228 20.7002 0.0996228 8.92321C0.0959889 6.89604 0.830401 4.93686 2.16569 3.4116C3.50098 1.88633 5.34583 0.899282 7.35568 0.634808C7.86392 0.572751 8.37861 0.676728 8.8229 0.931219C9.26719 1.18571 9.61726 1.57707 9.82085 2.04686L12.9535 9.04039V9.05819C13.1093 9.41781 13.1737 9.81043 13.1408 10.201C13.108 10.5916 12.9789 10.9679 12.7651 11.2964C12.7384 11.3365 12.7102 11.3735 12.6806 11.4106L9.59243 15.0713C10.7034 17.3288 13.0647 19.6694 15.3519 20.7833L18.9621 17.7115C18.9976 17.6817 19.0347 17.6539 19.0734 17.6284C19.4016 17.4095 19.7792 17.2759 20.1721 17.2396C20.565 17.2033 20.9607 17.2656 21.3235 17.4208L21.3427 17.4297L28.3303 20.5608C28.801 20.7637 29.1933 21.1134 29.4486 21.5578C29.7039 22.0021 29.8086 22.5172 29.7468 23.026ZM27.3914 22.7293C27.3914 22.7293 27.381 22.7293 27.3751 22.7293L20.4038 19.6071L16.7921 22.6789C16.7571 22.7086 16.7204 22.7363 16.6824 22.7619C16.3409 22.9898 15.9461 23.1251 15.5366 23.1548C15.1272 23.1844 14.717 23.1073 14.3462 22.931C11.5681 21.5887 8.79889 18.8402 7.45506 16.0918C7.27711 15.7237 7.19726 15.3159 7.22325 14.9079C7.24924 14.4999 7.38018 14.1056 7.60339 13.7631C7.62855 13.7228 7.65681 13.6847 7.68793 13.6488L10.779 9.98374L7.6642 3.01246C7.66362 3.00654 7.66362 3.00058 7.6642 2.99466C6.22582 3.18229 4.90517 3.88782 3.94957 4.97912C2.99396 6.07043 2.46894 7.47266 2.47282 8.92321C2.47832 13.9568 4.48035 18.7827 8.03965 22.342C11.5989 25.9013 16.4248 27.9033 21.4584 27.9088C22.9081 27.9138 24.3099 27.3906 25.4019 26.4371C26.4938 25.4835 27.2011 24.1649 27.3914 22.7278V22.7293Z" fill="#1B1B1B"/>
</svg>
