<svg width="29" height="29" viewBox="0 0 29 29" fill="none" xmlns="http://www.w3.org/2000/svg">
<path d="M0.0375977 28.5341L2.03939 21.2211C0.804142 19.0805 0.155071 16.6539 0.156258 14.1656C0.159818 6.38621 6.49033 0.0556946 14.2685 0.0556946C18.0431 0.0568812 21.5863 1.52708 24.2514 4.19456C26.9153 6.86203 28.3819 10.4076 28.3807 14.1786C28.3772 21.9592 22.0467 28.2897 14.2685 28.2897C11.9072 28.2885 9.58024 27.6964 7.51912 26.5715L0.0375977 28.5341ZM7.8656 24.0167C9.85435 25.1974 11.7529 25.9046 14.2638 25.9058C20.7284 25.9058 25.9945 20.6444 25.9981 14.1762C26.0004 7.69503 20.7592 2.44076 14.2732 2.43839C7.8039 2.43839 2.54133 7.69977 2.53895 14.1667C2.53777 16.8069 3.31143 18.7838 4.61076 20.8521L3.42534 25.1808L7.8656 24.0167ZM21.3774 17.5331C21.2896 17.386 21.0547 17.2982 20.7011 17.1214C20.3486 16.9446 18.615 16.0914 18.2911 15.9739C17.9683 15.8565 17.7334 15.7971 17.4972 16.1507C17.2623 16.5032 16.5859 17.2982 16.3807 17.5331C16.1754 17.7681 15.9689 17.7977 15.6165 17.6209C15.2641 17.4441 14.1273 17.0727 12.7805 15.8707C11.7327 14.9357 11.0243 13.7811 10.8191 13.4275C10.6138 13.0751 10.7977 12.884 10.9733 12.7084C11.1323 12.5506 11.3257 12.2967 11.5025 12.0902C11.6817 11.8861 11.7399 11.739 11.8585 11.5028C11.976 11.2679 11.9178 11.0614 11.8289 10.8846C11.7399 10.709 11.035 8.973 10.7419 8.26697C10.4548 7.57993 10.164 7.67248 9.94809 7.6618L9.27173 7.64994C9.03678 7.64994 8.65469 7.73774 8.33194 8.09135C8.00918 8.44496 7.09787 9.29694 7.09787 11.0329C7.09787 12.7689 8.3616 14.4456 8.53722 14.6805C8.71402 14.9155 11.0231 18.4777 14.5604 20.0048C15.4017 20.3679 16.0591 20.5851 16.5705 20.7476C17.4154 21.0158 18.1843 20.9778 18.7918 20.8876C19.4694 20.7868 20.8779 20.0345 21.1721 19.211C21.4664 18.3863 21.4664 17.6803 21.3774 17.5331Z" fill="#1B1B1B"/>
</svg>
