<svg width="17" height="17" viewBox="0 0 17 17" fill="none" xmlns="http://www.w3.org/2000/svg">
<path d="M7.23692 13.1957C4.47628 13.1478 3.53334 13.1046 2.95378 12.992C2.56168 12.9172 2.22094 12.7511 1.9711 12.5102C1.77802 12.3278 1.62441 12.0496 1.50527 11.6636C1.40309 11.342 1.36328 11.0745 1.30652 10.421C1.21967 8.94602 1.19893 7.74009 1.30652 6.39269C1.39525 5.64862 1.4383 4.76529 2.0278 4.25002C2.30616 4.00882 2.62993 3.85362 2.99358 3.78949C3.56159 3.68782 5.6098 3.60742 8.11499 3.60742C10.6145 3.60742 12.6681 3.68782 13.2367 3.78949C13.6909 3.86989 14.1169 4.11082 14.367 4.42149C14.9049 5.21936 14.9143 6.21142 14.9689 6.98742C14.9914 7.35716 14.9914 9.45676 14.9689 9.82649C14.8839 11.0529 14.8156 11.4868 14.6225 11.9368C14.503 12.2208 14.4011 12.3707 14.2247 12.5368C13.948 12.7924 13.5952 12.9624 13.2135 13.0242C10.8245 13.1936 9.5393 13.2304 7.23692 13.1957Z" fill="white"/>
<path d="M8.35749 13.7408C7.96863 13.7408 7.81043 13.7383 7.49517 13.7332L7.221 13.7289C4.33533 13.6786 3.42814 13.6342 2.80749 13.5132C2.31375 13.4187 1.8834 13.2046 1.56273 12.8942C1.30829 12.6532 1.11454 12.308 0.970057 11.8382C0.849292 11.457 0.806649 11.1272 0.751166 10.4854L0.75022 10.4727C0.65108 8.78322 0.651283 7.58336 0.750896 6.33149C0.751301 6.32536 0.751977 6.31956 0.752653 6.31369C0.760965 6.24396 0.768872 6.17269 0.776846 6.10062C0.858889 5.36196 0.961069 4.44269 1.63754 3.84929C1.98923 3.54349 2.39944 3.34729 2.85642 3.26642C3.59189 3.13429 6.09782 3.07416 8.11494 3.07416C10.1316 3.07416 12.6378 3.13436 13.375 3.26662C13.9493 3.36869 14.4883 3.67409 14.8168 4.08356C14.8252 4.09402 14.8331 4.10482 14.8406 4.11596C15.3998 4.94829 15.4609 5.92189 15.5099 6.70422C15.5149 6.78396 15.5199 6.86202 15.5252 6.93802C15.5494 7.33569 15.5497 9.47496 15.5255 9.87209C15.4411 11.0926 15.3703 11.6219 15.14 12.1604C14.9977 12.5001 14.8591 12.7073 14.6285 12.9252C14.2738 13.254 13.8292 13.4698 13.3432 13.5487C13.3279 13.5512 13.3126 13.553 13.2971 13.554C11.5944 13.6752 10.303 13.7408 8.35749 13.7408ZM8.11494 4.01929C5.42621 4.01929 3.52552 4.10796 3.03773 4.19556C2.75984 4.24476 2.51994 4.35976 2.30449 4.54709C1.90496 4.89756 1.83136 5.55989 1.7602 6.20049L1.75844 6.21649C1.75115 6.28196 1.74391 6.34676 1.73635 6.41056C1.64092 7.61596 1.64119 8.77482 1.73709 10.413C1.79257 11.053 1.82967 11.2902 1.91766 11.568C2.01194 11.8742 2.13128 12.1021 2.26266 12.2265C2.44654 12.4044 2.70281 12.5292 3.00347 12.5867C3.54174 12.6916 4.49138 12.7358 7.23701 12.7838C7.76272 12.7918 8.22469 12.7956 8.64937 12.7956C10.3186 12.7956 11.4899 12.7342 13.1953 12.6134L13.2026 12.6125C13.4807 12.5626 13.7345 12.4372 13.9367 12.2498C14.052 12.1408 14.1206 12.051 14.2233 11.8058C14.3915 11.4124 14.4564 11.0026 14.5385 9.81342C14.5602 9.45802 14.56 7.35269 14.5383 6.99702C14.5331 6.92296 14.5281 6.84269 14.5229 6.76069C14.479 6.06162 14.4293 5.26922 14.0224 4.64742L14.0201 4.64396L14.0174 4.64082C13.8339 4.42396 13.5182 4.25342 13.1934 4.19576C12.7166 4.11022 10.7747 4.01929 8.11494 4.01929Z" fill="#212121"/>
<path d="M10.6986 8.75727C10.95 8.63327 10.9499 8.27953 10.6989 8.15473C9.25352 7.4362 8.02127 6.75307 6.59992 6.0568C6.3638 5.94113 6.0824 6.1052 6.0824 6.359V10.5058C6.0824 10.7622 6.36785 10.9264 6.60425 10.8055C7.9547 10.1145 9.7653 9.21773 10.6986 8.75727Z" fill="#212121"/>
</svg>
