<svg width="17" height="17" viewBox="0 0 17 17" fill="none" xmlns="http://www.w3.org/2000/svg">
<path d="M11.1505 13.9073H5.0683C3.66872 13.9073 2.53406 12.788 2.53406 11.4073V5.40735C2.53406 4.02668 3.66872 2.90735 5.0683 2.90735H11.1505C12.5501 2.90735 13.6847 4.02668 13.6847 5.40735V11.4073C13.6847 12.788 12.5501 13.9073 11.1505 13.9073Z" fill="white"/>
<path d="M11.1505 14.4074H5.06832C3.39146 14.4074 2.02722 13.0616 2.02722 11.4074V5.40741C2.02722 3.75321 3.39146 2.40741 5.06832 2.40741H11.1505C12.8274 2.40741 14.1916 3.75321 14.1916 5.40741V11.4074C14.1916 13.0616 12.8274 14.4074 11.1505 14.4074ZM5.06832 3.40741C3.95041 3.40741 3.04092 4.30461 3.04092 5.40741V11.4074C3.04092 12.5102 3.95041 13.4074 5.06832 13.4074H11.1505C12.2684 13.4074 13.1779 12.5102 13.1779 11.4074V5.40741C13.1779 4.30461 12.2684 3.40741 11.1505 3.40741H5.06832Z" fill="#212121"/>
<path d="M8.1094 11.3074C6.48843 11.3074 5.16968 10.0065 5.16968 8.40745C5.16968 6.80838 6.48843 5.50745 8.1094 5.50745C9.73038 5.50745 11.0491 6.80838 11.0491 8.40745C11.0491 10.0065 9.73038 11.3074 8.1094 11.3074ZM8.1094 6.46185C7.02191 6.46185 6.13715 7.33465 6.13715 8.40745C6.13715 9.48025 7.02191 10.353 8.1094 10.353C9.1969 10.353 10.0817 9.48025 10.0817 8.40745C10.0817 7.33465 9.1969 6.46185 8.1094 6.46185Z" fill="#212121"/>
<path d="M11.4546 5.80741C11.8465 5.80741 12.1642 5.49401 12.1642 5.10741C12.1642 4.72081 11.8465 4.40741 11.4546 4.40741C11.0627 4.40741 10.745 4.72081 10.745 5.10741C10.745 5.49401 11.0627 5.80741 11.4546 5.80741Z" fill="#212121"/>
</svg>
