<svg width="145" height="48" viewBox="0 0 145 48" fill="none" xmlns="http://www.w3.org/2000/svg">
<path d="M137.737 38.6965V46.3672C137.737 46.6102 137.667 46.7318 137.526 46.7318H136.646C136.424 46.7318 136.263 46.6455 136.161 46.471L134.475 43.558L134.17 46.5024C134.144 46.7357 134.015 46.8513 133.778 46.8513H132.748C132.666 46.8513 132.596 46.8376 132.543 46.8102C132.433 46.7553 132.378 46.6475 132.378 46.4828V38.8219C132.378 38.6475 132.433 38.5279 132.541 38.4612C132.607 38.4201 132.694 38.4005 132.801 38.4005H133.862C134.036 38.4005 134.181 38.473 134.299 38.6181L136.142 40.9136L136.261 38.6867C136.275 38.4475 136.4 38.3279 136.636 38.3279H137.369C137.616 38.3279 137.737 38.4495 137.737 38.6965Z" fill="#CC3333"/>
<path d="M131.605 40.0256C131.605 40.0118 131.603 40.0001 131.603 39.9883C131.601 39.9628 131.599 39.9373 131.597 39.9138C131.593 39.8864 131.59 39.8609 131.586 39.8334C131.582 39.8158 131.578 39.7942 131.572 39.7746C131.572 39.7727 131.572 39.7688 131.57 39.7668C131.568 39.7492 131.562 39.7315 131.558 39.7139C131.552 39.6923 131.546 39.6727 131.539 39.6531C131.537 39.6472 131.535 39.6394 131.533 39.6335C131.525 39.61 131.517 39.5884 131.507 39.5669C131.497 39.5433 131.488 39.5198 131.476 39.4982C131.466 39.4786 131.456 39.459 131.444 39.4414C131.442 39.4355 131.441 39.4296 131.437 39.4237C131.433 39.4179 131.431 39.412 131.427 39.4081C131.419 39.3924 131.409 39.3787 131.399 39.3649C131.395 39.361 131.393 39.3551 131.39 39.3512C131.376 39.3316 131.364 39.312 131.348 39.2944C131.346 39.2904 131.343 39.2865 131.341 39.2846C131.323 39.261 131.303 39.2395 131.286 39.2199C131.27 39.2022 131.252 39.1846 131.235 39.1669C131.219 39.1493 131.201 39.1336 131.182 39.1179C131.17 39.1062 131.156 39.0944 131.143 39.0846C131.137 39.0787 131.129 39.0729 131.121 39.065C131.105 39.0533 131.09 39.0415 131.072 39.0297C131.052 39.014 131.031 38.9984 131.009 38.9846C130.996 38.9768 130.984 38.967 130.968 38.9591C130.954 38.9493 130.941 38.9415 130.927 38.9337C130.915 38.9258 130.905 38.9199 130.896 38.9141L130.811 38.867C130.355 38.6102 129.849 38.4808 129.298 38.4808H127.257C127.228 38.4808 127.198 38.4828 127.169 38.4828C127.151 38.4828 127.136 38.4848 127.118 38.4848C127.102 38.4867 127.085 38.4867 127.067 38.4887C127.059 38.4887 127.051 38.4887 127.044 38.4887H127.038C127.02 38.4906 127.002 38.4926 126.987 38.4946C126.969 38.4965 126.953 38.4985 126.938 38.5004C126.914 38.5044 126.889 38.5063 126.865 38.5122C126.834 38.5161 126.802 38.522 126.771 38.5279C126.744 38.5338 126.716 38.5396 126.691 38.5475C126.681 38.5495 126.671 38.5514 126.663 38.5534C126.636 38.5612 126.612 38.569 126.585 38.5769C126.526 38.5945 126.465 38.6161 126.406 38.6396C126.291 38.6847 126.179 38.7416 126.073 38.8082C126.056 38.818 126.04 38.8278 126.022 38.8396C125.958 38.8807 125.895 38.9278 125.832 38.9768C125.828 38.9807 125.824 38.9807 125.822 38.9846L125.779 39.0101C125.36 39.3473 125.15 39.7844 125.15 40.3216V44.9792C125.15 45.5203 125.309 45.9574 125.622 46.2887C125.648 46.3142 125.673 46.3397 125.701 46.3632C125.716 46.3789 125.732 46.3926 125.748 46.4044C125.763 46.4181 125.779 46.4318 125.797 46.4456C125.801 46.4456 125.803 46.4475 125.805 46.4495C125.814 46.4573 125.822 46.4632 125.832 46.471C125.836 46.473 125.84 46.4769 125.846 46.4808C125.848 46.4828 125.852 46.4848 125.856 46.4867C125.865 46.4946 125.875 46.5004 125.887 46.5083C125.924 46.5338 125.961 46.5573 126.001 46.5769C126.02 46.5867 126.04 46.5985 126.061 46.6083C126.087 46.622 126.114 46.6337 126.142 46.6455C126.167 46.6553 126.193 46.6651 126.22 46.6749C126.224 46.6769 126.228 46.6788 126.232 46.6788C126.232 46.6788 126.232 46.6795 126.232 46.6808C126.254 46.6867 126.275 46.6945 126.297 46.7004C126.299 46.7023 126.303 46.7024 126.306 46.7043C126.308 46.7043 126.312 46.7063 126.316 46.7063C126.34 46.7141 126.365 46.72 126.389 46.7259C126.393 46.7278 126.399 46.7278 126.403 46.7298C126.418 46.7337 126.436 46.7376 126.454 46.7396C126.455 46.7416 126.457 46.7416 126.459 46.7416C126.479 46.7455 126.499 46.7494 126.518 46.7533C126.53 46.7553 126.542 46.7572 126.553 46.7592C126.573 46.7612 126.595 46.7651 126.614 46.767C126.644 46.771 126.675 46.7749 126.704 46.7768H126.716C126.744 46.7808 126.769 46.7808 126.799 46.7827H126.808C126.842 46.7827 126.873 46.7827 126.906 46.7827H129.992C130.019 46.7827 130.047 46.7827 130.072 46.7827C130.088 46.7827 130.106 46.7827 130.121 46.7808C130.145 46.7788 130.17 46.7768 130.194 46.7749C130.219 46.771 130.247 46.769 130.272 46.7651C130.276 46.7631 130.28 46.7631 130.286 46.7612C130.339 46.7533 130.392 46.7416 130.445 46.7278C130.445 46.7259 130.451 46.7259 130.453 46.7239C130.478 46.718 130.502 46.7102 130.525 46.7024C130.539 46.6984 130.549 46.6945 130.56 46.6886H130.564C130.586 46.6788 130.607 46.671 130.629 46.6612C130.645 46.6553 130.66 46.6475 130.676 46.6416C130.69 46.6337 130.705 46.6259 130.721 46.6181H130.723C130.723 46.6181 130.727 46.6161 130.729 46.6141C130.731 46.6141 130.733 46.6122 130.737 46.6102C130.745 46.6063 130.752 46.6024 130.758 46.5965C130.766 46.5926 130.774 46.5887 130.782 46.5828C130.798 46.573 130.813 46.5651 130.829 46.5553C130.835 46.5494 130.845 46.5436 130.852 46.5377C130.86 46.5318 130.868 46.5259 130.878 46.52C130.894 46.5083 130.909 46.4965 130.925 46.4848C130.948 46.4671 130.97 46.4475 130.992 46.4279C131.003 46.4181 131.015 46.4083 131.025 46.3965C131.037 46.3887 131.046 46.3769 131.058 46.3652C131.072 46.3515 131.086 46.3377 131.099 46.324C131.101 46.3201 131.103 46.3181 131.107 46.3142C131.123 46.2985 131.137 46.2789 131.15 46.2613C131.154 46.2574 131.158 46.2534 131.16 46.2495C131.166 46.2436 131.172 46.2358 131.178 46.2299C131.192 46.2103 131.207 46.1907 131.221 46.1711C131.478 45.8143 131.605 45.3595 131.605 44.8067V40.104C131.605 40.0765 131.605 40.0491 131.603 40.0236L131.605 40.0256ZM129.339 44.3715C129.339 44.5715 129.237 44.6774 129.031 44.695L127.928 44.795H127.883C127.702 44.795 127.606 44.6989 127.596 44.5068L127.455 41.5154V41.484C127.455 41.2802 127.559 41.1782 127.767 41.1782H129.022C129.233 41.1782 129.339 41.2821 129.339 41.4958V44.3715Z" fill="#CC3333"/>
<path d="M124.379 38.7494V46.6377C124.379 46.7612 124.327 46.8298 124.221 46.8474C124.205 46.8513 124.185 46.8513 124.166 46.8513H121.908C121.766 46.8513 121.694 46.7827 121.694 46.6435V46.6279L121.843 42.6112L121.986 38.7396C121.996 38.4652 122.139 38.3279 122.411 38.3279H123.958C124.119 38.3279 124.234 38.373 124.303 38.4652C124.354 38.5318 124.379 38.6279 124.379 38.7494Z" fill="#CC3333"/>
<path d="M121.267 38.7376V41.1566C121.267 41.2978 121.149 41.3703 120.908 41.3703H120.898L120.435 41.3644L119.945 41.3585H119.941C119.808 41.3585 119.74 41.4272 119.732 41.5624L119.483 46.4906C119.473 46.7298 119.347 46.8494 119.108 46.8494H117.771C117.524 46.8494 117.401 46.7259 117.401 46.4808V41.5624C117.401 41.4213 117.33 41.3487 117.187 41.3487H116.429C116.182 41.3487 116.058 41.2252 116.058 40.9782V38.7376C116.058 38.4906 116.182 38.3671 116.429 38.3671H120.898C121.145 38.3671 121.267 38.4906 121.267 38.7376Z" fill="#CC3333"/>
<path d="M115.517 38.6533V40.9783C115.517 41.1919 115.411 41.2958 115.199 41.2958H113.478C113.231 41.2958 113.108 41.4213 113.108 41.6663V43.7325C113.108 43.9775 113.231 44.103 113.478 44.103H114.986C115.197 44.103 115.303 44.2069 115.303 44.4206V46.5534C115.303 46.7651 115.197 46.8709 114.986 46.8709H113.145C112.61 46.8709 112.151 46.6788 111.771 46.2985L111.708 46.2358C111.643 46.1711 111.585 46.1045 111.53 46.0339C111.267 45.6967 111.136 45.3047 111.136 44.8616V40.2412C111.136 39.7335 111.324 39.2708 111.698 38.8513L111.74 38.8043C111.765 38.7768 111.79 38.7494 111.816 38.7239C112.134 38.4063 112.537 38.2476 113.025 38.2476H113.114L114.653 38.3123L115.209 38.3358C115.415 38.3436 115.517 38.4475 115.517 38.6533Z" fill="#CC3333"/>
<path d="M110.365 38.7494V44.5813C110.365 45.1047 110.205 45.583 109.881 46.0162C109.877 46.0202 109.875 46.0241 109.871 46.03L109.726 46.2221C109.407 46.6416 108.974 46.8513 108.425 46.8513H106.696C106.159 46.8513 105.7 46.6631 105.322 46.2868C105.188 46.1535 105.077 46.0084 104.99 45.8535C104.833 45.5752 104.753 45.2615 104.751 44.9165L104.72 38.7494V38.7435C104.722 38.4652 104.861 38.3279 105.141 38.3279H106.239C106.519 38.3279 106.66 38.4671 106.66 38.7494V44.2853C106.66 44.5284 106.772 44.6499 106.998 44.6499H107.029L107.701 44.6186C107.94 44.6087 108.064 44.4872 108.076 44.2559L108.284 38.7239C108.293 38.4593 108.438 38.3279 108.717 38.3279H109.944C110.062 38.3279 110.156 38.3515 110.224 38.4024C110.318 38.471 110.365 38.5867 110.365 38.7494Z" fill="#CC3333"/>
<path d="M103.428 39.4708L103.271 39.312L102.855 38.8984C102.473 38.5161 102.014 38.326 101.477 38.326H98.4957C98.478 38.326 98.4604 38.326 98.4447 38.328C98.4153 38.3299 98.3898 38.3319 98.3644 38.3378C98.3546 38.3397 98.3447 38.3417 98.3369 38.3436C98.3271 38.3475 98.3193 38.3495 98.3134 38.3515C98.3075 38.3534 98.3036 38.3554 98.2977 38.3573C98.2957 38.3573 98.2918 38.3593 98.2899 38.3593C98.2879 38.3613 98.2859 38.3613 98.284 38.3613C98.2742 38.3672 98.2644 38.3691 98.2565 38.375C98.2526 38.377 98.2467 38.3789 98.2428 38.3828C98.2389 38.3848 98.233 38.3887 98.2291 38.3907C98.2271 38.3907 98.2252 38.3907 98.2232 38.3946C98.2154 38.4005 98.2075 38.4064 98.1997 38.4122C98.1899 38.4201 98.182 38.4279 98.1742 38.4358C98.1703 38.4397 98.1664 38.4456 98.1624 38.4495C98.1566 38.4554 98.1507 38.4612 98.1467 38.4691C98.1448 38.471 98.1428 38.473 98.1428 38.4769C98.135 38.4867 98.1291 38.4965 98.1232 38.5083C98.1173 38.5181 98.1134 38.5279 98.1095 38.5377C98.1056 38.5455 98.1036 38.5514 98.1017 38.5573C98.084 38.6102 98.0742 38.6749 98.0742 38.7474V46.2358C98.0742 46.2515 98.0742 46.2672 98.0762 46.2848C98.0762 46.3005 98.0781 46.3162 98.0801 46.3319C98.0821 46.3436 98.084 46.3554 98.0879 46.3672C98.0899 46.377 98.0899 46.3848 98.0938 46.3946C98.0958 46.4044 98.0977 46.4122 98.1017 46.4201V46.424C98.1075 46.4397 98.1154 46.4554 98.1232 46.471C98.1271 46.4789 98.1311 46.4867 98.135 46.4946C98.1369 46.4965 98.1389 46.4985 98.1409 46.5005C98.1448 46.5103 98.1526 46.5181 98.1585 46.5259C98.1605 46.5299 98.1644 46.5338 98.1664 46.5377C98.1742 46.5475 98.184 46.5573 98.1938 46.5651C98.2016 46.573 98.2075 46.5769 98.2154 46.5828C98.231 46.5945 98.2487 46.6063 98.2683 46.6161C98.28 46.622 98.2918 46.6279 98.3055 46.6338C98.3134 46.6377 98.3212 46.6396 98.3291 46.6436C98.3761 46.6573 98.4271 46.6671 98.4839 46.673L101.228 46.8768C101.271 46.8788 101.317 46.8808 101.362 46.8808C101.828 46.8808 102.242 46.6984 102.606 46.3338L103.428 45.5125C103.81 45.1302 104 44.6715 104 44.1324V40.843C104 40.3098 103.81 39.8511 103.428 39.4708ZM101.56 44.2226C101.56 44.4637 101.456 44.6166 101.248 44.6872L100.493 44.942C100.472 44.9499 100.448 44.9518 100.421 44.9518C100.285 44.9518 100.217 44.8812 100.217 44.7381V44.7283L100.321 40.6058C100.325 40.4608 100.389 40.3882 100.515 40.3882C100.534 40.3882 100.556 40.3902 100.576 40.3941L101.232 40.5078C101.452 40.5451 101.56 40.694 101.56 40.9508V44.2226Z" fill="#CC3333"/>
<path d="M97.2922 39.9197C97.2902 39.8923 97.2843 39.8628 97.2804 39.8354C97.2745 39.808 97.2686 39.7805 97.2628 39.7531C97.2608 39.7433 97.2569 39.7335 97.2549 39.7217C97.249 39.6982 97.2412 39.6747 97.2334 39.6511C97.2255 39.6276 97.2177 39.6021 97.2079 39.5806C97.1961 39.5531 97.1844 39.5276 97.1726 39.5021C97.1628 39.4825 97.153 39.4629 97.1412 39.4433C97.1373 39.4375 97.1353 39.4316 97.1314 39.4257C97.1275 39.4198 97.1255 39.4139 97.1216 39.41C97.1138 39.3943 97.104 39.3806 97.0942 39.3669C97.0922 39.363 97.0903 39.3571 97.0863 39.3532C97.0726 39.3336 97.0589 39.314 97.0432 39.2963C97.0412 39.2924 97.0393 39.2904 97.0354 39.2865C97.0275 39.2767 97.0217 39.2689 97.0138 39.2591C97.004 39.2473 96.9922 39.2336 96.9805 39.2218C96.9766 39.2159 96.9707 39.2101 96.9668 39.2061C96.9609 39.2003 96.957 39.1944 96.9511 39.1905C96.9413 39.1787 96.9315 39.1689 96.9197 39.1571C96.9158 39.1532 96.9099 39.1473 96.904 39.1434C96.9001 39.1375 96.8942 39.1336 96.8883 39.1297C96.8766 39.1199 96.8668 39.1101 96.855 39.1003V39.0964C96.8315 39.0807 96.8119 39.063 96.7884 39.0474C96.7864 39.0454 96.7825 39.0415 96.7786 39.0395C96.7668 39.0297 96.755 39.0219 96.7433 39.0121C96.7296 39.0042 96.7178 38.9944 96.7041 38.9866C96.6904 38.9787 96.6766 38.9689 96.6629 38.9611C96.6492 38.9513 96.6355 38.9435 96.6217 38.9356C96.6119 38.9278 96.6002 38.9219 96.5904 38.916L96.508 38.869C96.0493 38.6122 95.5455 38.4828 94.9927 38.4828H92.9521C92.4149 38.4828 91.9366 38.6514 91.5171 38.9885L91.476 39.014C91.4465 39.0376 91.4191 39.0611 91.3917 39.0846C91.374 39.1003 91.3583 39.116 91.3427 39.1316C91.3309 39.1434 91.3172 39.1552 91.3054 39.1669C91.278 39.1963 91.2525 39.2238 91.227 39.2532C91.2133 39.2689 91.1995 39.2845 91.1878 39.3002C91.1858 39.3002 91.1858 39.3042 91.1839 39.3061C91.1701 39.3238 91.1564 39.3414 91.1427 39.3591C91.129 39.3767 91.1172 39.3963 91.1055 39.4159C91.0976 39.4257 91.0898 39.4375 91.0839 39.4492C91.0702 39.4708 91.0564 39.4923 91.0447 39.5139C91.031 39.5394 91.0153 39.5668 91.0035 39.5943C90.9898 39.6198 90.978 39.6472 90.9663 39.6747C90.9663 39.6766 90.9643 39.6786 90.9643 39.6805C90.9643 39.6825 90.9643 39.6805 90.9624 39.6845C90.9545 39.7041 90.9486 39.7237 90.9408 39.7452C90.9388 39.7491 90.9369 39.7531 90.9369 39.7589C90.9369 39.7609 90.9369 39.7629 90.9329 39.7648C90.9231 39.7942 90.9153 39.8217 90.9075 39.8491C90.9075 39.8491 90.9055 39.855 90.9055 39.857C90.8977 39.8864 90.8898 39.9119 90.8839 39.9413C90.88 39.9667 90.8741 39.9903 90.8702 40.0157C90.8663 40.0373 90.8643 40.0569 90.8624 40.0785C90.8585 40.1 90.8565 40.1216 90.8545 40.1412C90.8506 40.1687 90.8487 40.1981 90.8487 40.2255C90.8467 40.2588 90.8447 40.2922 90.8447 40.3255V44.9832C90.8447 45.5242 91.0035 45.9614 91.3191 46.2926C91.3407 46.3142 91.3622 46.3377 91.3858 46.3573C91.3956 46.3671 91.4073 46.3769 91.4171 46.3867C91.4387 46.4063 91.4603 46.424 91.4838 46.4416C91.4838 46.4416 91.4857 46.4416 91.4857 46.4436C91.5034 46.4573 91.523 46.473 91.5426 46.4848C91.57 46.5044 91.5955 46.522 91.623 46.5377C91.6426 46.5514 91.6622 46.5632 91.6837 46.5749C91.7112 46.5887 91.7386 46.6043 91.768 46.6181C91.8014 46.6337 91.8347 46.6475 91.868 46.6612C91.8974 46.6729 91.9288 46.6827 91.9582 46.6945C91.9621 46.6965 91.968 46.6965 91.9719 46.6984C91.9797 46.7004 91.9876 46.7023 91.9954 46.7063C92.0248 46.7141 92.0523 46.7219 92.0836 46.7278C92.0856 46.7298 92.0895 46.7298 92.0934 46.7318C92.0954 46.7318 92.0974 46.7318 92.1013 46.7337C92.1032 46.7337 92.1072 46.7357 92.1091 46.7357C92.1228 46.7376 92.1366 46.7416 92.1503 46.7435C92.1679 46.7474 92.1856 46.7514 92.2032 46.7553C92.2071 46.7553 92.213 46.7572 92.2189 46.7572C92.2424 46.7612 92.264 46.7651 92.2856 46.767C92.3032 46.769 92.3189 46.7709 92.3346 46.7729C92.3385 46.7729 92.3404 46.7729 92.3444 46.7729C92.3836 46.7768 92.4228 46.7808 92.4639 46.7827H92.4737C92.4914 46.7847 92.509 46.7847 92.5267 46.7847C92.5522 46.7847 92.5776 46.7847 92.6031 46.7847H95.6906C95.7161 46.7847 95.7435 46.7847 95.771 46.7847C95.7847 46.7847 95.7965 46.7847 95.8102 46.7827C95.8337 46.7827 95.8572 46.7808 95.8807 46.7768C95.9082 46.7749 95.9337 46.771 95.9592 46.767C95.969 46.767 95.9768 46.7651 95.9846 46.7631C96.0121 46.7592 96.0376 46.7533 96.0631 46.7474C96.0925 46.7416 96.1199 46.7357 96.1473 46.7278H96.1493C96.1748 46.72 96.1983 46.7121 96.2238 46.7043C96.2375 46.6984 96.2512 46.6945 96.265 46.6886C96.3042 46.6729 96.3414 46.6573 96.3787 46.6396C96.3983 46.6318 96.4159 46.622 96.4336 46.6122C96.461 46.5965 96.4845 46.5808 96.512 46.5651C96.5375 46.5494 96.5629 46.5318 96.5865 46.5122C96.6041 46.5004 96.6198 46.4887 96.6355 46.475C96.6551 46.4612 96.6766 46.4436 96.6962 46.424C96.6962 46.422 96.6982 46.422 96.7002 46.4201C96.71 46.4142 96.7178 46.4044 96.7256 46.3965H96.7276C96.7413 46.3809 96.757 46.3671 96.7688 46.3515C96.7825 46.3397 96.7943 46.326 96.808 46.3103C96.8256 46.2926 96.8413 46.273 96.857 46.2554C96.8766 46.228 96.8982 46.2005 96.9178 46.1731C97.1746 45.8163 97.3039 45.3615 97.3039 44.8087V40.1059C97.3039 40.0412 97.3 39.9785 97.2922 39.9177V39.9197ZM95.0339 44.3715C95.0339 44.5715 94.932 44.6773 94.7261 44.695L93.6244 44.795H93.5774C93.397 44.795 93.301 44.6989 93.2912 44.5068L93.15 41.5154V41.484C93.15 41.2801 93.2559 41.1782 93.4637 41.1782H94.7163C94.928 41.1782 95.0339 41.2821 95.0339 41.4958V44.3715Z" fill="#CC3333"/>
<path d="M90.9584 47.6923L89.3941 44.7224L88.9295 43.8423L89.3941 43.3659L89.5705 43.1855C89.9488 42.7974 90.137 42.3367 90.137 41.8016V40.2353C90.137 40.1745 90.1351 40.1138 90.1292 40.0549C90.1292 40.0373 90.1272 40.0216 90.1253 40.004C90.1253 39.9981 90.1233 39.9903 90.1233 39.9844C90.1213 39.9785 90.1213 39.9706 90.1194 39.9648C90.1174 39.9471 90.1155 39.9295 90.1135 39.9118C90.1115 39.8961 90.1076 39.8785 90.1057 39.8628C90.1037 39.853 90.1017 39.8432 90.0998 39.8334C90.0959 39.8177 90.0919 39.8001 90.088 39.7825C90.0841 39.7668 90.0802 39.7491 90.0763 39.7334C90.0743 39.7256 90.0704 39.7158 90.0684 39.708C90.0625 39.6844 90.0547 39.6629 90.0469 39.6394C90.0429 39.6256 90.039 39.6139 90.0351 39.6002C90.0312 39.5884 90.0253 39.5747 90.0214 39.5629C90.0116 39.5374 90.0018 39.5119 89.99 39.4864C89.9782 39.461 89.9665 39.4374 89.9547 39.412C89.943 39.3884 89.9312 39.3649 89.9175 39.3414C89.8646 39.2453 89.8018 39.1552 89.7273 39.0709C89.7195 39.063 89.7116 39.0532 89.7038 39.0454C89.696 39.0356 89.6881 39.0258 89.6783 39.0179C89.6764 39.014 89.6744 39.0121 89.6705 39.0081C89.643 38.9787 89.6117 38.9474 89.5803 38.918C89.2157 38.5867 88.7648 38.42 88.2277 38.42H85.0069C84.9893 38.42 84.9716 38.42 84.9559 38.422C84.9383 38.422 84.9226 38.424 84.9069 38.4259C84.8932 38.4279 84.8775 38.4318 84.8638 38.4338C84.8579 38.4357 84.8521 38.4377 84.8462 38.4397C84.8285 38.4436 84.8128 38.4475 84.7972 38.4553C84.7874 38.4592 84.7776 38.4632 84.7697 38.4671C84.7619 38.471 84.754 38.4749 84.7462 38.4808C84.7403 38.4847 84.7344 38.4887 84.7266 38.4945C84.7129 38.5024 84.7011 38.5141 84.6894 38.5239C84.6815 38.5318 84.6756 38.5396 84.6697 38.5475C84.6658 38.5533 84.6619 38.5592 84.658 38.5651C84.6541 38.569 84.6501 38.5749 84.6462 38.5828C84.6423 38.5886 84.6384 38.5945 84.6345 38.5984C84.6325 38.6043 84.6286 38.6122 84.6247 38.618C84.6247 38.62 84.6247 38.622 84.6227 38.6239C84.6188 38.6337 84.6149 38.6455 84.6109 38.6572C84.609 38.6612 84.607 38.667 84.6051 38.6729C84.5992 38.6945 84.5953 38.718 84.5913 38.7415C84.5894 38.7572 84.5874 38.7729 84.5874 38.7886C84.5855 38.8062 84.5854 38.8239 84.5854 38.8396V46.4083C84.5854 46.6886 84.7246 46.8278 85.0069 46.8278H85.9322C86.2007 46.8278 86.3438 46.6925 86.3634 46.4181L86.5575 44.0246L89.1177 47.906C89.1588 47.9687 89.2157 48 89.2882 48H90.7663C90.782 48 90.7977 47.9981 90.8094 47.9961H90.8192C90.8192 47.9961 90.8251 47.9942 90.8271 47.9942H90.829C90.829 47.9942 90.8329 47.9922 90.8349 47.9922C90.8427 47.9922 90.8506 47.9902 90.8565 47.9863C90.8604 47.9863 90.8643 47.9863 90.8663 47.9824H90.8682C90.8682 47.9824 90.882 47.9765 90.8898 47.9726C90.8957 47.9707 90.8996 47.9667 90.9035 47.9648C90.9094 47.9608 90.9153 47.9569 90.9212 47.953C90.9251 47.9491 90.929 47.9452 90.931 47.9412C90.9368 47.9373 90.9408 47.9314 90.9427 47.9256C90.9466 47.9216 90.9506 47.9177 90.9525 47.9138C90.9584 47.904 90.9623 47.8922 90.9662 47.8785C90.9702 47.8687 90.9741 47.8569 90.976 47.8432V47.8393C90.976 47.8393 90.978 47.8315 90.978 47.8256C90.98 47.8138 90.98 47.8001 90.98 47.7864C90.98 47.7511 90.9721 47.7217 90.9584 47.6923ZM87.5867 42.0172L87.0143 42.6308C86.9692 42.6798 86.9163 42.7033 86.8535 42.7033C86.7183 42.7033 86.6516 42.6347 86.6516 42.4955V42.4798L86.7026 41.1057C86.7104 40.9567 86.7771 40.8822 86.9045 40.8822C86.9515 40.8822 86.9868 40.8861 87.0143 40.8939L87.473 41.0076C87.7298 41.0704 87.8572 41.2213 87.8572 41.4644C87.8572 41.6389 87.767 41.8231 87.5867 42.0172Z" fill="#CC3333"/>
<path d="M83.2837 39.4355L83.1367 39.3316C83.1367 39.3316 83.1347 39.3296 83.1328 39.3296C83.1151 39.3159 83.0955 39.3022 83.0779 39.2904C83.0602 39.2787 83.0407 39.2669 83.023 39.2551H83.021C83.021 39.2551 83.0034 39.2434 82.9956 39.2394C82.9799 39.2277 82.9603 39.2159 82.9426 39.2061C82.923 39.1944 82.9054 39.1846 82.8877 39.1748C82.8877 39.1748 82.8858 39.1728 82.8838 39.1728C82.8603 39.1591 82.8387 39.1473 82.8152 39.1375C82.7937 39.1258 82.7701 39.114 82.7466 39.1042C82.7133 39.0885 82.678 39.0728 82.6447 39.0591C82.6113 39.0434 82.5761 39.0297 82.5408 39.0179C82.4996 39.0022 82.4584 38.9885 82.4153 38.9768C82.3859 38.967 82.3585 38.9591 82.3291 38.9513C82.2761 38.9376 82.2193 38.9238 82.1644 38.914C82.1389 38.9082 82.1154 38.9042 82.0879 38.9023C82.0742 38.8984 82.0585 38.8964 82.0448 38.8944C82.0037 38.8885 81.9625 38.8846 81.9213 38.8807C81.9037 38.8788 81.8841 38.8768 81.8664 38.8748C81.8468 38.8748 81.8272 38.8729 81.8096 38.8729C81.7625 38.8689 81.7174 38.869 81.6704 38.869H78.283C77.9674 38.869 77.8086 39.0258 77.8086 39.3414V46.4828C77.8086 46.7278 77.9321 46.8513 78.1791 46.8513H79.3494C79.5964 46.8513 79.7179 46.7278 79.7179 46.4828V44.4009C79.7179 44.2578 79.7905 44.1873 79.9316 44.1873L81.8743 44.1971H81.8841C81.9135 44.1971 81.9429 44.1971 81.9723 44.1951C82.0017 44.1951 82.0311 44.1931 82.0605 44.1892C82.0703 44.1892 82.0801 44.1892 82.0899 44.1873C82.1017 44.1853 82.1115 44.1853 82.1213 44.1833C82.135 44.1814 82.1487 44.1814 82.1624 44.1794C82.186 44.1755 82.2095 44.1716 82.231 44.1677C82.2546 44.1637 82.2761 44.1598 82.2977 44.1539C82.3212 44.15 82.3428 44.1441 82.3643 44.1382C82.382 44.1343 82.4016 44.1285 82.4192 44.1226C82.4369 44.1186 82.4526 44.1147 82.4702 44.1088C82.5035 44.0971 82.5369 44.0853 82.5682 44.0716C82.5917 44.0638 82.6113 44.0559 82.6329 44.0461C82.6839 44.0246 82.7348 43.9991 82.7838 43.9716C82.7956 43.9657 82.8074 43.9579 82.8211 43.9501C82.8309 43.9442 82.8446 43.9363 82.8564 43.9285C82.8779 43.9148 82.9015 43.9011 82.9211 43.8854H82.923C82.9485 43.8677 82.974 43.8501 82.9975 43.8305C83.021 43.8148 83.0446 43.7952 83.0661 43.7776C83.0877 43.758 83.1112 43.7384 83.1328 43.7187C83.17 43.6874 83.2073 43.6521 83.2426 43.6148L83.3778 43.4737C83.7522 43.0856 83.9385 42.6249 83.9385 42.0897V40.7116C83.9385 40.1726 83.7209 39.7491 83.2837 39.4355ZM81.8057 41.7722C81.8057 42.0505 81.6684 42.227 81.394 42.3034L80.1766 42.6425C80.1433 42.6523 80.112 42.6582 80.0884 42.6582C79.9943 42.6582 79.9453 42.5876 79.9434 42.4485L79.9159 40.9547V40.9449C79.9159 40.8332 79.9591 40.7783 80.0473 40.7783C80.0688 40.7783 80.0924 40.7822 80.1198 40.7881L81.3999 41.0449C81.6704 41.0998 81.8057 41.2723 81.8057 41.5585V41.7722Z" fill="#CC3333"/>
<path d="M141.409 40.7901C141.189 40.7901 141.079 40.8763 141.079 41.0488C141.079 41.2213 141.201 41.3468 141.446 41.4056L142.475 41.6546C143.014 41.7839 143.404 41.9898 143.645 42.2701C143.818 42.472 143.904 42.8484 143.904 43.4032V45.1125C143.904 45.6653 143.692 46.1025 143.267 46.422C142.887 46.7102 142.408 46.8533 141.832 46.8533H138.888C138.633 46.8533 138.505 46.7259 138.505 46.471V45.0047C138.505 44.7499 138.633 44.6225 138.888 44.6225H141.293C141.548 44.6225 141.675 44.4774 141.675 44.1853C141.675 43.9442 141.577 43.7893 141.383 43.7207L140.068 43.2679C139.025 42.9092 138.503 42.1995 138.503 41.139V40.1255C138.503 39.5512 138.666 39.1081 138.992 38.7964C139.317 38.4847 139.768 38.3299 140.342 38.3299H143.696C143.951 38.3299 144.079 38.4573 144.079 38.7121V40.4098C144.079 40.6646 143.951 40.792 143.696 40.792H141.405L141.409 40.7901Z" fill="#CC3333"/>
<path d="M143.924 32.098L136.849 5.22421C136.488 3.86376 135.439 3.05416 134.046 3.05416H127.788C126.428 3.05416 125.401 3.80299 124.973 5.10855C124.971 5.11051 120.7 18.4817 118.181 26.3583V26.1701C118.181 24.3921 117.032 23.2453 115.256 23.2453H110.483L110.232 6.95908C110.208 5.22813 109.132 4.1088 107.489 4.1088H103.869C102.236 4.1088 101.152 5.22029 101.109 6.94144L100.673 24.0118C100.166 23.5197 99.4482 23.2453 98.5758 23.2453H93.8025L93.5535 6.95908C93.53 5.22813 92.4519 4.1088 90.8091 4.1088H87.1904C85.5575 4.1088 84.4734 5.22029 84.4283 6.94144L84.0206 22.9708V5.9064C84.0206 4.13036 82.8738 2.98162 81.0958 2.98162H75.6932C73.9446 2.98162 72.8175 4.06763 72.7528 5.81622L71.8334 30.6709L68.3029 23.9726L69.8045 22.4337C71.3923 20.8027 72.198 18.8326 72.198 16.5842V11.109C72.198 8.82725 71.3864 6.92184 69.7809 5.43592C68.2362 4.02451 66.3151 3.30899 64.0706 3.30899H52.8106C51.0346 3.30899 49.8858 4.45773 49.8858 6.23376V15.1688C49.5918 14.9748 49.284 14.8101 48.9704 14.6768C48.7724 14.5925 48.5665 14.5161 48.3646 14.4533C48.249 14.42 48.1353 14.3867 48.0196 14.3612C47.7001 13.7574 47.21 13.0929 46.4612 12.5342C45.9358 12.1382 45.332 11.8363 44.689 11.6442C44.4715 11.2365 44.295 10.815 44.1637 10.3837C43.95 9.68978 43.6364 8.28032 43.8049 7.3923C43.8265 7.28841 43.8481 7.2198 43.8638 7.17668C43.8932 7.17276 43.9284 7.1708 43.9755 7.1708C44.0069 7.1708 44.0402 7.17079 44.0735 7.17275L45.6535 7.27077C45.6849 7.27077 45.7143 7.27077 45.7437 7.27077C46.3181 7.27077 46.8415 6.93163 47.0728 6.40039C47.3159 5.84366 47.1865 5.19284 46.7474 4.77138L45.6065 3.67753C45.3222 3.40505 44.4715 2.67189 43.1855 2.31512C43.4933 1.89757 43.5599 1.34085 43.3404 0.854696C43.1032 0.329334 42.5837 0 42.0191 0C41.9525 0 41.8878 0.00588235 41.8211 0.0137236L39.8804 0.280322C39.1277 0.382258 38.0769 0.633178 36.9811 1.23107C36.7263 1.03896 36.4205 0.940943 36.1108 0.940943C35.8755 0.940943 35.6403 0.997793 35.4227 1.11345L34.0544 1.85053C33.282 2.26611 32.5548 2.76011 31.8941 3.31879C31.457 3.68537 31.0453 4.08724 30.667 4.51066C30.1593 5.07915 29.6966 5.70056 29.2928 6.36314C27.652 9.04288 27.1169 12.0284 26.9993 14.3808C26.7346 14.4592 26.4759 14.5592 26.2289 14.6788C25.5918 14.9846 25.0174 15.4178 24.5195 15.9706C24.4234 16.0765 24.345 16.1725 24.2764 16.2607C24.1647 16.4077 24.0627 16.5548 23.9726 16.7018C23.5923 16.5195 23.1433 16.4215 22.6415 16.4215H14.5474C13.2752 16.4215 12.3872 17.3095 12.3872 18.5837V24.1117C12.3872 24.9429 12.7714 25.6251 13.4281 26.0191L11.4795 25.7976C11.4325 25.7917 11.3952 25.7858 11.3658 25.78C11.3658 25.7525 11.3619 25.7192 11.3619 25.6761V16.2176C11.3619 15.0708 11.6932 14.7415 12.838 14.7415H20.495C22.1632 14.7415 23.2394 13.6653 23.2394 11.9971V5.72213C23.2394 4.05587 22.1632 2.97966 20.495 2.97966H8.4195C6.12007 2.97966 4.18329 3.86964 2.66601 5.62607L2.18966 6.17496C0.737074 7.85886 0 9.84857 0 12.0892V27.4031C0 29.6614 0.866453 31.606 2.5778 33.1821L2.815 33.4016C4.45381 34.9111 6.44352 35.6775 8.72727 35.6775H15.7118C18.0054 35.6775 19.9422 34.8032 21.4751 33.0762L23.1473 31.1865C24.6312 29.5124 25.3859 27.5305 25.3859 25.2938V24.6155C25.6212 24.7959 25.8741 24.9586 26.1407 25.1037C26.4876 25.2918 26.862 25.4467 27.2502 25.5624C27.5482 27.4815 28.3225 29.8986 30.2004 32.0627C31.2198 33.237 32.2333 33.9505 32.7449 34.2681C33.4134 34.6876 35.8422 36.0618 39.0414 36.0618C40.1823 36.0618 41.3075 35.8853 42.3896 35.5383C44.8753 34.7444 46.7846 33.3369 48.0647 31.359C49.6525 28.8968 49.7388 26.3661 49.5036 24.6077C49.6369 24.5293 49.7643 24.445 49.8858 24.3548V32.6802C49.8858 34.4563 51.0346 35.605 52.8106 35.605H56.049C57.7447 35.605 58.8777 34.5386 59.0051 32.8312L59.3404 28.6675L65.974 38.7238C66.3857 39.3413 67.0444 39.6962 67.7814 39.6962H72.9468C74.2406 39.6962 75.1443 38.7944 75.1443 37.5006C75.1443 37.1517 75.0679 36.8223 74.9189 36.5224C74.915 36.5146 74.9091 36.5048 74.9052 36.495L74.472 35.6775H81.8231C82.9483 35.6775 83.7775 34.9934 83.9755 33.9662C84.3774 35.0326 85.3595 35.6775 86.6984 35.6775H98.5758C99.6344 35.6775 100.47 35.2698 100.971 34.5641C101.473 35.2698 102.312 35.6775 103.379 35.6775H115.256C115.956 35.6775 116.56 35.4972 117.034 35.1698C117.442 35.4815 117.997 35.6775 118.712 35.6775H123.35C124.667 35.6775 125.703 34.9797 126.193 33.7584L127.171 31.2786L132.219 32.0059L133.281 34.1054C133.793 35.1032 134.702 35.6775 135.775 35.6775H141.358C143.369 35.6775 144.082 34.3269 144.082 33.1703C144.082 32.8331 144.029 32.4724 143.924 32.0961V32.098ZM23.9333 25.2958C23.9333 27.1757 23.31 28.8184 22.0613 30.2259L20.3872 32.1176C19.1384 33.5251 17.58 34.2269 15.7118 34.2269H8.72727C6.81206 34.2269 5.16736 33.5977 3.79907 32.3352L3.56187 32.1176C2.15437 30.8199 1.45259 29.2497 1.45259 27.405V12.0912C1.45259 10.1995 2.0642 8.54301 3.28939 7.12571L3.76182 6.57878C4.99878 5.14972 6.55134 4.43225 8.4195 4.43225H20.495C21.3575 4.43225 21.7868 4.86352 21.7868 5.72409V11.999C21.7868 12.8616 21.3575 13.2909 20.495 13.2909H12.838C10.8856 13.2909 9.90934 14.2671 9.90934 16.2196V25.678C9.90934 26.6131 10.3759 27.1326 11.311 27.2423L14.8767 27.6422H15.0218C15.4707 27.6422 15.6942 27.3953 15.6942 26.8973V25.1507L14.4945 24.8959C14.0573 24.7978 13.8378 24.5391 13.8378 24.1137V18.5856C13.8378 18.1112 14.075 17.876 14.5474 17.876H22.6415C22.9414 17.876 23.1884 17.927 23.3845 18.0328C23.751 18.2269 23.9333 18.6052 23.9333 19.1659V25.2958ZM49.8858 22.32C49.876 22.3357 49.8643 22.3514 49.8525 22.3671C49.6819 22.6003 49.482 22.814 49.2624 23.0042C49.0135 23.2159 48.7273 23.3982 48.4156 23.5472C48.2392 23.6295 48.0568 23.7001 47.8667 23.7589C48.2078 25.1331 48.5587 27.9167 46.8454 30.5729C45.7535 32.2607 44.1049 33.4683 41.9466 34.1583C41.0096 34.4582 40.0333 34.6111 39.0414 34.6111C36.2343 34.6111 34.1034 33.4095 33.5153 33.0409C33.0723 32.7645 32.1941 32.1451 31.2963 31.112C29.3399 28.8576 28.7204 26.2798 28.5695 24.3568C28.099 24.3078 27.4678 24.1745 26.8307 23.8295C26.5425 23.6726 26.2779 23.4864 26.0407 23.2766C25.8035 23.0669 25.5937 22.8336 25.4153 22.5827C25.4055 22.569 25.3938 22.5553 25.3859 22.5396C24.8527 21.777 24.5881 20.8518 24.5979 19.7932C24.6018 19.4364 24.6097 18.6013 25.0546 17.7349C25.1566 17.5388 25.2781 17.3408 25.4291 17.1448C25.4761 17.0821 25.5349 17.0154 25.6016 16.9409C25.9681 16.5332 26.3896 16.2137 26.8562 15.9902C27.2365 15.8059 27.6462 15.6903 28.0657 15.6511C28.1755 15.6393 28.2852 15.6354 28.393 15.6354H28.4244C28.4087 13.5065 28.7224 10.076 30.5298 7.12374C30.8905 6.53369 31.3002 5.98089 31.7491 5.48101C32.0843 5.10463 32.4489 4.75178 32.8312 4.42833C33.4134 3.93629 34.0544 3.49914 34.7405 3.13257L36.1108 2.39549L35.558 3.85004C35.4854 4.04019 35.4501 4.24406 35.4521 4.44597C35.8618 3.88924 36.3578 3.39525 36.9204 2.98555C38.0848 2.13673 39.2786 1.82896 40.0765 1.71918L42.0191 1.45455L40.5352 2.73463C40.198 3.02475 39.9333 3.36976 39.7491 3.75594C39.6844 3.88924 39.6354 4.02059 39.5942 4.14997C40.0882 3.85592 40.7332 3.605 41.5192 3.56971C41.582 3.56579 41.6427 3.56383 41.7055 3.56383C43.2659 3.56383 44.3166 4.45381 44.5989 4.7263L45.7437 5.82211L44.1617 5.72409C44.099 5.72017 44.0363 5.71821 43.9755 5.71821C43.5756 5.71821 43.2521 5.80446 43.013 5.97108C42.9209 6.03577 42.8385 6.11027 42.766 6.20044C42.5837 6.42392 42.4543 6.73168 42.3798 7.11786C42.1112 8.5234 42.6621 10.4406 42.7758 10.8091C43.0012 11.5442 43.3286 12.2499 43.7501 12.9145C44.4264 13.0282 45.0576 13.2948 45.5888 13.6947C46.418 14.3141 46.8179 15.1139 47.0081 15.6628C47.3217 15.6883 47.6354 15.7491 47.9373 15.8412C48.0902 15.8883 48.2431 15.9451 48.396 16.0098C48.7194 16.147 49.0311 16.3274 49.3212 16.543L49.3487 16.5626L49.3742 16.5881C49.5486 16.7528 49.7094 16.9331 49.8505 17.1233C49.8623 17.1389 49.876 17.1546 49.8858 17.1703C49.9701 17.286 50.0426 17.3977 50.1073 17.5114C50.9405 18.962 50.8444 20.9733 49.8858 22.32ZM72.9468 38.2475H67.7814C67.5266 38.2475 67.3266 38.1377 67.1816 37.9201L58.2308 24.3509L57.5584 32.7175C57.4859 33.6761 56.9821 34.1544 56.049 34.1544H52.8106C51.8304 34.1544 51.3384 33.6643 51.3384 32.6822V6.23376C51.3384 5.25165 51.8304 4.75962 52.8106 4.75962H64.0706C65.9505 4.75962 67.5266 5.34183 68.7988 6.50625C70.0966 7.70596 70.7454 9.24088 70.7454 11.109V16.5842C70.7454 18.4504 70.0848 20.0637 68.7635 21.4222L66.5268 23.7138L71.7334 33.5957V33.5996L72.6332 35.307L73.6172 37.1732C73.6663 37.2713 73.6917 37.3791 73.6917 37.5026C73.6917 37.9985 73.4428 38.2475 72.9449 38.2475H72.9468ZM82.57 33.482C82.57 33.9799 82.321 34.2269 81.8231 34.2269H73.9289C73.8447 34.2269 73.7662 34.221 73.6957 34.2053C73.3546 34.1367 73.184 33.9015 73.184 33.4996V33.4447L73.1919 33.2467V33.2428L74.2034 5.86915C74.2387 4.91252 74.7366 4.43225 75.6932 4.43225H81.0958C82.0779 4.43225 82.57 4.92428 82.57 5.9064V33.482ZM100.05 32.7567C100.05 33.7388 99.558 34.2289 98.5758 34.2289H86.6984C85.7163 34.2289 85.2242 33.7506 85.2242 32.792V32.7194L85.8809 6.98065C85.9044 6.03578 86.3416 5.56138 87.1904 5.56138H90.8091C91.6579 5.56138 92.0892 6.03578 92.101 6.98065L92.3734 24.6979H98.5758C99.558 24.6979 100.05 25.1879 100.05 26.172V32.7567ZM116.728 32.7567C116.728 33.3232 116.564 33.727 116.236 33.9662C115.997 34.1426 115.67 34.2289 115.256 34.2289H103.379C102.396 34.2289 101.904 33.7506 101.904 32.792V32.7194L102.559 6.98065C102.585 6.03578 103.02 5.56138 103.869 5.56138H107.489C108.338 5.56138 108.767 6.03578 108.781 6.98065L109.054 24.6979H115.256C116.238 24.6979 116.728 25.1879 116.728 26.172V32.7567ZM141.358 34.2269H135.775C135.239 34.2269 134.84 33.9662 134.573 33.4447L133.173 30.6807L126.242 29.681L124.842 33.2272C124.575 33.8937 124.077 34.2269 123.35 34.2269H118.659C118.643 34.2269 118.626 34.2269 118.61 34.2269C118.598 34.2269 118.589 34.2269 118.577 34.225C118.561 34.225 118.545 34.223 118.528 34.223H118.526C118.512 34.221 118.496 34.2191 118.481 34.2171C118.473 34.2171 118.461 34.2171 118.451 34.2171C118.424 34.2132 118.398 34.2093 118.373 34.2053C118.359 34.2034 118.347 34.2014 118.334 34.1975C118.318 34.1955 118.3 34.1916 118.283 34.1877L118.259 34.1818C118.234 34.174 118.208 34.1681 118.183 34.1583C118.167 34.1544 118.151 34.1485 118.136 34.1426C118.12 34.1387 118.104 34.1328 118.091 34.125C118.079 34.1211 118.067 34.1152 118.055 34.1093C118.038 34.1014 118.022 34.0936 118.006 34.0838C117.983 34.074 117.961 34.0603 117.94 34.0446C117.926 34.0348 117.912 34.025 117.901 34.0152C117.887 34.0054 117.873 33.9956 117.861 33.9838C117.852 33.974 117.842 33.9662 117.834 33.9564C117.826 33.9505 117.82 33.9446 117.814 33.9368C117.806 33.9289 117.801 33.9231 117.793 33.9133C117.789 33.9093 117.785 33.9035 117.781 33.8976C117.769 33.8839 117.757 33.8682 117.748 33.8525C117.746 33.8486 117.742 33.8466 117.74 33.8427C117.73 33.827 117.718 33.8094 117.71 33.7917C117.704 33.78 117.697 33.7662 117.691 33.7525C117.683 33.7388 117.677 33.7231 117.671 33.7094C117.665 33.6937 117.659 33.68 117.655 33.6643C117.652 33.6525 117.646 33.6388 117.642 33.6251C117.632 33.5918 117.626 33.5545 117.62 33.5192C117.616 33.5036 117.614 33.4859 117.612 33.4683C117.608 33.4487 117.606 33.4251 117.605 33.4036V33.3997C117.603 33.3703 117.603 33.3369 117.603 33.3036C117.603 33.0605 117.657 32.7704 117.767 32.4313L118.181 31.1355L126.351 5.56334C126.583 4.86155 127.061 4.5087 127.788 4.5087H134.046C134.785 4.5087 135.253 4.87332 135.445 5.60059L142.522 32.4842C142.594 32.739 142.63 32.9703 142.63 33.1762C142.63 33.8799 142.206 34.2308 141.358 34.2308V34.2269Z" fill="white"/>
<path d="M50.1073 17.5134C50.0427 17.3997 49.9701 17.288 49.8858 17.1723C49.876 17.1566 49.8623 17.1409 49.8506 17.1253C49.7094 16.9351 49.5487 16.7548 49.3742 16.5901L49.3487 16.5646L49.3213 16.545C49.0311 16.3294 48.7195 16.149 48.396 16.0118C48.2431 15.9471 48.0902 15.8903 47.9373 15.8432C47.6354 15.7511 47.3218 15.6903 47.0081 15.6648C46.818 15.1159 46.4181 14.3161 45.5889 13.6967C45.0576 13.2968 44.4264 13.0302 43.7501 12.9165C43.3286 12.2519 43.0012 11.5462 42.7758 10.8111C42.6621 10.4426 42.1113 8.5254 42.3798 7.11986C42.4543 6.73368 42.5837 6.42592 42.766 6.20244C42.8385 6.11227 42.9209 6.03778 43.013 5.97309C43.2522 5.80646 43.5756 5.7202 43.9755 5.7202C44.0363 5.7202 44.099 5.72216 44.1618 5.72609L45.7437 5.8241L44.5989 4.72829C44.3166 4.45581 43.2659 3.56583 41.7055 3.56583C41.6428 3.56583 41.582 3.56779 41.5193 3.57171C40.7332 3.607 40.0882 3.85792 39.5942 4.15196C39.6354 4.02258 39.6844 3.89124 39.7491 3.75794C39.9334 3.37176 40.198 3.02675 40.5352 2.73662L42.0191 1.45654L40.0765 1.72119C39.2786 1.83096 38.0848 2.13873 36.9204 2.98754C36.3578 3.39724 35.8618 3.89124 35.4521 4.44797C35.4502 4.24606 35.4854 4.04218 35.558 3.85203L36.1108 2.39749L34.7405 3.13456C34.0544 3.50114 33.4134 3.93829 32.8312 4.43033C32.4489 4.75378 32.0843 5.10663 31.7491 5.48301C31.3002 5.98289 30.8905 6.53569 30.5298 7.12575C28.7224 10.078 28.4087 13.5085 28.4244 15.6374H28.3931C28.2852 15.6374 28.1755 15.6413 28.0657 15.6531C27.6462 15.6923 27.2365 15.8079 26.8562 15.9922C26.3896 16.2157 25.9682 16.5352 25.6016 16.9429C25.5349 17.0174 25.4761 17.0841 25.4291 17.1468C25.2781 17.3428 25.1566 17.5408 25.0547 17.7369C24.6097 18.6033 24.6018 19.4384 24.5979 19.7952C24.5881 20.8537 24.8528 21.779 25.386 22.5416C25.3938 22.5573 25.4056 22.571 25.4154 22.5847C25.5937 22.8356 25.8035 23.0689 26.0407 23.2786C26.2779 23.4884 26.5425 23.6746 26.8307 23.8315C27.4678 24.1765 28.099 24.3098 28.5695 24.3588C28.7204 26.2818 29.3399 28.8596 31.2963 31.114C32.1941 32.1471 33.0723 32.7665 33.5153 33.0429C34.1034 33.4115 36.2343 34.6131 39.0414 34.6131C40.0334 34.6131 41.0096 34.4602 41.9466 34.1603C44.1049 33.4703 45.7535 32.2627 46.8454 30.5749C48.5587 27.9187 48.2078 25.1351 47.8667 23.7609C48.0569 23.7021 48.2392 23.6315 48.4156 23.5492C48.7273 23.4002 49.0135 23.2179 49.2625 23.0062C49.482 22.816 49.682 22.6023 49.8525 22.3691C49.8643 22.3534 49.876 22.3377 49.8858 22.322C50.8444 20.9753 50.9405 18.964 50.1073 17.5134ZM29.1125 22.5083C28.3284 22.5925 27.6344 22.3495 27.1071 21.9182C26.0172 21.0321 25.631 19.3522 26.6131 18.0976C26.7464 17.9251 26.915 17.7682 27.1071 17.6349C27.6815 17.2311 28.4597 17.0331 29.1105 17.2488V18.7386C27.7501 18.3426 26.9287 19.111 27.5384 20.4068C27.8599 19.7717 28.1637 19.0013 28.9792 19.6129C29.0341 20.5813 29.1478 21.5418 29.1125 22.5083ZM34.6758 25.333C34.5778 25.3703 34.4896 25.4213 34.4132 25.4899C34.0701 25.7937 34.1172 26.2877 34.123 26.3504C34.2171 26.2328 34.3681 26.0819 34.5582 26.0819C34.6151 26.0819 34.666 26.0976 34.7131 26.1191C34.8287 26.174 34.915 26.2799 34.9699 26.3269C35.3541 26.6445 35.7677 26.8895 36.1951 27.1071C37.4183 27.7403 39.9118 27.7658 41.0331 27.7403C41.3879 27.7344 41.6055 27.7227 41.6055 27.7227C42.6249 27.6717 44.003 27.5619 45.6339 27.313C45.5242 27.7129 44.8322 30.0868 42.3347 31.3943C42.0152 31.5629 39.7236 32.494 36.9753 31.7962C34.2348 31.1003 32.147 28.5813 32.743 25.7486C32.9919 24.5607 33.6526 23.7295 34.5759 23.163C35.0189 22.8905 35.5227 22.6788 36.0735 22.5181C36.2127 22.7984 36.7753 23.755 37.0713 23.8138C37.1791 23.8354 37.7437 23.4374 37.6418 23.2982C36.9537 22.9434 36.5695 22.0672 37.0635 21.3732C37.7868 20.3637 39.1336 21.2458 39.9314 21.6888C40.2804 21.5183 40.7018 21.2478 41.1311 21.0753C41.682 20.8498 42.2446 20.791 42.67 21.3262C43.2718 22.0789 42.7739 22.8964 42.1328 23.4276C42.3759 23.6354 42.6758 23.8197 42.9326 23.7374C43.2326 23.6433 43.2071 23.2669 43.4541 23.1846C43.8834 23.0336 44.6538 23.9353 45.0655 24.6822C45.2732 25.0625 45.5614 25.7153 45.6339 26.6288C45.1164 26.6857 43.1365 26.9013 41.1311 26.9738C39.7275 27.0228 38.3142 27.0032 37.3811 26.8131C36.0677 26.5445 35.4168 25.8761 35.3796 25.78C35.3463 25.6977 35.3737 25.6408 35.3737 25.6408C35.3992 25.5879 35.456 25.5663 35.4913 25.5565C35.6619 25.4958 35.8638 25.5722 35.9304 25.6016C35.5462 25.2644 35.0483 25.188 34.6758 25.333ZM45.2909 20.0265C45.1419 20.3127 44.3147 21.2576 44.3009 21.3379C44.2774 21.4438 44.5852 21.9104 44.6244 22.1358C44.6773 22.4318 44.6342 22.7376 44.644 23.0356C44.5322 22.8513 43.707 22.4553 43.6717 22.4102C43.6344 22.3573 43.6599 21.83 43.6187 21.6281C43.3816 20.5087 42.3073 20.0736 41.2291 20.2696C41.1978 20.2755 41.1644 20.2833 41.1311 20.2931C40.7136 20.4166 40.1412 20.8381 39.9314 20.8381C39.7217 20.8381 39.061 20.4127 38.767 20.3147C37.777 19.9873 36.842 20.2735 36.3362 21.1909C36.2637 21.3223 36.1343 21.7653 36.0971 21.7927C36.0579 21.8182 35.3541 21.9731 35.1561 22.0554C34.9522 22.1397 34.7425 22.2377 34.5367 22.3475C34.2701 22.4886 34.0093 22.6494 33.78 22.818C33.5349 22.9023 33.5957 22.3436 33.6114 22.2103C33.6388 21.9613 33.8976 21.4105 33.8584 21.2556C33.827 21.1439 33.4644 20.8577 33.3468 20.6969C32.3333 19.3169 32.0765 17.4585 33.5585 16.2862C33.929 15.9922 34.3053 15.8256 34.6856 15.7491C36.3147 15.4237 38.0123 16.7626 39.755 16.7273C40.2098 16.7175 40.6626 16.6019 41.1115 16.4587C42.3034 16.0824 43.4756 15.5276 44.6401 16.3333C45.8947 17.1997 45.9535 18.768 45.2909 20.0265ZM48.1666 21.8888C48.0863 21.9496 48 22.0084 47.9099 22.0613L46.5631 20.5401C46.7494 19.9481 46.6925 18.8405 47.4766 19.7011C47.657 19.8991 47.8314 20.5813 47.9785 20.1951C48.3058 19.3384 47.7295 18.5504 46.8042 18.5602L46.6219 17.1605C47.2394 17.1605 47.7609 17.337 48.1666 17.6251C49.5173 18.5857 49.6526 20.7812 48.1666 21.8888Z" fill="#CC3333"/>
<path d="M61.4319 13.8026L59.8303 13.4027C59.7343 13.3791 59.6049 13.3654 59.4481 13.3654C58.9992 13.3654 58.762 13.6261 58.7385 14.1476L58.5562 18.9503V19.0052C58.5562 19.4894 58.7914 19.7325 59.2658 19.7325C59.4834 19.7325 59.6716 19.6482 59.8284 19.4776L61.8299 17.3311C62.4591 16.6509 62.7747 16.0099 62.7747 15.4041C62.7747 14.5553 62.3258 14.0221 61.428 13.8026H61.4319Z" fill="white"/>
<path d="M29.1125 22.5083C28.3284 22.5926 27.6345 22.3495 27.1071 21.9183C26.0172 21.0322 25.631 19.3522 26.6131 18.0976C26.7464 17.9251 26.915 17.7683 27.1071 17.635C27.6815 17.2312 28.4597 17.0332 29.1106 17.2488V18.7386C27.7501 18.3427 26.9287 19.1111 27.5384 20.4069C27.8599 19.7717 28.1637 19.0013 28.9792 19.6129C29.0341 20.5813 29.1478 21.5419 29.1125 22.5083Z" fill="white"/>
<path d="M44.6399 16.3314C43.4755 15.5257 42.3033 16.0804 41.1114 16.4568C40.6625 16.5999 40.2096 16.7156 39.7549 16.7254C38.0121 16.7607 36.3145 15.4218 34.6855 15.7472C34.3052 15.8236 33.9288 15.9903 33.5583 16.2843C32.0763 17.4566 32.3331 19.3149 33.3466 20.695C33.4642 20.8557 33.8269 21.1419 33.8583 21.2537C33.8975 21.4085 33.6387 21.9594 33.6113 22.2083C33.5956 22.3416 33.5348 22.9003 33.7799 22.816C34.0092 22.6475 34.2699 22.4867 34.5365 22.3456C34.7424 22.2358 34.9521 22.1378 35.156 22.0535C35.354 21.9712 36.0577 21.8163 36.0969 21.7908C36.1342 21.7634 36.2636 21.3203 36.3361 21.189C36.8418 20.2716 37.7769 19.9854 38.7669 20.3127C39.0609 20.4108 39.7235 20.8361 39.9313 20.8361C40.1391 20.8361 40.7134 20.4147 41.131 20.2912C41.1643 20.2814 41.1976 20.2735 41.229 20.2677C42.3072 20.0716 43.3814 20.5068 43.6186 21.6261C43.6598 21.8281 43.6343 22.3554 43.6715 22.4083C43.7068 22.4534 44.5321 22.8494 44.6439 23.0336C44.6341 22.7357 44.6772 22.4299 44.6243 22.1339C44.585 21.9084 44.2773 21.4419 44.3008 21.336C44.3145 21.2556 45.1418 20.3108 45.2908 20.0246C45.9533 18.7661 45.8945 17.1978 44.6399 16.3314ZM37.3809 18.9719C37.3476 19.0013 37.2986 19.4737 36.9183 19.705C36.0185 20.2539 35.3481 19.2659 35.4873 18.4367L34.3444 18.2603H34.3229L34.3209 17.7761V17.7349L38.6218 18.6543C38.5532 19.4306 37.5926 18.7915 37.3809 18.9719ZM38.5395 19.7482C39.1785 19.1679 40.2763 19.1895 40.9644 19.707C40.145 19.8854 39.3648 19.7384 38.5395 19.7482ZM44.3714 18.3446L43.3069 18.5328C43.4618 19.954 41.7014 20.4304 41.4094 18.966C41.378 18.9405 41.2682 18.9582 41.131 18.9856C40.886 19.0385 40.5586 19.1209 40.437 19.0385C40.3488 18.9778 40.2626 18.5563 40.49 18.5426L41.131 18.425L44.3753 17.8212L44.3714 18.3446Z" fill="white"/>
<path d="M38.6222 18.6543C38.5536 19.4306 37.593 18.7915 37.3813 18.9719C37.348 19.0013 37.299 19.4737 36.9187 19.705C36.0189 20.2539 35.3485 19.2659 35.4877 18.4367L34.3448 18.2603H34.3233L34.3213 17.7761V17.7349L38.6222 18.6543Z" fill="#CC3333"/>
<path d="M40.9644 19.7089C40.145 19.8873 39.3648 19.7403 38.5396 19.7501C39.1786 19.1698 40.2764 19.1914 40.9644 19.7089Z" fill="#CC3333"/>
<path d="M44.3718 18.3446L43.3073 18.5328C43.4622 19.954 41.7018 20.4303 41.4097 18.966C41.3784 18.9405 41.2686 18.9581 41.1314 18.9856C40.8863 19.0385 40.559 19.1208 40.4374 19.0385C40.3492 18.9777 40.263 18.5563 40.4904 18.5426L41.1314 18.4249L44.3757 17.8212L44.3718 18.3446Z" fill="#CC3333"/>
<path d="M41.033 27.7423C39.9117 27.7678 37.4182 27.7423 36.1949 27.1091C35.7676 26.8915 35.354 26.6465 34.9698 26.3289C34.9149 26.2818 34.8286 26.176 34.7129 26.1211C34.6659 26.0995 34.6149 26.0839 34.5581 26.0839C34.3679 26.0839 34.217 26.2348 34.1229 26.3524C34.117 26.2897 34.07 25.7957 34.413 25.4918C34.4895 25.4232 34.5777 25.3723 34.6757 25.335C35.0482 25.19 35.5461 25.2664 35.9303 25.6036C35.8637 25.5742 35.6617 25.4977 35.4912 25.5585C35.4559 25.5683 35.3991 25.5899 35.3736 25.6428C35.3736 25.6428 35.3461 25.6996 35.3795 25.782C35.4167 25.878 36.0675 26.5465 37.3809 26.815C38.314 27.0052 39.7274 27.0248 41.131 26.9758C43.1364 26.9033 45.1163 26.6876 45.6338 26.6308C45.5613 25.7173 45.2731 25.0645 45.0653 24.6842C44.6537 23.9373 43.8833 23.0356 43.4539 23.1865C43.207 23.2689 43.2324 23.6452 42.9325 23.7393C42.6757 23.8217 42.3758 23.6374 42.1327 23.4296C42.7737 22.8984 43.2716 22.0809 42.6698 21.3282C42.2444 20.793 41.6818 20.8518 41.131 21.0772C40.7017 21.2498 40.2802 21.5203 39.9313 21.6908C39.1334 21.2478 37.7867 20.3656 37.0634 21.3752C36.5694 22.0692 36.9536 22.9454 37.6416 23.3002C37.7436 23.4394 37.179 23.8373 37.0712 23.8158C36.7752 23.757 36.2126 22.8003 36.0734 22.52C35.5226 22.6808 35.0188 22.8925 34.5757 23.165C33.6524 23.7315 32.9918 24.5627 32.7428 25.7506C32.1469 28.5832 34.2346 31.1022 36.9751 31.7981C39.7235 32.496 42.0151 31.5649 42.3346 31.3963C44.832 30.0888 45.524 27.7148 45.6338 27.3149C44.0028 27.5639 42.6247 27.6737 41.6054 27.7246C41.6054 27.7246 41.3878 27.7364 41.033 27.7423ZM40.4684 22.6866C40.5468 22.5396 40.8311 22.2691 41.131 22.0672C41.1859 22.0319 41.2427 21.9966 41.2976 21.9653C41.3251 21.9496 41.3505 21.9359 41.378 21.9221C41.4054 21.9065 41.4309 21.8947 41.4584 21.8849C41.4721 21.879 41.4858 21.8731 41.4976 21.8672C41.5113 21.8614 41.5231 21.8574 41.5368 21.8535C41.5583 21.8437 41.5779 21.8378 41.5995 21.8339C41.6113 21.83 41.6211 21.828 41.6328 21.8241C41.6446 21.8222 41.6603 21.8202 41.674 21.8182C41.7191 21.8104 41.7622 21.8124 41.7975 21.8222C42.0896 21.9065 42.3052 22.3142 42.0837 22.5945C42.0798 22.6024 42.068 22.6122 42.0523 22.6239C42.0484 22.6278 42.0425 22.6337 42.0366 22.6376C41.9818 22.6788 41.8916 22.7455 41.7857 22.816C41.772 22.8239 41.7602 22.8317 41.7485 22.8396C41.5309 22.9866 41.2623 23.1532 41.131 23.2277C41.1212 23.2316 41.1114 23.2375 41.1035 23.2414C41.0937 23.2473 41.0839 23.2512 41.0761 23.2551C41.0683 23.2591 41.0604 23.261 41.0565 23.263C40.7585 23.3571 40.3292 22.9454 40.4684 22.6866ZM40.7017 25.0449C40.8095 25.288 40.8879 25.5193 40.9448 25.731C41.0016 25.9427 41.0369 26.1348 41.0585 26.2975C40.9526 26.2799 40.8173 26.2662 40.6644 26.2721C40.5253 26.2799 40.4076 26.2995 40.3116 26.323C40.3547 26.029 40.3841 25.6526 40.3488 25.2174C40.3135 24.7587 40.2155 24.3725 40.1195 24.0785C40.3057 24.3157 40.5194 24.6372 40.7017 25.0449ZM37.9024 21.93C37.9847 21.8614 38.0886 21.8202 38.2082 21.828C38.4218 21.8378 39.404 22.5338 39.4863 22.6827C39.5921 22.8768 39.4686 23.112 39.2844 23.2414C39.1746 23.3179 39.0433 23.3551 38.9256 23.3218C38.7923 23.2806 37.82 22.6886 37.7749 22.5965C37.6593 22.3671 37.7259 22.0809 37.9024 21.93Z" fill="white"/>
<path d="M42.0837 22.5945C42.0837 22.5945 42.068 22.6122 42.0523 22.6239C42.0484 22.6279 42.0425 22.6337 42.0367 22.6377C41.9818 22.6788 41.8916 22.7455 41.7857 22.8161C41.772 22.8239 41.7603 22.8317 41.7485 22.8396C41.5309 22.9866 41.2623 23.1532 41.131 23.2277C41.1212 23.2316 41.1114 23.2375 41.1036 23.2414C41.0938 23.2473 41.084 23.2512 41.0761 23.2552C41.0683 23.2591 41.0604 23.261 41.0565 23.263C40.7585 23.3571 40.3292 22.9454 40.4684 22.6867C40.5468 22.5396 40.8311 22.2691 41.131 22.0672C41.1859 22.0319 41.2427 21.9966 41.2976 21.9653C41.3251 21.9496 41.3506 21.9359 41.378 21.9222C41.4054 21.9065 41.4309 21.8947 41.4584 21.8849C41.4721 21.879 41.4858 21.8731 41.4976 21.8673C41.5113 21.8614 41.5231 21.8575 41.5368 21.8535C41.5583 21.8437 41.5779 21.8379 41.5995 21.8339C41.6113 21.83 41.6211 21.8281 41.6328 21.8241C41.6446 21.8222 41.6603 21.8202 41.674 21.8183C41.7191 21.8104 41.7622 21.8124 41.7975 21.8222C42.0896 21.9065 42.3052 22.3142 42.0837 22.5945Z" fill="#CC3333"/>
<path d="M41.0586 26.2976C40.9528 26.2799 40.8175 26.2662 40.6646 26.2721C40.5254 26.2799 40.4078 26.2995 40.3117 26.323C40.3549 26.029 40.3843 25.6526 40.349 25.2174C40.3137 24.7587 40.2157 24.3725 40.1196 24.0785C40.3059 24.3157 40.5195 24.6372 40.7018 25.0449C40.8097 25.288 40.8881 25.5193 40.9449 25.731C41.0018 25.9427 41.0371 26.1349 41.0586 26.2976Z" fill="#CC3333"/>
<path d="M39.2848 23.2434C39.175 23.3198 39.0437 23.3571 38.9261 23.3237C38.7928 23.2826 37.8205 22.6906 37.7754 22.5984C37.6597 22.3691 37.7264 22.0829 37.9028 21.9319C37.9851 21.8633 38.089 21.8222 38.2086 21.83C38.4223 21.8398 39.4044 22.5357 39.4867 22.6847C39.5926 22.8788 39.4691 23.114 39.2848 23.2434Z" fill="#CC3333"/>
<path d="M48.1665 21.8888C48.0861 21.9496 47.9999 22.0084 47.9097 22.0613L46.563 20.5402C46.7492 19.9481 46.6924 18.8406 47.4765 19.7011C47.6568 19.8991 47.8313 20.5813 47.9783 20.1951C48.3057 19.3385 47.7294 18.5504 46.8041 18.5602L46.6218 17.1606C47.2393 17.1606 47.7607 17.337 48.1665 17.6252C49.5172 18.5857 49.6524 20.7813 48.1665 21.8888Z" fill="white"/>
<path d="M127.771 25.0253L130.827 25.335C130.937 25.3468 131.046 25.3527 131.154 25.3527C131.809 25.3527 132.136 25.1115 132.136 24.6254C132.136 24.5156 132.125 24.4 132.099 24.2804L130.262 18.4779C130.153 18.127 129.929 17.9506 129.588 17.9506C129.212 17.9506 128.965 18.1505 128.843 18.5504L127.096 24.0628C127.061 24.1843 127.042 24.2921 127.042 24.3902C127.042 24.7665 127.283 24.9782 127.769 25.0273L127.771 25.0253Z" fill="white"/>
</svg>
