<?xml version="1.0" encoding="UTF-8"?>
<svg id="Layer_2" data-name="Layer 2" xmlns="http://www.w3.org/2000/svg" viewBox="0 0 735 244.85">
  <defs>
    <style>
      .cls-1 {
        fill: #fff;
      }
    </style>
  </defs>
  <g id="Layer_1-2" data-name="Layer 1-2">
    <g>
      <g>
        <path class="cls-1" d="M702.63,197.38v39.13c0,1.24-.36,1.86-1.08,1.86h-4.49c-1.13,0-1.95-.44-2.47-1.33l-8.6-14.86-1.56,15.02c-.13,1.19-.79,1.78-2,1.78h-5.25c-.42,0-.78-.07-1.05-.21-.56-.28-.84-.83-.84-1.67v-39.08c0-.89.28-1.5.83-1.84.34-.21.78-.31,1.33-.31h5.41c.89,0,1.63.37,2.23,1.11l9.4,11.71.61-11.36c.07-1.22.71-1.83,1.91-1.83h3.74c1.26,0,1.88.62,1.88,1.88h0Z"/>
        <path class="cls-1" d="M671.35,204.17c0-.07-.01-.13-.01-.19-.01-.13-.02-.26-.03-.38-.02-.14-.04-.27-.06-.41-.02-.09-.04-.2-.07-.3,0-.01,0-.03-.01-.04-.01-.09-.04-.18-.06-.27-.03-.11-.06-.21-.1-.31-.01-.03-.02-.07-.03-.1-.04-.12-.08-.23-.13-.34-.05-.12-.1-.24-.16-.35-.05-.1-.1-.2-.16-.29-.01-.03-.02-.06-.04-.09-.02-.03-.03-.06-.05-.08-.04-.08-.09-.15-.14-.22-.02-.02-.03-.05-.05-.07-.07-.1-.13-.2-.21-.29-.01-.02-.03-.04-.04-.05-.09-.12-.19-.23-.28-.33-.08-.09-.17-.18-.26-.27-.08-.09-.17-.17-.27-.25-.06-.06-.13-.12-.2-.17-.03-.03-.07-.06-.11-.1-.08-.06-.16-.12-.25-.18-.1-.08-.21-.16-.32-.23-.07-.04-.13-.09-.21-.13-.07-.05-.14-.09-.21-.13-.06-.04-.11-.07-.16-.1l-.43-.24c-2.33-1.31-4.91-1.97-7.72-1.97h-10.41c-.15,0-.3.01-.45.01-.09,0-.17.01-.26.01-.08,0-.17,0-.26.02h-.15c-.09.01-.18.02-.26.03-.09.01-.17.02-.25.03-.12.02-.25.03-.37.06-.16.02-.32.05-.48.08-.14.03-.28.06-.41.1-.05,0-.1.02-.14.03-.14.04-.26.08-.4.12-.3.09-.61.2-.91.32-.59.23-1.16.52-1.7.86-.09.05-.17.1-.26.16-.33.21-.65.45-.97.7-.02.02-.04.02-.05.04l-.22.13c-2.14,1.72-3.21,3.95-3.21,6.69v23.76c0,2.76.81,4.99,2.41,6.68.13.13.26.26.4.38.08.08.16.15.24.21.08.07.16.14.25.21.02,0,.03.01.04.02.05.04.09.07.14.11.02.01.04.03.07.05.01.01.03.02.05.03.05.04.1.07.16.11.19.13.38.25.58.35.1.05.2.11.31.16.13.07.27.13.41.19.13.05.26.1.4.15.02,0,.04.02.06.02.01,0,.01,0,0,.01.11.03.22.07.33.1.01,0,.03,0,.05.02.01,0,.03.01.05.01.12.04.25.07.37.1.02,0,.05,0,.07.02.08.02.17.04.26.05.01,0,.02,0,.03,0,.1.02.2.04.3.06l.18.03c.1.01.21.03.31.04.15.02.31.04.46.05h.06c.14.02.27.02.42.03h16.7c.08,0,.17,0,.25-.01.12-.01.25-.02.37-.03.13-.02.27-.03.4-.05.02,0,.04,0,.07-.02.27-.04.54-.1.81-.17,0,0,.03,0,.04-.02.13-.03.25-.07.37-.11.07-.02.12-.04.18-.07h.02c.11-.05.22-.09.33-.14.08-.03.16-.07.24-.1.07-.04.15-.08.23-.12h.01s.02-.01.03-.02c.01,0,.02,0,.04-.02.04-.02.08-.04.11-.07.04-.02.08-.04.12-.07.08-.05.16-.09.24-.14.03-.03.08-.06.12-.09.04-.03.08-.06.13-.09.08-.06.16-.12.24-.18.12-.09.23-.19.34-.29.06-.05.12-.1.17-.16.06-.04.11-.1.17-.16l.21-.21s.02-.03.04-.05c.08-.08.15-.18.22-.27.02-.02.04-.04.05-.06.03-.03.06-.07.09-.1.07-.1.15-.2.22-.3,1.31-1.82,1.96-4.14,1.96-6.96v-23.99c0-.14,0-.28-.01-.41h.01ZM659.79,226.34h0c0,1.02-.52,1.56-1.57,1.65l-5.63.51h-.23c-.92,0-1.41-.49-1.46-1.47l-.72-15.26v-.16c0-1.04.53-1.56,1.59-1.56h6.4c1.08,0,1.62.53,1.62,1.62v14.67Z"/>
        <path class="cls-1" d="M634.49,197.65v40.24c0,.63-.27.98-.81,1.07-.08.02-.18.02-.28.02h-11.52c-.72,0-1.09-.35-1.09-1.06v-.08l.76-20.49.73-19.75c.05-1.4.78-2.1,2.17-2.1h7.89c.82,0,1.41.23,1.76.7.26.34.39.83.39,1.45h0Z"/>
        <path class="cls-1" d="M618.61,197.6v12.34c0,.72-.6,1.09-1.83,1.09h-.05l-2.36-.03-2.5-.03h-.02c-.68,0-1.03.35-1.07,1.04l-1.27,25.14c-.05,1.22-.69,1.83-1.91,1.83h-6.82c-1.26,0-1.89-.63-1.89-1.88v-25.09c0-.72-.36-1.09-1.09-1.09h-3.87c-1.26,0-1.89-.63-1.89-1.89v-11.43c0-1.26.63-1.89,1.89-1.89h22.8c1.26,0,1.88.63,1.88,1.89h0Z"/>
        <path class="cls-1" d="M589.28,197.17v11.86c0,1.09-.54,1.62-1.62,1.62h-8.78c-1.26,0-1.89.64-1.89,1.89v10.54c0,1.25.63,1.89,1.89,1.89h7.69c1.08,0,1.62.53,1.62,1.62v10.88c0,1.08-.54,1.62-1.62,1.62h-9.39c-2.73,0-5.07-.98-7.01-2.92l-.32-.32c-.33-.33-.63-.67-.91-1.03-1.34-1.72-2.01-3.72-2.01-5.98v-23.57c0-2.59.96-4.95,2.87-7.09l.21-.24c.13-.14.26-.28.39-.41,1.62-1.62,3.68-2.43,6.17-2.43h.45l7.85.33,2.84.12c1.05.04,1.57.57,1.57,1.62h0Z"/>
        <path class="cls-1" d="M563,197.65v29.75c0,2.67-.82,5.11-2.47,7.32-.02.02-.03.04-.05.07l-.74.98c-1.63,2.14-3.84,3.21-6.64,3.21h-8.82c-2.74,0-5.08-.96-7.01-2.88-.68-.68-1.25-1.42-1.69-2.21-.8-1.42-1.21-3.02-1.22-4.78l-.16-31.46v-.03c.01-1.42.72-2.12,2.15-2.12h5.6c1.43,0,2.15.71,2.15,2.15v28.24c0,1.24.57,1.86,1.72,1.86h.16l3.43-.16c1.22-.05,1.85-.67,1.91-1.85l1.06-28.22c.05-1.35.79-2.02,2.21-2.02h6.26c.6,0,1.08.12,1.43.38.48.35.72.94.72,1.77Z"/>
        <path class="cls-1" d="M527.61,201.34h0l-.8-.81-2.12-2.11c-1.95-1.95-4.29-2.92-7.03-2.92h-15.21c-.09,0-.18,0-.26.01-.15.01-.28.02-.41.05-.05.01-.1.02-.14.03-.05.02-.09.03-.12.04-.03.01-.05.02-.08.03-.01,0-.03,0-.04,0-.01.01-.02.01-.03.01-.05.03-.1.04-.14.07-.02.01-.05.02-.07.04-.02.01-.05.03-.07.04-.01,0-.02,0-.03.02-.04.03-.08.06-.12.09-.05.04-.09.08-.13.12-.02.02-.04.05-.06.07-.03.03-.06.06-.08.1-.01.01-.02.02-.02.04-.04.05-.07.1-.1.16-.03.05-.05.1-.07.15-.02.04-.03.07-.04.1-.09.27-.14.6-.14.97v38.2c0,.08,0,.16.01.25,0,.08.01.16.02.24.01.06.02.12.04.18.01.05.01.09.03.14.01.05.02.09.04.13v.02c.03.08.07.16.11.24.02.04.04.08.06.12l.03.03s.06.09.09.13c.01.02.03.04.04.06.04.05.09.1.14.14.04.04.07.06.11.09.08.06.17.12.27.17.06.03.12.06.19.09.04.02.08.03.12.05.24.07.5.12.79.15l14,1.04c.22.01.45.02.68.02,2.38,0,4.49-.93,6.35-2.79l4.19-4.19c1.95-1.95,2.92-4.29,2.92-7.04v-16.78c0-2.72-.97-5.06-2.92-7ZM516.49,227.94l-3.85,1.3c-.11.04-.23.05-.37.05-.69,0-1.04-.36-1.04-1.09v-.05l.53-21.03c.02-.74.35-1.11.99-1.11.1,0,.21.01.31.03l3.35.58c1.12.19,1.67.95,1.67,2.26v16.69h0c0,1.23-.53,2.01-1.59,2.37Z"/>
        <path class="cls-1" d="M496.31,203.61h0c-.01-.13-.04-.28-.06-.42-.03-.14-.06-.28-.09-.42-.01-.05-.03-.1-.04-.16-.03-.12-.07-.24-.11-.36s-.08-.25-.13-.36c-.06-.14-.12-.27-.18-.4-.05-.1-.1-.2-.16-.3-.02-.03-.03-.06-.05-.09-.02-.03-.03-.06-.05-.08-.04-.08-.09-.15-.14-.22-.01-.02-.02-.05-.04-.07-.07-.1-.14-.2-.22-.29-.01-.02-.02-.03-.04-.05-.04-.05-.07-.09-.11-.14-.05-.06-.11-.13-.17-.19-.02-.03-.05-.06-.07-.08-.03-.03-.05-.06-.08-.08-.05-.06-.1-.11-.16-.17-.02-.02-.05-.05-.08-.07-.02-.03-.05-.05-.08-.07-.06-.05-.11-.1-.17-.15v-.02c-.12-.08-.22-.17-.34-.25-.01,0-.03-.03-.05-.04-.06-.05-.12-.09-.18-.14-.07-.04-.13-.09-.2-.13-.07-.04-.14-.09-.21-.13-.07-.05-.14-.09-.21-.13-.05-.04-.11-.07-.16-.1l-.42-.24c-2.34-1.31-4.91-1.97-7.73-1.97h-10.41c-2.74,0-5.18.86-7.32,2.58l-.21.13c-.15.12-.29.24-.43.36-.09.08-.17.16-.25.24-.06.06-.13.12-.19.18-.14.15-.27.29-.4.44-.07.08-.14.16-.2.24-.01,0-.01.02-.02.03-.07.09-.14.18-.21.27-.07.09-.13.19-.19.29-.04.05-.08.11-.11.17-.07.11-.14.22-.2.33-.07.13-.15.27-.21.41-.07.13-.13.27-.19.41,0,.01-.01.02-.01.03s0,0-.01.02c-.04.1-.07.2-.11.31-.01.02-.02.04-.02.07,0,.01,0,.02-.02.03-.05.15-.09.29-.13.43,0,0-.01.03-.01.04-.04.15-.08.28-.11.43-.02.13-.05.25-.07.38-.02.11-.03.21-.04.32-.02.11-.03.22-.04.32-.02.14-.03.29-.03.43-.01.17-.02.34-.02.51v23.76c0,2.76.81,4.99,2.42,6.68.11.11.22.23.34.33.05.05.11.1.16.15.11.1.22.19.34.28,0,0,.01,0,.01.01.09.07.19.15.29.21.14.1.27.19.41.27.1.07.2.13.31.19.14.07.28.15.43.22.17.08.34.15.51.22.15.06.31.11.46.17.02.01.05.01.07.02.04,0,.08.02.12.04.15.04.29.08.45.11.01.01.03.01.05.02.01,0,.02,0,.04.01.01,0,.03,0,.04,0,.07.01.14.03.21.04.09.02.18.04.27.06.02,0,.05,0,.08,0,.12.02.23.04.34.05.09,0,.17.02.25.03h.05c.2.02.4.04.61.05h.05c.09.01.18.01.27.01h16.55c.07,0,.13,0,.2-.01.12,0,.24,0,.36-.03.14-.01.27-.03.4-.05.05,0,.09-.01.13-.02.14-.02.27-.05.4-.08.15-.03.29-.06.43-.1h.01c.13-.04.25-.08.38-.12.07-.03.14-.05.21-.08.2-.08.39-.16.58-.25.1-.04.19-.09.28-.14.14-.08.26-.16.4-.24.13-.08.26-.17.38-.27.09-.06.17-.12.25-.19.1-.07.21-.16.31-.26,0,0,.01,0,.02-.02.05-.03.09-.08.13-.12h.01c.07-.08.15-.15.21-.23.07-.06.13-.13.2-.21.09-.09.17-.19.25-.28.1-.14.21-.28.31-.42,1.31-1.82,1.97-4.14,1.97-6.96v-23.99c0-.33-.02-.65-.06-.96ZM484.79,226.34c0,1.02-.52,1.56-1.57,1.65l-5.62.51h-.24c-.92,0-1.41-.49-1.46-1.47l-.72-15.26v-.16c0-1.04.54-1.56,1.6-1.56h6.39c1.08,0,1.62.53,1.62,1.62v14.67Z"/>
        <path class="cls-1" d="M464,243.28l-7.98-15.15-2.37-4.49,2.37-2.43.9-.92c1.93-1.98,2.89-4.33,2.89-7.06v-7.99c0-.31-.01-.62-.04-.92,0-.09-.01-.17-.02-.26,0-.03-.01-.07-.01-.1-.01-.03-.01-.07-.02-.1-.01-.09-.02-.18-.03-.27-.01-.08-.03-.17-.04-.25-.01-.05-.02-.1-.03-.15-.02-.08-.04-.17-.06-.26-.02-.08-.04-.17-.06-.25-.01-.04-.03-.09-.04-.13-.03-.12-.07-.23-.11-.35-.02-.07-.04-.13-.06-.2-.02-.06-.05-.13-.07-.19-.05-.13-.1-.26-.16-.39s-.12-.25-.18-.38c-.06-.12-.12-.24-.19-.36-.27-.49-.59-.95-.97-1.38-.04-.04-.08-.09-.12-.13-.04-.05-.08-.1-.13-.14-.01-.02-.02-.03-.04-.05-.14-.15-.3-.31-.46-.46-1.86-1.69-4.16-2.54-6.9-2.54h-16.43c-.09,0-.18,0-.26.01-.09,0-.17.01-.25.02-.07.01-.15.03-.22.04-.03.01-.06.02-.09.03-.09.02-.17.04-.25.08-.05.02-.1.04-.14.06-.04.02-.08.04-.12.07-.03.02-.06.04-.1.07-.07.04-.13.1-.19.15-.04.04-.07.08-.1.12-.02.03-.04.06-.06.09-.02.02-.04.05-.06.09-.02.03-.04.06-.06.08-.01.03-.03.07-.05.1,0,.01,0,.02-.01.03-.02.05-.04.11-.06.17-.01.02-.02.05-.03.08-.03.11-.05.23-.07.35-.01.08-.02.16-.02.24-.01.09-.01.18-.01.26v38.61c0,1.43.71,2.14,2.15,2.14h4.72c1.37,0,2.1-.69,2.2-2.09l.99-12.21,13.06,19.8c.21.32.5.48.87.48h7.54c.08,0,.16,0,.22-.02h.05s.03-.01.04-.01h.01s.02-.01.03-.01c.04,0,.08-.01.11-.03.02,0,.04,0,.05-.02h.01s.07-.03.11-.05c.03-.01.05-.03.07-.04.03-.02.06-.04.09-.06.02-.02.04-.04.05-.06.03-.02.05-.05.06-.08.02-.02.04-.04.05-.06.03-.05.05-.11.07-.18.02-.05.04-.11.05-.18v-.02s.01-.04.01-.07c.01-.06.01-.13.01-.2,0-.18-.04-.33-.11-.48ZM446.8,214.32h0s-2.92,3.13-2.92,3.13c-.23.25-.5.37-.82.37-.69,0-1.03-.35-1.03-1.06v-.08l.26-7.01c.04-.76.38-1.14,1.03-1.14.24,0,.42.02.56.06l2.34.58c1.31.32,1.96,1.09,1.96,2.33,0,.89-.46,1.83-1.38,2.82Z"/>
        <path class="cls-1" d="M424.85,201.15h0l-.75-.53s-.01,0-.02,0c-.09-.07-.19-.14-.28-.2-.09-.06-.19-.12-.28-.18h-.01s-.09-.06-.13-.08c-.08-.06-.18-.12-.27-.17-.1-.06-.19-.11-.28-.16,0,0-.01,0-.02,0-.12-.07-.23-.13-.35-.18-.11-.06-.23-.12-.35-.17-.17-.08-.35-.16-.52-.23-.17-.08-.35-.15-.53-.21-.21-.08-.42-.15-.64-.21-.15-.05-.29-.09-.44-.13-.27-.07-.56-.14-.84-.19-.13-.03-.25-.05-.39-.06-.07-.02-.15-.03-.22-.04-.21-.03-.42-.05-.63-.07-.09,0-.19-.02-.28-.03-.1,0-.2-.01-.29-.01-.24-.02-.47-.02-.71-.02h-17.28c-1.61,0-2.42.8-2.42,2.41v36.43c0,1.25.63,1.88,1.89,1.88h5.97c1.26,0,1.88-.63,1.88-1.88v-10.62c0-.73.37-1.09,1.09-1.09l9.91.05h.05c.15,0,.3,0,.45-.01.15,0,.3-.01.45-.03.05,0,.1,0,.15,0,.06-.01.11-.01.16-.02.07-.01.14-.01.21-.02.12-.02.24-.04.35-.06.12-.02.23-.04.34-.07.12-.02.23-.05.34-.08.09-.02.19-.05.28-.08.09-.02.17-.04.26-.07.17-.06.34-.12.5-.19.12-.04.22-.08.33-.13.26-.11.52-.24.77-.38.06-.03.12-.07.19-.11.05-.03.12-.07.18-.11.11-.07.23-.14.33-.22h.01c.13-.09.26-.18.38-.28.12-.08.24-.18.35-.27.11-.1.23-.2.34-.3.19-.16.38-.34.56-.53l.69-.72c1.91-1.98,2.86-4.33,2.86-7.06v-7.03c0-2.75-1.11-4.91-3.34-6.51ZM417.31,213.07c0,1.42-.7,2.32-2.1,2.71l-6.21,1.73c-.17.05-.33.08-.45.08-.48,0-.73-.36-.74-1.07l-.14-7.62v-.05c0-.57.22-.85.67-.85.11,0,.23.02.37.05l6.53,1.31c1.38.28,2.07,1.16,2.07,2.62v1.09Z"/>
        <path class="cls-1" d="M721.36,208.07c-1.12,0-1.68.44-1.68,1.32s.62,1.52,1.87,1.82l5.25,1.27c2.75.66,4.74,1.71,5.97,3.14.88,1.03,1.32,2.95,1.32,5.78v8.72c0,2.82-1.08,5.05-3.25,6.68-1.94,1.47-4.38,2.2-7.32,2.2h-15.02c-1.3,0-1.95-.65-1.95-1.95v-7.48c0-1.3.65-1.95,1.95-1.95h12.27c1.3,0,1.95-.74,1.95-2.23,0-1.23-.5-2.02-1.49-2.37l-6.71-2.31c-5.32-1.83-7.98-5.45-7.98-10.86v-5.17c0-2.93.83-5.19,2.49-6.78s3.96-2.38,6.89-2.38h17.11c1.3,0,1.95.65,1.95,1.95v8.66c0,1.3-.65,1.95-1.95,1.95h-11.69.02Z"/>
      </g>
      <path class="cls-1" d="M734.19,163.73l-36.09-137.09c-1.84-6.94-7.19-11.07-14.3-11.07h-31.92c-6.94,0-12.18,3.82-14.36,10.48-.01.01-21.8,68.22-34.65,108.4v-.96c0-9.07-5.86-14.92-14.92-14.92h-24.35l-1.28-83.08c-.12-8.83-5.61-14.54-13.99-14.54h-18.47c-8.33,0-13.86,5.67-14.08,14.45l-2.22,87.08c-2.59-2.51-6.25-3.91-10.7-3.91h-24.35l-1.27-83.08c-.12-8.83-5.62-14.54-14-14.54h-18.46c-8.33,0-13.86,5.67-14.09,14.45l-2.08,81.77V30.12c0-9.06-5.85-14.92-14.92-14.92h-27.56c-8.92,0-14.67,5.54-15,14.46l-4.69,126.79-18.01-34.17,7.66-7.85c8.1-8.32,12.21-18.37,12.21-29.84v-27.93c0-11.64-4.14-21.36-12.33-28.94-7.88-7.2-17.68-10.85-29.13-10.85h-57.44c-9.06,0-14.92,5.86-14.92,14.92v45.58c-1.5-.99-3.07-1.83-4.67-2.51-1.01-.43-2.06-.82-3.09-1.14-.59-.17-1.17-.34-1.76-.47-1.63-3.08-4.13-6.47-7.95-9.32-2.68-2.02-5.76-3.56-9.04-4.54-1.11-2.08-2.01-4.23-2.68-6.43-1.09-3.54-2.69-10.73-1.83-15.26.11-.53.22-.88.3-1.1.15-.02.33-.03.57-.03.16,0,.33,0,.5,0l8.06.5h.46c2.93,0,5.6-1.73,6.78-4.44,1.24-2.84.58-6.16-1.66-8.31l-5.82-5.58c-1.45-1.39-5.79-5.13-12.35-6.95,1.57-2.13,1.91-4.97.79-7.45C219.88,1.67,217.23-.01,214.35-.01c-.34,0-.67.03-1.01.07l-9.9,1.36c-3.84.52-9.2,1.8-14.79,4.85-1.3-.98-2.86-1.48-4.44-1.48-1.2,0-2.4.29-3.51.88l-6.98,3.76c-3.94,2.12-7.65,4.64-11.02,7.49-2.23,1.87-4.33,3.92-6.26,6.08-2.59,2.9-4.95,6.07-7.01,9.45-8.37,13.67-11.1,28.9-11.7,40.9-1.35.4-2.67.91-3.93,1.52-3.25,1.56-6.18,3.77-8.72,6.59-.49.54-.89,1.03-1.24,1.48-.57.75-1.09,1.5-1.55,2.25-1.94-.93-4.23-1.43-6.79-1.43h-41.29c-6.49,0-11.02,4.53-11.02,11.03v28.2c0,4.24,1.96,7.72,5.31,9.73l-9.94-1.13c-.24-.03-.43-.06-.58-.09,0-.14-.02-.31-.02-.53v-48.25c0-5.85,1.69-7.53,7.53-7.53h39.06c8.51,0,14-5.49,14-14v-32c0-8.5-5.49-13.99-14-13.99h-61.6c-11.73,0-21.61,4.54-29.35,13.5l-2.43,2.8C3.76,40.09,0,50.24,0,61.67v78.12c0,11.52,4.42,21.44,13.15,29.48l1.21,1.12c8.36,7.7,18.51,11.61,30.16,11.61h35.63c11.7,0,21.58-4.46,29.4-13.27l8.53-9.64c7.57-8.54,11.42-18.65,11.42-30.06v-3.46c1.2.92,2.49,1.75,3.85,2.49,1.77.96,3.68,1.75,5.66,2.34,1.52,9.79,5.47,22.12,15.05,33.16,5.2,5.99,10.37,9.63,12.98,11.25,3.41,2.14,15.8,9.15,32.12,9.15,5.82,0,11.56-.9,17.08-2.67,12.68-4.05,22.42-11.23,28.95-21.32,8.1-12.56,8.54-25.47,7.34-34.44.68-.4,1.33-.83,1.95-1.29v42.47c0,9.06,5.86,14.92,14.92,14.92h16.52c8.65,0,14.43-5.44,15.08-14.15l1.71-21.24,33.84,51.3c2.1,3.15,5.46,4.96,9.22,4.96h26.35c6.6,0,11.21-4.6,11.21-11.2,0-1.78-.39-3.46-1.15-4.99-.02-.04-.05-.09-.07-.14l-2.21-4.17h37.5c5.74,0,9.97-3.49,10.98-8.73,2.05,5.44,7.06,8.73,13.89,8.73h60.59c5.4,0,9.66-2.08,12.22-5.68,2.56,3.6,6.84,5.68,12.28,5.68h60.59c3.57,0,6.65-.92,9.07-2.59,2.08,1.59,4.91,2.59,8.56,2.59h23.66c6.72,0,12-3.56,14.5-9.79l4.99-12.65,25.75,3.71,5.42,10.71c2.61,5.09,7.25,8.02,12.72,8.02h28.48c10.26,0,13.9-6.89,13.9-12.79,0-1.72-.27-3.56-.81-5.48h0Z"/>
      <path d="M122.09,129.03c0,9.59-3.18,17.97-9.55,25.15l-8.54,9.65c-6.37,7.18-14.32,10.76-23.85,10.76h-35.63c-9.77,0-18.16-3.21-25.14-9.65l-1.21-1.11c-7.18-6.62-10.76-14.63-10.76-24.04V61.67c0-9.65,3.12-18.1,9.37-25.33l2.41-2.79c6.31-7.29,14.23-10.95,23.76-10.95h61.6c4.4,0,6.59,2.2,6.59,6.59v32.01c0,4.4-2.19,6.59-6.59,6.59h-39.06c-9.96,0-14.94,4.98-14.94,14.94v48.25c0,4.77,2.38,7.42,7.15,7.98l18.19,2.04h.74c2.29,0,3.43-1.26,3.43-3.8v-8.91l-6.12-1.3c-2.23-.5-3.35-1.82-3.35-3.99v-28.2c0-2.42,1.21-3.62,3.62-3.62h41.29c1.53,0,2.79.26,3.79.8,1.87.99,2.8,2.92,2.8,5.78v31.27h0Z"/>
      <path d="M254.48,113.85c-.05.08-.11.16-.17.24-.87,1.19-1.89,2.28-3.01,3.25-1.27,1.08-2.73,2.01-4.32,2.77-.9.42-1.83.78-2.8,1.08,1.74,7.01,3.53,21.21-5.21,34.76-5.57,8.61-13.98,14.77-24.99,18.29-4.78,1.53-9.76,2.31-14.82,2.31-14.32,0-25.19-6.13-28.19-8.01-2.26-1.41-6.74-4.57-11.32-9.84-9.98-11.5-13.14-24.65-13.91-34.46-2.4-.25-5.62-.93-8.87-2.69-1.47-.8-2.82-1.75-4.03-2.82s-2.28-2.26-3.19-3.54c-.05-.07-.11-.14-.15-.22-2.72-3.89-4.07-8.61-4.02-14.01.02-1.82.06-6.08,2.33-10.5.52-1,1.14-2.01,1.91-3.01.24-.32.54-.66.88-1.04,1.87-2.08,4.02-3.71,6.4-4.85,1.94-.94,4.03-1.53,6.17-1.73.56-.06,1.12-.08,1.67-.08h.16c-.08-10.86,1.52-28.36,10.74-43.42,1.84-3.01,3.93-5.83,6.22-8.38,1.71-1.92,3.57-3.72,5.52-5.37,2.97-2.51,6.24-4.74,9.74-6.61l6.99-3.76-2.82,7.42c-.37.97-.55,2.01-.54,3.04,2.09-2.84,4.62-5.36,7.49-7.45,5.94-4.33,12.03-5.9,16.1-6.46l9.91-1.35-7.57,6.53c-1.72,1.48-3.07,3.24-4.01,5.21-.33.68-.58,1.35-.79,2.01,2.52-1.5,5.81-2.78,9.82-2.96.32-.02.63-.03.95-.03,7.96,0,13.32,4.54,14.76,5.93l5.84,5.59-8.07-.5c-.32-.02-.64-.03-.95-.03-2.04,0-3.69.44-4.91,1.29-.47.33-.89.71-1.26,1.17-.93,1.14-1.59,2.71-1.97,4.68-1.37,7.17,1.44,16.95,2.02,18.83,1.15,3.75,2.82,7.35,4.97,10.74,3.45.58,6.67,1.94,9.38,3.98,4.23,3.16,6.27,7.24,7.24,10.04,1.6.13,3.2.44,4.74.91.78.24,1.56.53,2.34.86,1.65.7,3.24,1.62,4.72,2.72l.14.1.13.13c.89.84,1.71,1.76,2.43,2.73.06.08.13.16.18.24.43.59.8,1.16,1.13,1.74,4.25,7.4,3.76,17.66-1.13,24.53h0Z"/>
      <path d="M372.12,195.1h-26.35c-1.3,0-2.32-.56-3.06-1.67l-45.66-69.22-3.43,42.68c-.37,4.89-2.94,7.33-7.7,7.33h-16.52c-5,0-7.51-2.5-7.51-7.51V31.79c0-5.01,2.51-7.52,7.51-7.52h57.44c9.59,0,17.63,2.97,24.12,8.91,6.62,6.12,9.93,13.95,9.93,23.48v27.93c0,9.52-3.37,17.75-10.11,24.68l-11.41,11.69,26.56,50.41v.02h0l4.59,8.71,5.02,9.52c.25.5.38,1.05.38,1.68,0,2.53-1.27,3.8-3.81,3.8h.01Z"/>
      <path d="M421.21,170.79c0,2.54-1.27,3.8-3.81,3.8h-40.27c-.43,0-.83-.03-1.19-.11-1.74-.35-2.61-1.55-2.61-3.6v-.28l.04-1.01v-.02l5.16-139.64c.18-4.88,2.72-7.33,7.6-7.33h27.56c5.01,0,7.52,2.51,7.52,7.52v140.67h0Z"/>
      <path d="M510.38,167.08c0,5.01-2.51,7.51-7.52,7.51h-60.59c-5.01,0-7.52-2.44-7.52-7.33v-.37l3.35-131.3c.12-4.82,2.35-7.24,6.68-7.24h18.46c4.33,0,6.53,2.42,6.59,7.24l1.39,90.38h31.64c5.01,0,7.52,2.5,7.52,7.52v33.59h0Z"/>
      <path d="M595.46,167.08c0,2.89-.84,4.95-2.51,6.17-1.22.9-2.89,1.34-5,1.34h-60.59c-5.01,0-7.52-2.44-7.52-7.33v-.37l3.34-131.3c.13-4.82,2.35-7.24,6.68-7.24h18.47c4.33,0,6.52,2.42,6.59,7.24l1.39,90.38h31.64c5.01,0,7.51,2.5,7.51,7.52v33.59h0Z"/>
      <path d="M721.1,174.59h-28.48c-2.73,0-4.77-1.33-6.13-3.99l-7.14-14.1-35.36-5.1-7.14,18.09c-1.36,3.4-3.9,5.1-7.61,5.1h-24.18c-.06,0-.11,0-.17,0-.08,0-.16,0-.25,0h-.01c-.07,0-.15-.02-.23-.03h-.15c-.14-.02-.27-.04-.4-.06-.07,0-.13-.02-.2-.04-.08,0-.17-.03-.26-.05l-.12-.03c-.13-.04-.26-.07-.39-.12-.08-.02-.16-.05-.24-.08-.08-.02-.16-.05-.23-.09-.06-.02-.12-.05-.18-.08-.09-.04-.17-.08-.25-.13-.12-.05-.23-.12-.34-.2-.07-.05-.14-.1-.2-.15-.07-.05-.14-.1-.2-.16-.05-.05-.1-.09-.14-.14-.04-.03-.07-.06-.1-.1-.04-.04-.07-.07-.11-.12-.02-.02-.04-.05-.06-.08-.06-.07-.12-.15-.17-.23-.01-.02-.03-.03-.04-.05-.05-.08-.11-.17-.15-.26-.03-.06-.07-.13-.1-.2-.04-.07-.07-.15-.1-.22-.03-.08-.06-.15-.08-.23-.02-.06-.05-.13-.07-.2-.05-.17-.08-.36-.11-.54-.02-.08-.03-.17-.04-.26-.02-.1-.03-.22-.04-.33v-.02c-.01-.15-.01-.32-.01-.49,0-1.24.28-2.72.84-4.45l2.11-6.61,41.68-130.45c1.18-3.58,3.62-5.38,7.33-5.38h31.92c3.77,0,6.16,1.86,7.14,5.57l36.1,137.14c.37,1.3.55,2.48.55,3.53,0,3.59-2.16,5.38-6.49,5.38v-.02Z"/>
      <path class="cls-1" d="M313.38,70.39l-8.17-2.04c-.49-.12-1.15-.19-1.95-.19-2.29,0-3.5,1.33-3.62,3.99l-.93,24.5v.28c0,2.47,1.2,3.71,3.62,3.71,1.11,0,2.07-.43,2.87-1.3l10.21-10.95c3.21-3.47,4.82-6.74,4.82-9.83,0-4.33-2.29-7.05-6.87-8.17h.02Z"/>
      <path class="cls-1" d="M148.51,114.8c-4,.43-7.54-.81-10.23-3.01-5.56-4.52-7.53-13.09-2.52-19.49.68-.88,1.54-1.68,2.52-2.36,2.93-2.06,6.9-3.07,10.22-1.97v7.6c-6.94-2.02-11.13,1.9-8.02,8.51,1.64-3.24,3.19-7.17,7.35-4.05.28,4.94.86,9.84.68,14.77Z"/>
      <path class="cls-1" d="M227.72,83.3c-5.94-4.11-11.92-1.28-18,.64-2.29.73-4.6,1.32-6.92,1.37-8.89.18-17.55-6.65-25.86-4.99-1.94.39-3.86,1.24-5.75,2.74-7.56,5.98-6.25,15.46-1.08,22.5.6.82,2.45,2.28,2.61,2.85.2.79-1.12,3.6-1.26,4.87-.08.68-.39,3.53.86,3.1,1.17-.86,2.5-1.68,3.86-2.4,1.05-.56,2.12-1.06,3.16-1.49,1.01-.42,4.6-1.21,4.8-1.34.19-.14.85-2.4,1.22-3.07,2.58-4.68,7.35-6.14,12.4-4.47,1.5.5,4.88,2.67,5.94,2.67s3.99-2.15,6.12-2.78c.17-.05.34-.09.5-.12,5.5-1,10.98,1.22,12.19,6.93.21,1.03.08,3.72.27,3.99.18.23,4.39,2.25,4.96,3.19-.05-1.52.17-3.08-.1-4.59-.2-1.15-1.77-3.53-1.65-4.07.07-.41,4.29-5.23,5.05-6.69,3.38-6.42,3.08-14.42-3.32-18.84h0Z"/>
      <path d="M190.69,96.76c-.17.15-.42,2.56-2.36,3.74-4.59,2.8-8.01-2.24-7.3-6.47l-5.83-.9h-.11v-2.47s0-.21,0-.21l21.94,4.69c-.35,3.96-5.25.7-6.33,1.62Z"/>
      <path d="M196.6,100.73c3.26-2.96,8.86-2.85,12.37-.21-4.18.91-8.16.16-12.37.21Z"/>
      <path d="M226.35,93.56l-5.43.96c.79,7.25-8.19,9.68-9.68,2.21-.16-.13-.72-.04-1.42.1-1.25.27-2.92.69-3.54.27-.45-.31-.89-2.46.27-2.53l3.27-.6,16.55-3.08-.02,2.67h0Z"/>
      <path class="cls-1" d="M209.32,141.5c-5.72.13-18.44,0-24.68-3.23-2.18-1.11-4.29-2.36-6.25-3.98-.28-.24-.72-.78-1.31-1.06-.24-.11-.5-.19-.79-.19-.97,0-1.74.77-2.22,1.37-.03-.32-.27-2.84,1.48-4.39.39-.35.84-.61,1.34-.8,1.9-.74,4.44-.35,6.4,1.37-.34-.15-1.37-.54-2.24-.23-.18.05-.47.16-.6.43,0,0-.14.29.03.71.19.49,3.51,3.9,10.21,5.27,4.76.97,11.97,1.07,19.13.82,10.23-.37,20.33-1.47,22.97-1.76-.37-4.66-1.84-7.99-2.9-9.93-2.1-3.81-6.03-8.41-8.22-7.64-1.26.42-1.13,2.34-2.66,2.82-1.31.42-2.84-.52-4.08-1.58,3.27-2.71,5.81-6.88,2.74-10.72-2.17-2.73-5.04-2.43-7.85-1.28-2.19.88-4.34,2.26-6.12,3.13-4.07-2.26-10.94-6.76-14.63-1.61-2.52,3.54-.56,8.01,2.95,9.82.52.71-2.36,2.74-2.91,2.63-1.51-.3-4.38-5.18-5.09-6.61-2.81.82-5.38,1.9-7.64,3.29-4.71,2.89-8.08,7.13-9.35,13.19-3.04,14.45,7.61,27.3,21.59,30.85,14.02,3.56,25.71-1.19,27.34-2.05,12.74-6.67,16.27-18.78,16.83-20.82-8.32,1.27-15.35,1.83-20.55,2.09,0,0-1.11.06-2.92.09h0Z"/>
      <path d="M206.44,115.71c.4-.75,1.85-2.13,3.38-3.16.28-.18.57-.36.85-.52.14-.08.27-.15.41-.22.14-.08.27-.14.41-.19.07-.03.14-.06.2-.09.07-.03.13-.05.2-.07.11-.05.21-.08.32-.1.06-.02.11-.03.17-.05.06-.01.14-.02.21-.03.23-.04.45-.03.63.02,1.49.43,2.59,2.51,1.46,3.94-.02.04-.08.09-.16.15-.02.02-.05.05-.08.07-.28.21-.74.55-1.28.91-.07.04-.13.08-.19.12-1.11.75-2.48,1.6-3.15,1.98-.05.02-.1.05-.14.07-.05.03-.1.05-.14.07s-.08.03-.1.04c-1.52.48-3.71-1.62-3-2.94h0Z"/>
      <path d="M207.63,127.74c.55,1.24.95,2.42,1.24,3.5s.47,2.06.58,2.89c-.54-.09-1.23-.16-2.01-.13-.71.04-1.31.14-1.8.26.22-1.5.37-3.42.19-5.64-.18-2.34-.68-4.31-1.17-5.81.95,1.21,2.04,2.85,2.97,4.93h0Z"/>
      <path d="M193.35,111.86c.42-.35.95-.56,1.56-.52,1.09.05,6.1,3.6,6.52,4.36.54.99-.09,2.19-1.03,2.85-.56.39-1.23.58-1.83.41-.68-.21-5.64-3.23-5.87-3.7-.59-1.17-.25-2.63.65-3.4Z"/>
      <path class="cls-1" d="M245.71,111.64c-.41.31-.85.61-1.31.88l-6.87-7.76c.95-3.02.66-8.67,4.66-4.28.92,1.01,1.81,4.49,2.56,2.52,1.67-4.37-1.27-8.39-5.99-8.34l-.93-7.14c3.15,0,5.81.9,7.88,2.37,6.89,4.9,7.58,16.1,0,21.75h0Z"/>
      <path class="cls-1" d="M651.79,127.64l15.59,1.58c.56.06,1.12.09,1.67.09,3.34,0,5.01-1.23,5.01-3.71,0-.56-.06-1.15-.19-1.76l-9.37-29.6c-.56-1.79-1.7-2.69-3.44-2.69-1.92,0-3.18,1.02-3.8,3.06l-8.91,28.12c-.18.62-.28,1.17-.28,1.67,0,1.92,1.23,3,3.71,3.25h0Z"/>
    </g>
  </g>
</svg>