<svg width="146" height="48" viewBox="0 0 146 48" fill="none" xmlns="http://www.w3.org/2000/svg">
<path d="M13.8422 27.013H13.9927C14.4563 27.013 14.686 26.7574 14.686 26.2444V24.4438L13.448 24.1804C12.9983 24.0813 12.7725 23.8119 12.7725 23.3741V17.6713C12.7725 17.184 13.0162 16.9403 13.5035 16.9403H21.8508C22.7382 16.9403 23.1819 17.3841 23.1819 18.2715V24.5924C23.1819 26.5316 22.5381 28.2253 21.2506 29.6752L19.5253 31.6264C18.2377 33.0764 16.6293 33.8033 14.7039 33.8033H7.50149C5.5246 33.8033 3.83097 33.1536 2.41862 31.8522L2.17498 31.6264C0.724992 30.2893 0 28.669 0 26.7673V10.976C0 9.02486 0.631892 7.31736 1.89369 5.8555L2.38098 5.29293C3.65665 3.8172 5.25718 3.08032 7.18257 3.08032H19.6382C20.5256 3.08032 20.9693 3.52403 20.9693 4.41145V10.8829C20.9693 11.7703 20.5256 12.214 19.6382 12.214H11.7405C9.72796 12.214 8.71971 13.2203 8.71971 15.2348V24.9885C8.71971 25.9512 9.20106 26.49 10.1638 26.601L13.8402 27.013H13.8422Z" fill="#1B1B1B"/>
<path d="M74.4224 36.8439C74.472 36.943 74.4977 37.0559 74.4977 37.1807C74.4977 37.6937 74.2422 37.9492 73.7291 37.9492H68.4026C68.1392 37.9492 67.9332 37.8363 67.7846 37.6125L58.5558 23.6198L57.8625 32.2484C57.7872 33.2368 57.2683 33.73 56.3056 33.73H52.9658C51.9536 33.73 51.4465 33.2229 51.4465 32.2107V4.93637C51.4465 3.92415 51.9536 3.41705 52.9658 3.41705H64.5776C66.5169 3.41705 68.1412 4.01725 69.4545 5.21765C70.7915 6.45568 71.4611 8.03838 71.4611 9.96377V15.6092C71.4611 17.5346 70.7796 19.1985 69.4168 20.599L67.1091 22.9621L74.4244 36.8439H74.4224ZM63.2425 14.389C63.2425 13.5135 62.779 12.9628 61.8539 12.7389L60.2039 12.3269C60.1029 12.3012 59.9721 12.2893 59.8097 12.2893C59.3462 12.2893 59.1025 12.5587 59.0788 13.0955L58.8906 18.0476V18.1031C58.8906 18.6042 59.1342 18.8538 59.6215 18.8538C59.8473 18.8538 60.0395 18.7667 60.2019 18.5904L62.2659 16.3778C62.9157 15.6785 63.2405 15.0149 63.2405 14.389" fill="#1B1B1B"/>
<path d="M83.6513 33.0347C83.6513 33.5478 83.3958 33.8033 82.8828 33.8033H74.7415C74.2284 33.8033 73.9729 33.5537 73.9729 33.0526V32.9971L75.0227 4.55999C75.0604 3.57154 75.5734 3.07831 76.5619 3.07831H82.132C83.1442 3.07831 83.6513 3.58541 83.6513 4.59762V33.0347Z" fill="#1B1B1B"/>
<path d="M92.1492 4.24109C93.0248 4.24109 93.4685 4.72838 93.4804 5.70494L93.7616 23.9763H100.158C101.17 23.9763 101.677 24.4834 101.677 25.4956V32.286C101.677 33.2982 101.17 33.8053 100.158 33.8053H87.9082C86.896 33.8053 86.3889 33.3121 86.3889 32.3236V32.2484L87.0644 5.70494C87.0901 4.73036 87.5398 4.24109 88.4153 4.24109H92.1473H92.1492Z" fill="#1B1B1B"/>
<path d="M109.349 4.24109C110.224 4.24109 110.668 4.72838 110.68 5.70494L110.961 23.9763H117.358C118.37 23.9763 118.877 24.4834 118.877 25.4956V32.286C118.877 33.2982 118.37 33.8053 117.358 33.8053H105.108C104.096 33.8053 103.589 33.3121 103.589 32.3236V32.2484L104.264 5.70494C104.29 4.73036 104.739 4.24109 105.615 4.24109H109.347H109.349Z" fill="#1B1B1B"/>
<path d="M145.478 32.0027C145.553 32.2661 145.591 32.5038 145.591 32.7158C145.591 33.4408 145.153 33.8033 144.277 33.8033H138.519C137.968 33.8033 137.556 33.5339 137.281 32.9971L135.837 30.1466L128.69 29.1146L127.246 32.7732C126.971 33.4606 126.458 33.8053 125.707 33.8053H120.923C120.16 33.8053 119.778 33.4864 119.778 32.8485C119.778 32.5989 119.834 32.2978 119.946 31.9472L128.801 4.24105C129.039 3.51606 129.532 3.15356 130.283 3.15356H136.736C137.499 3.15356 137.98 3.52795 138.18 4.27869L145.478 32.0027ZM134.73 23.5445L132.836 17.5603C132.723 17.1978 132.491 17.0156 132.143 17.0156C131.754 17.0156 131.499 17.2216 131.374 17.6356L129.573 23.3186C129.536 23.4434 129.518 23.5563 129.518 23.6554C129.518 24.0436 129.768 24.2615 130.269 24.311L133.42 24.63C133.533 24.6418 133.646 24.6478 133.757 24.6478C134.432 24.6478 134.769 24.3982 134.769 23.897C134.769 23.7841 134.757 23.6653 134.732 23.5405" fill="#1B1B1B"/>
<path d="M40.8412 25.6244C40.7322 25.6066 40.5936 25.5927 40.4351 25.5987C40.2925 25.6066 40.1697 25.6264 40.0726 25.6502C40.1182 25.3471 40.1459 24.9589 40.1122 24.5112C40.0746 24.0378 39.9736 23.6396 39.8745 23.3365C40.0667 23.5802 40.2865 23.911 40.4747 24.3329C40.5856 24.5825 40.6669 24.8222 40.7243 25.0401C40.7837 25.258 40.8194 25.4561 40.8412 25.6244Z" fill="#CC3333"/>
<path d="M39.0128 22.4729C38.8999 22.5522 38.7632 22.5898 38.6424 22.5561C38.5037 22.5145 37.5034 21.9025 37.4559 21.8094C37.337 21.5717 37.4044 21.2765 37.5886 21.122C37.6718 21.0507 37.7807 21.0091 37.9035 21.017C38.1234 21.0269 39.1356 21.744 39.2208 21.8985C39.3297 22.0986 39.203 22.3422 39.0148 22.4749" fill="#CC3333"/>
<path d="M41.901 21.8054C41.901 21.8054 41.8852 21.8232 41.8693 21.8371C41.8634 21.841 41.8574 21.847 41.8515 21.8509C41.796 21.8945 41.7009 21.9618 41.592 22.0351C41.5781 22.0431 41.5662 22.053 41.5544 22.0609C41.3305 22.2114 41.0552 22.3838 40.9185 22.461C40.9086 22.467 40.8987 22.4709 40.8908 22.4749C40.8809 22.4828 40.869 22.4868 40.863 22.4907C40.8531 22.4947 40.8472 22.4967 40.8412 22.4987C40.5342 22.5957 40.0925 22.1698 40.2351 21.9044C40.3163 21.7539 40.6095 21.4746 40.9185 21.2666C40.9759 21.2289 41.0334 21.1933 41.0908 21.1616C41.1186 21.1438 41.1463 21.1299 41.174 21.116C41.2037 21.1002 41.2295 21.0883 41.2572 21.0764C41.2711 21.0705 41.2869 21.0645 41.2988 21.0586C41.3127 21.0526 41.3246 21.0487 41.3384 21.0447C41.3602 21.0348 41.382 21.0289 41.4018 21.0249C41.4137 21.0209 41.4236 21.019 41.4355 21.015C41.4494 21.011 41.4652 21.0091 41.4791 21.0071C41.5266 20.9991 41.5702 21.0011 41.6078 21.013C41.9069 21.1002 42.1308 21.5181 41.903 21.8093" fill="#CC3333"/>
<path d="M38.3294 17.7406C38.2581 18.5429 37.2697 17.8833 37.0498 18.0695C37.0142 18.0992 36.9646 18.5865 36.5744 18.8242C35.6454 19.3907 34.9541 18.3725 35.0967 17.5168L33.9181 17.3346L33.8963 17.3306L33.8923 16.8354V16.7918L38.3275 17.7387L38.3294 17.7406Z" fill="#CC3333"/>
<path d="M44.2601 17.4237L43.1627 17.6179C43.3212 19.0837 41.5068 19.5749 41.2057 18.0655C41.174 18.0378 41.0591 18.0576 40.9184 18.0873C40.6669 18.1408 40.3281 18.226 40.2034 18.1408C40.1122 18.0794 40.0231 17.6456 40.2568 17.6317L40.9184 17.5089L44.2641 16.8889L44.2601 17.4277V17.4237Z" fill="#CC3333"/>
<path d="M50.173 16.5639C50.0977 16.4312 50.0106 16.3005 49.9095 16.1638C49.763 15.9677 49.5985 15.7835 49.4163 15.6112L49.3906 15.5854L49.3628 15.5636C49.0637 15.3418 48.7428 15.1556 48.41 15.0149C48.2516 14.9476 48.0931 14.8901 47.9366 14.8406C47.6236 14.7455 47.3027 14.6821 46.9759 14.6544C46.7818 14.0879 46.3678 13.2658 45.512 12.626C44.9633 12.214 44.3136 11.9387 43.6164 11.8218C43.1806 11.1364 42.8438 10.4094 42.6101 9.65077C42.4932 9.27045 41.9267 7.29356 42.202 5.84357C42.2793 5.44542 42.412 5.12651 42.6002 4.89673C42.6755 4.80363 42.7587 4.72637 42.8537 4.66101C43.0994 4.48867 43.4341 4.39953 43.8461 4.39953C43.9095 4.39953 43.9729 4.40151 44.0383 4.40548L45.6685 4.50452L44.4879 3.37543C44.1948 3.09415 43.1132 2.17702 41.5028 2.17702C41.4394 2.17702 41.378 2.179 41.3126 2.18296C40.5005 2.21862 39.8369 2.47811 39.3258 2.78118C39.3674 2.64846 39.4189 2.51178 39.4863 2.3751C39.6765 1.97497 39.9498 1.62238 40.2965 1.32129L41.8257 6.10352e-05L39.823 0.275399C39.001 0.386327 37.7689 0.705244 36.5665 1.58078C35.9861 2.0027 35.4751 2.51376 35.0531 3.08623C35.0512 2.87824 35.0888 2.66827 35.1621 2.47216L35.7326 0.972659L34.3202 1.73331C33.6131 2.11165 32.9515 2.56328 32.3513 3.07038C31.9571 3.40316 31.5807 3.76962 31.2341 4.15589C30.7725 4.67091 30.3506 5.2414 29.9782 5.84952C28.1142 8.89607 27.7913 12.4319 27.8072 14.6267H27.7735C27.6626 14.6267 27.5497 14.6326 27.4368 14.6425C27.003 14.6841 26.583 14.803 26.1888 14.9931C25.7075 15.2229 25.2717 15.5537 24.8953 15.9717C24.826 16.0489 24.7686 16.1183 24.719 16.1836C23.8772 17.2691 23.8673 18.4636 23.8613 18.9132C23.8514 20.0265 24.1347 20.9951 24.7032 21.7914C24.8874 22.0509 25.1033 22.2906 25.347 22.5065C25.5906 22.7224 25.864 22.9146 26.1631 23.077C26.8207 23.4316 27.4724 23.5702 27.9558 23.6217C28.1103 25.6065 28.7501 28.2629 30.7686 30.5884C31.6936 31.6541 32.6009 32.2919 33.0564 32.5771C33.6606 32.9575 35.8594 34.1955 38.7554 34.1955C39.7775 34.1955 40.7838 34.037 41.7504 33.728C43.9769 33.0169 45.6765 31.7709 46.8016 30.0298C48.5705 27.2903 48.208 24.42 47.8554 23.0017C48.0515 22.9423 48.2397 22.867 48.4219 22.7838C48.7448 22.6313 49.038 22.4431 49.2955 22.2232C49.5233 22.0291 49.7293 21.8073 49.9056 21.5656C50.9257 20.179 51.0366 18.0734 50.167 16.558M28.5223 21.7181C27.7141 21.8053 26.999 21.5537 26.4543 21.11C25.3311 20.1948 24.933 18.4616 25.9452 17.1681C26.0839 16.9898 26.2562 16.8294 26.4543 16.6927C27.0465 16.2767 27.8508 16.0707 28.5203 16.2945V17.8297C27.1179 17.4217 26.2701 18.212 26.9 19.5491C27.2308 18.8934 27.5437 18.0991 28.3836 18.731C28.4411 19.7293 28.5599 20.7198 28.5223 21.7161M34.2608 24.632C34.1598 24.6696 34.0667 24.7231 33.9874 24.7944C33.6349 25.1093 33.6824 25.6164 33.6883 25.6818C33.7854 25.559 33.9419 25.4025 34.136 25.4025C34.1954 25.4025 34.2469 25.4184 34.2965 25.4421C34.4153 25.4996 34.5045 25.6085 34.5619 25.6561C34.9581 25.9849 35.3839 26.2364 35.8237 26.4623C37.0855 27.114 39.6566 27.1417 40.8154 27.1159C41.1799 27.108 41.4038 27.0961 41.4038 27.0961C42.4556 27.0426 43.8759 26.9317 45.5576 26.6722C45.4447 27.0862 44.7296 29.5346 42.1545 30.8815C41.8237 31.0559 39.4605 32.0146 36.6279 31.2955C33.8012 30.5785 31.65 27.9796 32.2641 25.0578C32.5196 23.8337 33.201 22.976 34.1538 22.3916C34.6114 22.1103 35.1304 21.8924 35.6989 21.726C35.8435 22.0133 36.4239 23.0017 36.727 23.0631C36.8379 23.0849 37.4222 22.6749 37.3153 22.5303C36.6061 22.1638 36.21 21.2605 36.719 20.5455C37.4658 19.5035 38.8544 20.4127 39.6765 20.8703C40.037 20.694 40.4728 20.4147 40.9145 20.2384C41.483 20.0067 42.0634 19.9453 42.5012 20.4959C43.1231 21.2724 42.6081 22.1163 41.9485 22.663C42.1981 22.8769 42.5091 23.0671 42.7725 22.9839C43.0815 22.8868 43.0578 22.4986 43.3113 22.4114C43.755 22.2569 44.5474 23.1859 44.9713 23.9565C45.1872 24.3487 45.4843 25.0202 45.5576 25.9631C45.0248 26.0225 42.9825 26.2444 40.9145 26.3177C39.4685 26.3692 38.0106 26.3494 37.0479 26.1513C35.693 25.8739 35.0215 25.1866 34.9838 25.0856C34.9482 25.0004 34.9759 24.9429 34.9759 24.9429C35.0036 24.8875 35.0611 24.8657 35.0967 24.8538C35.273 24.7924 35.481 24.8716 35.5503 24.9013C35.1542 24.5547 34.6411 24.4735 34.2568 24.624M45.207 19.1569C45.0525 19.452 44.2007 20.4266 44.1849 20.5098C44.1611 20.6187 44.478 21.1001 44.5196 21.3319C44.5731 21.6389 44.5315 21.9519 44.5414 22.2609C44.4265 22.0687 43.5728 21.6627 43.5391 21.6151C43.4995 21.5597 43.5272 21.0169 43.4837 20.8069C43.238 19.6541 42.1307 19.2044 41.0195 19.4065C40.9878 19.4124 40.9541 19.4203 40.9184 19.4322C40.4886 19.559 39.8983 19.9948 39.6824 19.9928C39.4685 19.9928 38.7851 19.553 38.482 19.452C37.4619 19.1153 36.4952 19.4104 35.9742 20.3553C35.901 20.492 35.7682 20.9476 35.7286 20.9753C35.687 21.003 34.964 21.1635 34.758 21.2487C34.548 21.3358 34.3301 21.4368 34.1182 21.5497C33.8428 21.6944 33.5754 21.8607 33.3377 22.0331C33.0862 22.1202 33.1476 21.5438 33.1634 21.4071C33.1931 21.1516 33.4586 20.5811 33.417 20.4226C33.3853 20.3078 33.0109 20.0106 32.8901 19.8462C31.8442 18.424 31.5787 16.5065 33.1079 15.2982C33.4903 14.9951 33.8785 14.8248 34.2707 14.7455C35.9505 14.4088 37.7015 15.7914 39.5002 15.7538C39.9696 15.7439 40.4351 15.625 40.8986 15.4765C42.1268 15.0902 43.3351 14.5177 44.5375 15.3477C45.831 16.2391 45.8904 17.8594 45.209 19.1569M48.1743 21.0783C48.0911 21.1397 48.002 21.1991 47.9069 21.2566L46.5203 19.6877C46.7105 19.0757 46.653 17.9347 47.4612 18.8221C47.6474 19.0261 47.8257 19.7274 47.9782 19.3312C48.3169 18.4477 47.7227 17.6356 46.7679 17.6455L46.5797 16.2014C47.2176 16.2014 47.7544 16.3817 48.1743 16.6808C49.5668 17.6693 49.7055 19.9354 48.1743 21.0783Z" fill="#CC3333"/>
<path d="M40.7462 18.8281C39.9023 19.0123 39.0961 18.8618 38.2463 18.8717C38.906 18.2735 40.037 18.2953 40.7462 18.8281Z" fill="#1B1B1B"/>
<path d="M139.048 38.4108V46.3203C139.048 46.5719 138.975 46.6967 138.83 46.6967H137.923C137.695 46.6967 137.529 46.6075 137.424 46.4273L135.684 43.4223L135.369 46.459C135.344 46.6987 135.209 46.8195 134.965 46.8195H133.904C133.818 46.8195 133.745 46.8056 133.692 46.7779C133.579 46.7205 133.521 46.6095 133.521 46.4412V38.5415C133.521 38.3613 133.579 38.2384 133.69 38.1691C133.759 38.1275 133.848 38.1057 133.959 38.1057H135.052C135.233 38.1057 135.381 38.181 135.504 38.3296L137.404 40.6967L137.527 38.4009C137.54 38.1533 137.669 38.0305 137.913 38.0305H138.669C138.925 38.0305 139.05 38.1552 139.05 38.4108H139.048Z" fill="#CC3333"/>
<path d="M132.725 39.7835C132.725 39.7697 132.723 39.7578 132.723 39.7459C132.721 39.7201 132.719 39.6924 132.717 39.6686C132.713 39.6409 132.709 39.6132 132.705 39.5854C132.701 39.5676 132.697 39.5458 132.691 39.524C132.691 39.522 132.691 39.5181 132.689 39.5161C132.687 39.4983 132.681 39.4805 132.677 39.4606C132.672 39.4389 132.666 39.419 132.658 39.3973C132.656 39.3913 132.654 39.3834 132.652 39.3774C132.644 39.3537 132.636 39.3319 132.626 39.3081C132.616 39.2843 132.606 39.2606 132.594 39.2368C132.584 39.217 132.574 39.1972 132.563 39.1774C132.561 39.1714 132.559 39.1655 132.555 39.1596C132.551 39.1536 132.549 39.1477 132.545 39.1437C132.537 39.1279 132.527 39.114 132.517 39.1001C132.513 39.0962 132.511 39.0902 132.507 39.0863C132.493 39.0665 132.481 39.0466 132.466 39.0268C132.464 39.0229 132.46 39.0189 132.458 39.0169C132.44 38.9932 132.42 38.9714 132.4 38.9496C132.384 38.9318 132.366 38.9139 132.347 38.8941C132.331 38.8763 132.313 38.8604 132.291 38.8426C132.279 38.8307 132.265 38.8188 132.252 38.8089C132.246 38.803 132.238 38.7971 132.23 38.7891C132.214 38.7772 132.198 38.7654 132.178 38.7535C132.158 38.7376 132.137 38.7218 132.113 38.7079C132.099 38.7 132.087 38.6901 132.071 38.6822C132.057 38.6723 132.044 38.6643 132.03 38.6564C132.018 38.6485 132.008 38.6426 131.998 38.6366L131.911 38.5891C131.439 38.3236 130.918 38.1909 130.35 38.1909H128.246C128.217 38.1909 128.185 38.1929 128.155 38.1929C128.137 38.1929 128.122 38.1949 128.102 38.1949C128.086 38.1969 128.068 38.1969 128.048 38.1988C128.04 38.2008 128.032 38.2008 128.024 38.2008H128.018C128.001 38.2028 127.983 38.2048 127.965 38.2068C127.947 38.2087 127.931 38.2107 127.914 38.2127C127.89 38.2167 127.862 38.2186 127.838 38.2246C127.807 38.2286 127.773 38.2345 127.741 38.2404C127.713 38.2464 127.684 38.2523 127.658 38.2602C127.648 38.2622 127.638 38.2642 127.63 38.2662C127.603 38.2741 127.577 38.282 127.549 38.29C127.488 38.3078 127.426 38.3296 127.365 38.3553C127.246 38.4009 127.131 38.4603 127.022 38.5296C127.004 38.5395 126.988 38.5495 126.969 38.5613C126.901 38.6029 126.838 38.6525 126.773 38.702C126.769 38.7059 126.765 38.7059 126.763 38.7099L126.719 38.7357C126.287 39.0843 126.069 39.5339 126.069 40.0886V44.8921C126.069 45.4507 126.234 45.9004 126.557 46.2431C126.582 46.2688 126.61 46.2966 126.638 46.3203C126.654 46.3362 126.67 46.35 126.685 46.3619C126.701 46.3758 126.717 46.3897 126.737 46.4035C126.741 46.4035 126.743 46.4055 126.745 46.4075C126.755 46.4154 126.763 46.4214 126.773 46.4293C126.776 46.4313 126.78 46.4352 126.786 46.4392C126.788 46.4412 126.792 46.4431 126.796 46.4451C126.806 46.4531 126.816 46.459 126.828 46.4669C126.866 46.4927 126.905 46.5184 126.945 46.5382C126.965 46.5481 126.984 46.56 127.008 46.5699C127.034 46.5838 127.064 46.5957 127.091 46.6076C127.117 46.6175 127.145 46.6274 127.173 46.6373C127.177 46.6393 127.181 46.6412 127.185 46.6412C127.185 46.6412 127.185 46.6419 127.187 46.6432C127.208 46.6492 127.23 46.6571 127.254 46.663C127.256 46.665 127.26 46.665 127.264 46.667C127.266 46.667 127.27 46.669 127.274 46.669C127.297 46.6769 127.325 46.6828 127.349 46.6888C127.353 46.6908 127.359 46.6908 127.363 46.6927C127.379 46.6967 127.397 46.7007 127.416 46.7026C127.418 46.7046 127.42 46.7046 127.422 46.7046C127.442 46.7086 127.462 46.7125 127.484 46.7165C127.496 46.7185 127.507 46.7205 127.519 46.7224C127.539 46.7244 127.561 46.7284 127.583 46.7304C127.612 46.7343 127.646 46.7383 127.676 46.7403H127.688C127.715 46.7442 127.743 46.7442 127.773 46.7462H127.783C127.816 46.7482 127.85 46.7482 127.884 46.7482H131.065C131.093 46.7482 131.122 46.7482 131.148 46.7462C131.164 46.7462 131.182 46.7462 131.2 46.7442C131.224 46.7423 131.251 46.7403 131.275 46.7383C131.301 46.7343 131.33 46.7323 131.356 46.7284C131.36 46.7264 131.364 46.7264 131.37 46.7244C131.426 46.7165 131.479 46.7046 131.534 46.6908C131.536 46.6888 131.54 46.6888 131.542 46.6868C131.568 46.6808 131.594 46.6729 131.618 46.665C131.632 46.661 131.641 46.6571 131.653 46.6511H131.657C131.679 46.6412 131.701 46.6333 131.725 46.6234C131.741 46.6175 131.756 46.6095 131.772 46.6036C131.786 46.5957 131.802 46.5877 131.818 46.5798H131.82C131.82 46.5798 131.824 46.5778 131.826 46.5759C131.828 46.5759 131.83 46.5739 131.834 46.5719C131.842 46.5679 131.849 46.564 131.855 46.558C131.863 46.5541 131.871 46.5501 131.879 46.5442C131.895 46.5343 131.911 46.5263 131.927 46.5164C131.933 46.5105 131.943 46.5046 131.95 46.4986C131.958 46.4927 131.966 46.4867 131.976 46.4808C131.992 46.4689 132.008 46.457 132.024 46.4451C132.048 46.4273 132.069 46.4075 132.093 46.3857C132.105 46.3758 132.117 46.3659 132.127 46.354C132.139 46.3461 132.149 46.3342 132.16 46.3223C132.174 46.3084 132.188 46.2946 132.202 46.2807C132.204 46.2768 132.206 46.2748 132.21 46.2708C132.226 46.255 132.24 46.2352 132.254 46.2153C132.258 46.2114 132.261 46.2074 132.263 46.2035C132.269 46.1975 132.275 46.1896 132.281 46.1837C132.295 46.1638 132.311 46.144 132.325 46.1222C132.59 45.7538 132.721 45.2843 132.721 44.7158V39.8667C132.721 39.839 132.721 39.8093 132.719 39.7835H132.725ZM130.388 44.2642C130.388 44.4702 130.283 44.5792 130.071 44.597L128.932 44.7H128.886C128.7 44.7 128.601 44.601 128.591 44.4029L128.446 41.3187V41.287C128.446 41.077 128.553 40.972 128.767 40.972H130.061C130.279 40.972 130.388 41.079 130.388 41.2989V44.2642Z" fill="#CC3333"/>
<path d="M125.273 38.4662V46.6016C125.273 46.7283 125.217 46.7997 125.109 46.8175C125.093 46.8215 125.073 46.8214 125.051 46.8214H122.722C122.577 46.8214 122.502 46.7501 122.502 46.6075V46.5917L122.656 42.4497L122.803 38.4563C122.813 38.1731 122.961 38.0324 123.241 38.0324H124.835C125.002 38.0324 125.12 38.078 125.192 38.173C125.245 38.2424 125.271 38.3414 125.271 38.4662H125.273Z" fill="#CC3333"/>
<path d="M122.062 38.4543V40.9482C122.062 41.0928 121.941 41.1681 121.692 41.1681H121.682L121.204 41.1622L120.699 41.1562H120.695C120.559 41.1562 120.487 41.2275 120.479 41.3662L120.222 46.449C120.212 46.6967 120.083 46.8195 119.836 46.8195H118.457C118.201 46.8195 118.075 46.6927 118.075 46.4391V41.3662C118.075 41.2216 118.001 41.1463 117.855 41.1463H117.072C116.817 41.1463 116.69 41.0195 116.69 40.764V38.4543C116.69 38.1988 116.817 38.072 117.072 38.072H121.682C121.937 38.072 122.062 38.1988 122.062 38.4543Z" fill="#CC3333"/>
<path d="M116.133 38.3692V40.766C116.133 40.9859 116.024 41.0928 115.806 41.0928H114.032C113.776 41.0928 113.649 41.2216 113.649 41.4751V43.6065C113.649 43.8601 113.776 43.9888 114.032 43.9888H115.587C115.804 43.9888 115.913 44.0958 115.913 44.3157V46.5144C115.913 46.7323 115.804 46.8413 115.587 46.8413H113.689C113.136 46.8413 112.665 46.6432 112.273 46.251L112.207 46.1856C112.14 46.1183 112.08 46.0509 112.023 45.9776C111.752 45.629 111.617 45.2249 111.617 44.7693V40.0053C111.617 39.4824 111.811 39.005 112.197 38.5712L112.239 38.5237C112.265 38.4959 112.292 38.4662 112.318 38.4405C112.645 38.1136 113.063 37.9492 113.566 37.9492H113.657L115.244 38.0166L115.818 38.0403C116.03 38.0483 116.135 38.1552 116.135 38.3672L116.133 38.3692Z" fill="#CC3333"/>
<path d="M110.821 38.4662V44.4801C110.821 45.0189 110.654 45.5121 110.322 45.9598C110.318 45.9638 110.316 45.9677 110.312 45.9737L110.161 46.1718C109.832 46.6036 109.385 46.8215 108.818 46.8215H107.035C106.481 46.8215 106.009 46.6274 105.619 46.2391C105.482 46.1024 105.365 45.9519 105.278 45.7914C105.116 45.5042 105.035 45.1813 105.031 44.8248L104.999 38.4643V38.4583C105.001 38.1711 105.144 38.0305 105.433 38.0305H106.564C106.853 38.0305 106.998 38.1731 106.998 38.4643V44.1731C106.998 44.4246 107.113 44.5494 107.346 44.5494H107.378L108.071 44.5177C108.319 44.5078 108.446 44.383 108.458 44.1434L108.672 38.4385C108.681 38.1652 108.832 38.0305 109.119 38.0305H110.385C110.506 38.0305 110.603 38.0542 110.674 38.1077C110.771 38.179 110.819 38.2979 110.819 38.4662H110.821Z" fill="#CC3333"/>
<path d="M103.666 39.211L103.503 39.0466L103.076 38.6207C102.681 38.2266 102.208 38.0305 101.655 38.0305H98.581C98.5631 38.0305 98.5453 38.0305 98.5275 38.0324C98.4978 38.0344 98.47 38.0364 98.4443 38.0423C98.4344 38.0443 98.4245 38.0463 98.4166 38.0483C98.4067 38.0522 98.3987 38.0542 98.3928 38.0562C98.3868 38.0582 98.3829 38.0602 98.3769 38.0621C98.375 38.0621 98.371 38.0641 98.369 38.0641C98.367 38.0661 98.3651 38.0661 98.3631 38.0661C98.3532 38.0721 98.3433 38.074 98.3353 38.08C98.3314 38.082 98.3254 38.0839 98.3215 38.0879C98.3175 38.0899 98.3116 38.0938 98.3076 38.0958C98.3056 38.0978 98.3036 38.0978 98.3017 38.0998C98.2937 38.1057 98.2858 38.1117 98.2779 38.1176C98.268 38.1255 98.2601 38.1335 98.2521 38.1414C98.2482 38.1453 98.2442 38.1513 98.2403 38.1552C98.2343 38.1612 98.2284 38.1671 98.2244 38.1751C98.2224 38.177 98.2204 38.179 98.2204 38.183C98.2125 38.1929 98.2066 38.2028 98.2006 38.2147C98.1947 38.2246 98.1907 38.2345 98.1868 38.2444C98.1828 38.2523 98.1808 38.2583 98.1789 38.2642C98.161 38.3197 98.1511 38.385 98.1511 38.4603V46.1817C98.1511 46.1975 98.1511 46.2134 98.1531 46.2332C98.1531 46.249 98.1551 46.2649 98.1571 46.2807C98.159 46.2926 98.161 46.3045 98.165 46.3164C98.167 46.3263 98.167 46.3342 98.1709 46.3441C98.1729 46.354 98.1749 46.3619 98.1789 46.3698V46.3738C98.1848 46.3897 98.1927 46.4055 98.2006 46.4213C98.2046 46.4293 98.2086 46.4372 98.2125 46.4451C98.2145 46.4471 98.2165 46.4491 98.2185 46.4511C98.2224 46.461 98.2304 46.4689 98.2363 46.4768C98.2383 46.4808 98.2422 46.4847 98.2442 46.4887C98.2521 46.4986 98.262 46.5085 98.272 46.5164C98.2799 46.5243 98.2858 46.5283 98.2937 46.5343C98.3096 46.5461 98.3274 46.558 98.3492 46.5679C98.3611 46.5739 98.373 46.5798 98.3868 46.5858C98.3948 46.5897 98.4027 46.5917 98.4106 46.5957C98.4582 46.6095 98.5116 46.6194 98.5711 46.6254L101.402 46.8353C101.445 46.8373 101.493 46.8393 101.538 46.8393C102.02 46.8393 102.446 46.6511 102.822 46.2748L103.67 45.427C104.064 45.0328 104.26 44.5593 104.26 44.0047V40.6135C104.26 40.0628 104.064 39.5914 103.67 39.1992L103.666 39.211ZM101.74 44.1097C101.74 44.3593 101.633 44.5158 101.42 44.5891L100.641 44.8525C100.619 44.8604 100.595 44.8624 100.566 44.8624C100.427 44.8624 100.356 44.7891 100.356 44.6425V44.6326L100.463 40.3817C100.467 40.2312 100.534 40.1579 100.663 40.1579C100.683 40.1579 100.704 40.1599 100.726 40.1638L101.404 40.2807C101.629 40.3183 101.74 40.4728 101.74 40.7383V44.1117V44.1097Z" fill="#CC3333"/>
<path d="M97.3391 39.6726C97.3371 39.6448 97.3312 39.6131 97.3272 39.5854C97.3213 39.5577 97.3153 39.528 97.3094 39.5002C97.3074 39.4903 97.3035 39.4804 97.3015 39.4685C97.2955 39.4448 97.2876 39.421 97.2797 39.3953C97.2718 39.3695 97.2638 39.3438 97.2539 39.322C97.242 39.2942 97.2302 39.2665 97.2183 39.2407C97.2084 39.2209 97.1985 39.2011 97.1866 39.1793C97.1826 39.1734 97.1806 39.1675 97.1767 39.1615C97.1727 39.1556 97.1707 39.1496 97.1668 39.1457C97.1589 39.1298 97.1489 39.116 97.139 39.1021C97.1371 39.0981 97.1351 39.0922 97.1311 39.0882C97.1173 39.0684 97.1034 39.0486 97.0875 39.0288C97.0856 39.0248 97.0836 39.0229 97.0796 39.0189C97.0717 39.009 97.0657 39.0011 97.0578 38.9912C97.0479 38.9793 97.036 38.9654 97.0242 38.9535C97.0202 38.9476 97.0142 38.9416 97.0103 38.9377C97.0043 38.9317 97.0004 38.9258 96.9944 38.9218C96.9845 38.9099 96.9746 38.9 96.9627 38.8882C96.9588 38.8842 96.9528 38.8783 96.9469 38.8743C96.9429 38.8683 96.937 38.8644 96.9311 38.8604C96.9192 38.8505 96.9093 38.8406 96.8974 38.8307V38.8267C96.8736 38.8109 96.8538 38.7931 96.828 38.7752C96.8261 38.7733 96.8221 38.7693 96.8181 38.7673C96.8063 38.7574 96.7944 38.7495 96.7825 38.7396C96.7686 38.7317 96.7567 38.7218 96.7429 38.7138C96.729 38.7059 96.7151 38.696 96.7013 38.6881C96.6874 38.6782 96.6735 38.6703 96.6597 38.6623C96.6498 38.6544 96.6379 38.6485 96.628 38.6425L96.5428 38.595C96.0694 38.3296 95.5504 38.1968 94.9799 38.1968H92.8763C92.3216 38.1968 91.8284 38.3712 91.3966 38.7178L91.355 38.7436C91.3252 38.7673 91.2955 38.7911 91.2678 38.8168C91.25 38.8327 91.2341 38.8485 91.2163 38.8644C91.2044 38.8763 91.1905 38.8882 91.1787 38.9C91.1509 38.9298 91.1232 38.9595 91.0974 38.9892C91.0836 39.005 91.0697 39.0209 91.0578 39.0367C91.0558 39.0387 91.0558 39.0407 91.0539 39.0427C91.04 39.0605 91.0261 39.0783 91.0123 39.0981C90.9984 39.116 90.9865 39.1358 90.9746 39.1575C90.9667 39.1675 90.9588 39.1793 90.9528 39.1912C90.939 39.213 90.9251 39.2348 90.9132 39.2586C90.8994 39.2843 90.8835 39.314 90.8716 39.3418C90.8578 39.3675 90.8459 39.3972 90.834 39.425C90.834 39.4269 90.832 39.4289 90.832 39.4309C90.832 39.4329 90.832 39.4329 90.83 39.4349C90.8221 39.4547 90.8162 39.4745 90.8082 39.4983C90.8063 39.5022 90.8043 39.5062 90.8043 39.5121C90.8023 39.5141 90.8023 39.5161 90.8003 39.5181C90.7904 39.5478 90.7825 39.5775 90.7746 39.6052C90.7746 39.6052 90.7726 39.6112 90.7726 39.6131C90.7647 39.6429 90.7567 39.6706 90.7508 39.7003C90.7468 39.7261 90.7409 39.7518 90.7369 39.7776C90.733 39.7993 90.731 39.8192 90.729 39.8429C90.725 39.8647 90.7231 39.8865 90.7211 39.9083C90.7171 39.936 90.7151 39.9677 90.7151 39.9955C90.7132 40.0291 90.7112 40.0648 90.7112 40.0985V44.902C90.7112 45.4606 90.8756 45.9103 91.2005 46.253C91.2222 46.2748 91.244 46.2985 91.2698 46.3203C91.2797 46.3302 91.2916 46.3401 91.3015 46.35C91.3233 46.3698 91.3451 46.3877 91.3708 46.4075C91.3708 46.4075 91.3728 46.4075 91.3728 46.4094C91.3906 46.4233 91.4104 46.4392 91.4322 46.451C91.4599 46.4709 91.4877 46.4887 91.5154 46.5065C91.5352 46.5204 91.555 46.5323 91.5788 46.5441C91.6065 46.558 91.6362 46.5739 91.6659 46.5877C91.6996 46.6036 91.7353 46.6174 91.769 46.6313C91.7987 46.6432 91.8323 46.6531 91.8621 46.665C91.866 46.667 91.872 46.667 91.8759 46.6689C91.8838 46.6709 91.8918 46.6729 91.8997 46.6769C91.9294 46.6848 91.9591 46.6927 91.9908 46.6987C91.9928 46.7006 91.9968 46.7006 92.0007 46.7026C92.0027 46.7026 92.0047 46.7026 92.0086 46.7046C92.0106 46.7046 92.0146 46.7066 92.0166 46.7066C92.0304 46.7086 92.0443 46.7125 92.0582 46.7145C92.076 46.7185 92.0938 46.7224 92.1136 46.7264C92.1176 46.7264 92.1235 46.7284 92.1295 46.7284C92.1532 46.7323 92.175 46.7363 92.1988 46.7383C92.2166 46.7403 92.2325 46.7422 92.2503 46.7442C92.2543 46.7462 92.2562 46.7462 92.2602 46.7462C92.2998 46.7502 92.3414 46.7541 92.383 46.7561H92.3929C92.4108 46.7581 92.4286 46.7581 92.4484 46.7581C92.4741 46.7601 92.5019 46.7601 92.5276 46.7601H95.7108C95.7366 46.7601 95.7663 46.7601 95.794 46.7581C95.8079 46.7581 95.8198 46.7581 95.8337 46.7561C95.8574 46.7561 95.8812 46.7541 95.907 46.7502C95.9347 46.7482 95.9624 46.7442 95.9882 46.7403C95.9981 46.7403 96.006 46.7383 96.0139 46.7363C96.0417 46.7323 96.0694 46.7264 96.0951 46.7204C96.1248 46.7145 96.1546 46.7086 96.1823 46.7006H96.1843C96.21 46.6927 96.2358 46.6848 96.2615 46.6769C96.2754 46.6709 96.2893 46.667 96.3031 46.661C96.3427 46.6452 96.3824 46.6293 96.42 46.6095C96.4398 46.6016 96.4576 46.5917 96.4774 46.5818C96.5052 46.5659 96.5309 46.5501 96.5587 46.5342C96.5844 46.5184 96.6121 46.5006 96.6359 46.4788C96.6537 46.4669 96.6696 46.455 96.6874 46.4411C96.7072 46.4273 96.729 46.4094 96.7508 46.3877C96.7508 46.3857 96.7528 46.3857 96.7548 46.3837C96.7647 46.3778 96.7726 46.3679 96.7805 46.3599H96.7825C96.7964 46.3441 96.8122 46.3302 96.8241 46.3144C96.838 46.3025 96.8498 46.2886 96.8637 46.2728C96.8815 46.2549 96.8974 46.2351 96.9152 46.2153C96.935 46.1876 96.9568 46.1579 96.9786 46.1302C97.244 45.7617 97.3767 45.2922 97.3767 44.7237V39.8746C97.3767 39.8073 97.3728 39.7439 97.3649 39.6805L97.3391 39.6726ZM95.0096 44.2642C95.0096 44.4702 94.9046 44.5791 94.6927 44.597L93.5557 44.7H93.5081C93.3219 44.7 93.2229 44.6009 93.213 44.4028L93.0684 41.3187V41.287C93.0684 41.077 93.1773 40.972 93.3913 40.972H94.6828C94.9007 40.972 95.0096 41.079 95.0096 41.2989V44.2642Z" fill="#CC3333"/>
<path d="M90.8062 47.6891L89.1938 44.6267L88.7144 43.7195L89.1938 43.2282L89.376 43.042C89.7663 42.6419 89.9604 42.1665 89.9604 41.6138V39.9994C89.9604 39.936 89.9584 39.8746 89.9525 39.8132C89.9525 39.7954 89.9505 39.7796 89.9485 39.7598C89.9485 39.7538 89.9465 39.7459 89.9465 39.7399C89.9445 39.734 89.9445 39.7261 89.9426 39.7201C89.9406 39.7023 89.9386 39.6845 89.9366 39.6647C89.9346 39.6488 89.9307 39.631 89.9287 39.6132C89.9267 39.6033 89.9247 39.5934 89.9228 39.5835C89.9188 39.5676 89.9148 39.5498 89.9109 39.53C89.9069 39.5141 89.9029 39.4963 89.899 39.4785C89.897 39.4705 89.893 39.4606 89.8911 39.4527C89.8851 39.4289 89.8772 39.4072 89.8693 39.3814C89.8653 39.3675 89.8614 39.3557 89.8574 39.3418C89.8534 39.3299 89.8475 39.316 89.8435 39.3042C89.8336 39.2784 89.8237 39.2507 89.8118 39.2249C89.7999 39.1992 89.7881 39.1734 89.7762 39.1477C89.7643 39.1239 89.7524 39.1001 89.7385 39.0744C89.6831 38.9753 89.6197 38.8822 89.5424 38.7951C89.5345 38.7872 89.5266 38.7772 89.5187 38.7693C89.5107 38.7594 89.5028 38.7495 89.4929 38.7416C89.4909 38.7376 89.489 38.7357 89.485 38.7317C89.4573 38.702 89.4236 38.6683 89.3919 38.6386C89.0155 38.2979 88.55 38.1255 87.9974 38.1255H84.6755C84.6577 38.1255 84.6398 38.1255 84.622 38.1275C84.6042 38.1275 84.5883 38.1295 84.5705 38.1315C84.5566 38.1335 84.5408 38.1374 84.5269 38.1394C84.521 38.1414 84.515 38.1434 84.5091 38.1454C84.4913 38.1493 84.4754 38.1533 84.4576 38.1612C84.4477 38.1652 84.4378 38.1691 84.4299 38.1731C84.4219 38.177 84.414 38.181 84.4061 38.187C84.4001 38.1909 84.3942 38.1949 84.3863 38.2008C84.3724 38.2087 84.3605 38.2206 84.3486 38.2305C84.3407 38.2385 84.3348 38.2464 84.3288 38.2543C84.3249 38.2602 84.3209 38.2662 84.3169 38.2721C84.313 38.2761 84.309 38.282 84.3051 38.29C84.3011 38.2959 84.2971 38.3018 84.2932 38.3058C84.2912 38.3118 84.2872 38.3197 84.2833 38.3256C84.2833 38.3276 84.2833 38.3296 84.2813 38.3316C84.2773 38.3415 84.2734 38.3533 84.2694 38.3652C84.2674 38.3692 84.2654 38.3751 84.2635 38.3811C84.2575 38.4029 84.2536 38.4266 84.2496 38.4524C84.2476 38.4682 84.2456 38.4841 84.2456 38.4999C84.2437 38.5178 84.2437 38.5356 84.2437 38.5534V46.358C84.2437 46.6472 84.3863 46.7898 84.6775 46.7898H85.6322C85.9096 46.7898 86.0561 46.6511 86.0779 46.3679L86.278 43.8997L88.9185 47.903C88.9601 47.9684 89.0195 48.0001 89.0948 48.0001H90.618C90.6339 48.0001 90.6497 47.9981 90.6616 47.9961H90.6715C90.6715 47.9961 90.6775 47.9942 90.6794 47.9942H90.6814C90.6814 47.9942 90.6854 47.9922 90.6874 47.9922C90.6953 47.9922 90.7032 47.9902 90.7092 47.9862C90.7131 47.9862 90.7171 47.9842 90.7191 47.9823H90.721C90.721 47.9823 90.7349 47.9763 90.7428 47.9724C90.7488 47.9704 90.7527 47.9664 90.7567 47.9644C90.7626 47.9605 90.7686 47.9565 90.7745 47.9526C90.7785 47.9486 90.7824 47.9446 90.7844 47.9407C90.7904 47.9367 90.7943 47.9308 90.7963 47.9248C90.8003 47.9209 90.8042 47.9169 90.8062 47.9129C90.8122 47.903 90.8161 47.8911 90.8201 47.8773C90.824 47.8674 90.828 47.8555 90.83 47.8416V47.8377C90.83 47.8377 90.832 47.8297 90.832 47.8238C90.8339 47.8119 90.8339 47.798 90.8339 47.7842C90.8339 47.7485 90.826 47.7168 90.8122 47.6871L90.8062 47.6891ZM87.3298 41.8357L86.7395 42.4676C86.694 42.5191 86.6385 42.5428 86.5731 42.5428C86.4345 42.5428 86.3651 42.4715 86.3651 42.3289V42.3131L86.4186 40.8968C86.4266 40.7423 86.4959 40.667 86.6266 40.667C86.6742 40.667 86.7118 40.6709 86.7395 40.6789L87.213 40.7957C87.4784 40.8611 87.6091 41.0156 87.6091 41.2672C87.6091 41.4474 87.516 41.6376 87.3298 41.8377V41.8357Z" fill="#CC3333"/>
<path d="M82.8926 39.1734L82.7401 39.0664C82.7401 39.0664 82.7381 39.0644 82.7361 39.0644C82.7183 39.0506 82.6985 39.0367 82.6786 39.0248C82.6608 39.0129 82.641 39.0011 82.6212 38.9892H82.6192C82.6192 38.9892 82.6014 38.9773 82.5935 38.9733C82.5776 38.9614 82.5578 38.9495 82.538 38.9396C82.5182 38.9278 82.5004 38.9179 82.4806 38.908C82.4806 38.908 82.4786 38.906 82.4766 38.906C82.4528 38.8921 82.431 38.8802 82.4053 38.8703C82.3835 38.8584 82.3597 38.8465 82.334 38.8366C82.3003 38.8208 82.2627 38.8049 82.229 38.7911C82.1953 38.7752 82.1577 38.7614 82.122 38.7495C82.0804 38.7336 82.0369 38.7198 81.9933 38.7079C81.9636 38.698 81.9338 38.6901 81.9041 38.6821C81.8487 38.6683 81.7912 38.6544 81.7338 38.6445C81.708 38.6386 81.6823 38.6346 81.6545 38.6326C81.6407 38.6287 81.6248 38.6267 81.611 38.6247C81.5694 38.6187 81.5258 38.6148 81.4842 38.6108C81.4664 38.6088 81.4466 38.6069 81.4267 38.6049C81.4069 38.6049 81.3871 38.6029 81.3673 38.6029C81.3198 38.5989 81.2722 38.5989 81.2247 38.5989H77.7305C77.4056 38.5989 77.2412 38.7614 77.2412 39.0862V46.451C77.2412 46.7046 77.368 46.8314 77.6235 46.8314H78.8299C79.0854 46.8314 79.2102 46.7046 79.2102 46.451V44.3038C79.2102 44.1572 79.2854 44.0839 79.43 44.0839L81.4327 44.0938H81.4426C81.4723 44.0938 81.504 44.0938 81.5337 44.0918C81.5634 44.0918 81.5951 44.0899 81.6248 44.0859C81.6347 44.0859 81.6446 44.0859 81.6545 44.0839C81.6664 44.0819 81.6763 44.0819 81.6862 44.08C81.7001 44.078 81.714 44.078 81.7278 44.076C81.7516 44.072 81.7754 44.0681 81.7991 44.0641C81.8229 44.0601 81.8447 44.0562 81.8685 44.0502C81.8922 44.0463 81.914 44.0403 81.9378 44.0344C81.9556 44.0304 81.9754 44.0245 81.9953 44.0185C82.0131 44.0146 82.0289 44.0106 82.0487 44.0047C82.0824 43.9928 82.1181 43.9809 82.1498 43.967C82.1735 43.9591 82.1933 43.9512 82.2171 43.9413C82.2706 43.9195 82.3221 43.8938 82.3736 43.864C82.3855 43.8581 82.3974 43.8502 82.4112 43.8423C82.4211 43.8363 82.435 43.8284 82.4469 43.8205C82.4687 43.8066 82.4924 43.7927 82.5142 43.7769H82.5162C82.542 43.7591 82.5697 43.7412 82.5935 43.7194C82.6172 43.7036 82.643 43.6838 82.6648 43.664C82.6866 43.6442 82.7103 43.6244 82.7341 43.6026C82.7717 43.5709 82.8114 43.5332 82.847 43.4956L82.9857 43.351C83.3719 42.9509 83.5641 42.4755 83.5641 41.9228V40.5025C83.5641 39.9459 83.3402 39.5101 82.8886 39.1873L82.8926 39.1734ZM81.3693 41.5821C81.3693 41.8693 81.2287 42.0516 80.9454 42.1308L79.6895 42.4814C79.6559 42.4913 79.6222 42.4973 79.5984 42.4973C79.5014 42.4973 79.4518 42.424 79.4479 42.2813L79.4201 40.7402V40.7303C79.4201 40.6154 79.4637 40.558 79.5548 40.558C79.5766 40.558 79.6004 40.562 79.6301 40.5679L80.9494 40.8333C81.2287 40.8908 81.3673 41.0671 81.3673 41.3622V41.5821H81.3693Z" fill="#CC3333"/>
<path d="M142.833 40.5719C142.608 40.5719 142.495 40.661 142.495 40.8393C142.495 41.0176 142.621 41.1463 142.873 41.2057L143.935 41.4613C144.491 41.594 144.893 41.8059 145.141 42.0951C145.319 42.3031 145.408 42.6914 145.408 43.2619V45.0248C145.408 45.5953 145.191 46.0469 144.753 46.3758C144.361 46.6729 143.867 46.8214 143.273 46.8214H140.238C139.975 46.8214 139.844 46.6907 139.844 46.4273V44.9159C139.844 44.6524 139.975 44.5217 140.238 44.5217H142.718C142.982 44.5217 143.113 44.3711 143.113 44.072C143.113 43.8244 143.012 43.664 142.812 43.5946L141.455 43.1272C140.379 42.7567 139.842 42.0238 139.842 40.9304V39.8845C139.842 39.2922 140.011 38.8347 140.345 38.5138C140.68 38.1929 141.146 38.0324 141.738 38.0324H145.197C145.46 38.0324 145.591 38.1631 145.591 38.4266V40.1777C145.591 40.4411 145.46 40.5719 145.197 40.5719H142.833Z" fill="#CC3333"/>
</svg>
