<svg width="17" height="17" viewBox="0 0 17 17" fill="none" xmlns="http://www.w3.org/2000/svg">
<path d="M12.8551 5.23054C12.813 5.22377 12.771 5.21607 12.7291 5.20746C11.4838 4.94814 10.556 4.22728 10.4385 2.99299V2.87626C10.4385 2.63325 10.2388 2.43622 9.99244 2.43622H9.01631C8.69717 2.43622 8.43844 2.69146 8.43844 3.00628V10.5217C8.43511 11.4675 7.66137 12.2316 6.71031 12.2283C6.17451 12.2264 5.67011 11.9766 5.34571 11.5525C4.77057 10.7996 4.91804 9.7255 5.67511 9.15353C5.81704 9.04627 5.97291 8.9634 6.13664 8.90547C6.32084 8.84023 6.43851 8.66128 6.43851 8.46819V7.42639C6.43851 7.13124 6.15924 6.9104 5.86831 6.97912C4.42671 7.31952 3.27377 8.49936 3.05851 10.0353C2.90164 11.1549 3.27831 12.2831 4.07891 13.0917C5.51024 14.5364 7.85777 14.5629 9.32224 13.151C10.036 12.4628 10.4384 11.5199 10.4384 10.5353V6.39085C11.1055 6.85502 11.8773 7.14945 12.6838 7.25231C13.0305 7.29651 13.3384 7.03134 13.3384 6.68646V5.78087C13.3385 5.50439 13.1318 5.27513 12.8551 5.23054Z" fill="white"/>
<path d="M6.6637 14.6547C5.54877 14.6421 4.5055 14.2014 3.7261 13.4137C2.81797 12.4955 2.39917 11.2397 2.57717 9.96821C2.81424 8.27383 4.05597 6.92155 5.74057 6.52321C5.81197 6.50637 5.88497 6.49782 5.95763 6.49782C6.17737 6.49782 6.38524 6.57352 6.55624 6.71616C6.7713 6.89557 6.8861 7.16613 6.8861 7.44399V8.46244C6.8861 8.85421 6.64064 9.20441 6.2753 9.33403C6.15444 9.37691 6.04157 9.43768 5.93977 9.51463C5.38663 9.93303 5.27877 10.722 5.69937 11.2732C5.93417 11.5807 6.30564 11.7649 6.6929 11.7663C7.03037 11.7663 7.34397 11.6375 7.58064 11.4036C7.81944 11.1674 7.95157 10.8526 7.95283 10.517V2.99264C7.95277 2.42357 8.42043 1.96222 8.9973 1.96222H9.97337C10.4774 1.96222 10.8861 2.36536 10.8861 2.86262V2.95633C11.011 4.1317 12.0112 4.57845 12.8285 4.74681C12.8627 4.75378 12.8985 4.76022 12.9345 4.76601C13.4473 4.84782 13.8194 5.27083 13.8194 5.77196V6.6577C13.8194 6.84395 13.7764 7.02973 13.681 7.1904C13.485 7.52054 13.1326 7.71094 12.7611 7.71094C12.7156 7.71094 12.6698 7.70804 12.6246 7.70232C12.0384 7.62833 11.4697 7.46372 10.9344 7.21309L10.8861 7.1904V10.5321C10.886 11.635 10.4227 12.7097 9.6149 13.4806C8.8215 14.2379 7.7737 14.6549 6.66497 14.655H6.71297L6.6637 14.6547ZM5.91117 7.38743C4.62877 7.71219 3.68297 8.7651 3.5017 10.0699C3.3635 11.0641 3.68857 12.046 4.39357 12.764C4.9987 13.3798 5.8087 13.7244 6.67444 13.7343L6.67344 13.7345C7.53557 13.7345 8.34964 13.4111 8.96584 12.8238C9.59297 12.226 9.9527 11.3926 9.95277 10.5373V6.39306C9.95277 6.22042 10.0504 6.06377 10.2075 5.98432C10.2744 5.95058 10.3496 5.9327 10.4248 5.9327C10.5228 5.9327 10.6168 5.96176 10.6968 6.01681C11.3038 6.43442 12.016 6.70452 12.7564 6.79798C12.7619 6.79863 12.7672 6.79896 12.7722 6.79896C12.8004 6.79896 12.8266 6.78923 12.848 6.77088C12.8729 6.74951 12.8861 6.72103 12.8861 6.68867V5.78314C12.8861 5.72731 12.8378 5.69416 12.793 5.68713C12.7438 5.67923 12.6946 5.67042 12.6457 5.66049C11.064 5.33495 10.0831 4.37852 9.95464 3.03663C9.95397 3.02282 9.95337 3.00888 9.9527 2.995L9.95277 2.88294H8.99724C8.93584 2.88294 8.8861 2.93207 8.8861 2.99257V10.4968C8.88404 11.0824 8.6549 11.632 8.2409 12.0444C7.82797 12.4556 7.27984 12.682 6.6975 12.682H6.6895C6.01244 12.6797 5.36364 12.3559 4.95417 11.816C4.15444 10.7602 4.4597 9.20349 5.6783 8.55247C5.75977 8.50894 5.8451 8.47277 5.93177 8.44048L5.95277 8.43258V7.37691L5.91117 7.38743Z" fill="#212121"/>
</svg>
