<svg width="17" height="17" viewBox="0 0 17 17" fill="none" xmlns="http://www.w3.org/2000/svg">
<path d="M14.4041 5.6487C14.3482 6.88582 13.4937 8.57981 11.8409 10.7298C10.1321 12.9757 8.68638 14.0985 7.50365 14.0985C6.77132 14.0985 6.15105 13.4148 5.64478 12.047C5.30645 10.7931 4.96845 9.5394 4.63025 8.28551C4.25405 6.91844 3.85072 6.23395 3.41952 6.23395C3.35065 6.23395 3.15559 6.34134 2.83465 6.55547C2.60679 6.70753 2.29925 6.65807 2.13265 6.44111C1.96845 6.22717 1.99785 5.9236 2.19919 5.74379C2.69739 5.29882 3.18992 4.85379 3.67605 4.40829C4.50325 3.68539 5.12432 3.30526 5.53818 3.26679C6.51639 3.17176 7.11845 3.8479 7.34438 5.29514C7.58858 6.85662 7.75752 7.82785 7.85252 8.20804C8.13445 9.50349 8.44465 10.1504 8.78358 10.1504C9.04665 10.1504 9.44178 9.73032 9.96865 8.89009C10.4951 8.04961 10.7769 7.41017 10.815 6.97092C10.8899 6.24559 10.6079 5.8821 9.96865 5.8821C9.91245 5.8821 9.85599 5.88453 9.79918 5.8894C9.45419 5.91899 9.20632 5.56886 9.34818 5.2545C10.0161 3.77457 11.093 3.05937 12.5783 3.10777C13.8697 3.14605 14.4785 3.99298 14.4041 5.6487Z" fill="white"/>
<path d="M7.50376 14.5722C6.55396 14.5722 5.77843 13.7777 5.19843 12.2108C5.19343 12.1973 5.18917 12.1838 5.18537 12.1699L4.1709 8.40842C3.82923 7.1669 3.54537 6.82307 3.44263 6.73403C3.37877 6.76967 3.27176 6.83412 3.09976 6.94888C2.6637 7.23983 2.07283 7.14316 1.75476 6.72863C1.44223 6.32154 1.4979 5.73419 1.8815 5.39148C2.3921 4.93547 2.8875 4.48753 3.35383 4.06006C3.35663 4.05749 3.35943 4.05499 3.36223 4.05256C4.2875 3.2441 4.9649 2.84457 5.49403 2.79538C6.3653 2.71081 7.47736 3.06305 7.81463 5.22253C8.05643 6.76875 8.22457 7.73485 8.3143 8.0938C8.31543 8.09847 8.31657 8.1032 8.31756 8.10794C8.53217 9.09416 8.72117 9.48041 8.81583 9.62384C8.93236 9.5246 9.16836 9.27213 9.5651 8.63946C10.1673 7.6779 10.3194 7.17926 10.341 6.93027C10.3658 6.68957 10.3412 6.5076 10.2761 6.43571C10.213 6.36613 10.0564 6.35574 9.96863 6.35574C9.92603 6.35574 9.88283 6.35758 9.84023 6.36127C9.50863 6.38955 9.19603 6.24558 9.00376 5.97601C8.81096 5.70571 8.77743 5.36347 8.91417 5.06055C9.66563 3.39569 10.9041 2.58072 12.5938 2.63452C13.2862 2.65504 13.8368 2.87871 14.2288 3.29908C14.7081 3.81304 14.927 4.61071 14.8794 5.66994C14.8184 7.01866 13.9481 8.76797 12.2187 11.0176C10.3995 13.4089 8.8567 14.5722 7.50376 14.5722ZM6.0987 11.9032C6.39343 12.6937 6.87443 13.6251 7.50376 13.6251C8.20523 13.6251 9.4613 13.0732 11.4618 10.444C13.048 8.38047 13.8776 6.76053 13.929 5.62752C13.9648 4.83109 13.8311 4.26446 13.5316 3.94326C13.3163 3.71248 12.9999 3.59397 12.5643 3.58102C11.2893 3.53913 10.3844 4.13924 9.7979 5.41457C9.85476 5.41062 9.91216 5.40858 9.9689 5.40858C10.4054 5.40858 10.7465 5.54064 10.9827 5.80114C11.2398 6.08466 11.3427 6.49451 11.2885 7.01932C11.2442 7.53124 10.9444 8.22763 10.3726 9.14053C9.7119 10.1942 9.25163 10.6239 8.78376 10.6239C8.15096 10.6239 7.74676 9.95497 7.38923 8.31523C7.29103 7.919 7.12256 6.95461 6.87443 5.36801C6.60443 3.63902 5.86343 3.71077 5.58443 3.73807C5.4419 3.75129 5.0059 3.87716 3.99423 4.7604C3.5261 5.18945 3.0291 5.63883 2.51703 6.09617C2.5003 6.11109 2.49757 6.13635 2.51083 6.15358C2.52457 6.17127 2.55043 6.17502 2.56976 6.16219C3.08176 5.82054 3.25177 5.76043 3.41963 5.76043C4.3141 5.76043 4.78176 7.04306 5.08923 8.16049L6.0987 11.9032Z" fill="#212121"/>
</svg>
